{"scene":0,"scenes":[{"nodes":[0,1,2,3,4,5,6,7,8,9,10,11,12,13,14,15,16,17,18,19,20,21,22,23,24,25,26,27,28,29,30,31,32,33,34,35,36,37,38,39,40,41,42,43,44,45,46,47,48,49,50,51,52,53,54,55,56,57,58,59,60,61,62,63,64,65,66,67,68,69,70,71,72,73,74,75,76,77,78,79,80,81,82,83,84,85,86,87,88,89,90,91,92,93,94,95,96,97,98,99,100,101,102,103,104,105,106,107,108,109,110,111,112,113,114,115,116,117,118,119,120,121,122,123,124,125,126,127,128,129,130,131,132,133,134,135,136,137,138,139,140,141,142,143,144,145,146,147,148,149,150,151,152,153,154]}],"asset":{"version":"2.0","generator":"https://github.com/mikedh/trimesh"},"accessors":[{"componentType":5125,"type":"SCALAR","bufferView":0,"count":36,"max":[7],"min":[0]},{"componentType":5126,"type":"VEC3","byteOffset":0,"bufferView":1,"count":8,"max":[90.33799743652344,-25.763099670410156,9.0],"min":[64.60399627685547,-49.272098541259766,0.0]},{"componentType":5121,"normalized":true,"type":"VEC4","byteOffset":0,"bufferView":2,"count":8,"max":[6,182,212,220],"min":[6,182,212,220]},{"componentType":5126,"type":"VEC3","byteOffset":0,"bufferView":3,"count":8,"max":[107.19149780273438,-12.78689956665039,9.0],"min":[83.947998046875,-34.25849914550781,0.0]},{"componentType":5125,"type":"SCALAR","bufferView":4,"count":36,"max":[7],"min":[0]},{"componentType":5126,"type":"VEC3","byteOffset":0,"bufferView":5,"count":8,"max":[70.03720092773438,-38.9989013671875,9.0],"min":[43.94179916381836,-63.323001861572266,0.0]},{"componentType":5125,"type":"SCALAR","bufferView":6,"count":36,"max":[7],"min":[0]},{"componentType":5126,"type":"VEC3","byteOffset":0,"bufferView":7,"count":8,"max":[71.91619873046875,-11.830499649047852,9.0],"min":[47.773399353027344,-32.95320129394531,0.0]},{"componentType":5126,"type":"VEC3","byteOffset":0,"bufferView":8,"count":8,"max":[164.84959411621094,-49.640201568603516,9.0],"min":[140.31190490722656,-75.48509979248047,0.0]},{"componentType":5126,"type":"VEC3","byteOffset":0,"bufferView":9,"count":8,"max":[128.32249450683594,-45.21799850463867,9.0],"min":[101.57559967041016,-66.63849639892578,0.0]},{"componentType":5126,"type":"VEC3","byteOffset":0,"bufferView":10,"count":8,"max":[123.61710357666016,-73.52999877929688,9.0],"min":[98.28459930419922,-98.7655029296875,0.0]},{"componentType":5126,"type":"VEC3","byteOffset":0,"bufferView":11,"count":8,"max":[104.59829711914062,-37.67070007324219,9.0],"min":[93.19139862060547,-50.286800384521484,0.0]},{"componentType":5126,"type":"VEC3","byteOffset":0,"bufferView":12,"count":8,"max":[37.79290008544922,110.15789794921875,9.0],"min":[-21.77079963684082,61.023101806640625,0.0]},{"componentType":5126,"type":"VEC3","byteOffset":0,"bufferView":13,"count":8,"max":[124.70490264892578,-1.4108999967575073,9.0],"min":[104.89129638671875,-19.855100631713867,0.0]},{"componentType":5125,"type":"SCALAR","bufferView":14,"count":36,"max":[7],"min":[0]},{"componentType":5126,"type":"VEC3","byteOffset":0,"bufferView":15,"count":8,"max":[87.93160247802734,-46.121299743652344,9.0],"min":[70.43489837646484,-66.92569732666016,0.0]},{"componentType":5126,"type":"VEC3","byteOffset":0,"bufferView":16,"count":8,"max":[104.55370330810547,53.713600158691406,9.0],"min":[69.22160339355469,8.47599983215332,0.0]},{"componentType":5126,"type":"VEC3","byteOffset":0,"bufferView":17,"count":8,"max":[43.8114013671875,28.65220069885254,9.0],"min":[-0.611299991607666,-17.894800186157227,0.0]},{"componentType":5126,"type":"VEC3","byteOffset":0,"bufferView":18,"count":8,"max":[143.8701934814453,-58.64659881591797,9.0],"min":[124.34100341796875,-80.1144027709961,0.0]},{"componentType":5126,"type":"VEC3","byteOffset":0,"bufferView":19,"count":8,"max":[144.1436004638672,-25.545900344848633,9.0],"min":[121.81289672851562,-46.571800231933594,0.0]},{"componentType":5126,"type":"VEC3","byteOffset":0,"bufferView":20,"count":8,"max":[97.314697265625,-37.93040084838867,9.0],"min":[85.52880096435547,-51.49980163574219,0.0]},{"componentType":5126,"type":"VEC3","byteOffset":0,"bufferView":21,"count":8,"max":[84.62670135498047,-75.63300323486328,9.0],"min":[65.25350189208984,-94.17829895019531,0.0]},{"componentType":5126,"type":"VEC3","byteOffset":0,"bufferView":22,"count":8,"max":[185.4250030517578,-5.145400047302246,9.0],"min":[151.3520965576172,-36.440799713134766,0.0]},{"componentType":5126,"type":"VEC3","byteOffset":0,"bufferView":23,"count":8,"max":[119.04029846191406,-24.954500198364258,9.0],"min":[101.5792007446289,-42.79949951171875,0.0]},{"componentType":5126,"type":"VEC3","byteOffset":0,"bufferView":24,"count":8,"max":[66.54180145263672,-60.18439865112305,9.0],"min":[53.328399658203125,-73.31849670410156,0.0]},{"componentType":5126,"type":"VEC3","byteOffset":0,"bufferView":25,"count":8,"max":[164.0771942138672,72.8906021118164,9.0],"min":[149.7989959716797,60.00189971923828,0.0]},{"componentType":5126,"type":"VEC3","byteOffset":0,"bufferView":26,"count":8,"max":[54.5900993347168,71.79450225830078,9.0],"min":[10.74779987335205,35.33829879760742,0.0]},{"componentType":5126,"type":"VEC3","byteOffset":0,"bufferView":27,"count":8,"max":[105.52439880371094,-58.88010025024414,9.0],"min":[92.4552993774414,-73.54049682617188,0.0]},{"componentType":5126,"type":"VEC3","byteOffset":0,"bufferView":28,"count":8,"max":[109.64939880371094,-33.93040084838867,9.0],"min":[98.21479797363281,-46.365699768066406,0.0]},{"componentType":5126,"type":"VEC3","byteOffset":0,"bufferView":29,"count":8,"max":[135.66529846191406,-10.563799858093262,9.0],"min":[111.86329650878906,-33.74340057373047,0.0]},{"componentType":5126,"type":"VEC3","byteOffset":0,"bufferView":30,"count":8,"max":[54.9275016784668,98.76010131835938,9.0],"min":[34.1864013671875,74.61139678955078,0.0]},{"componentType":5126,"type":"VEC3","byteOffset":0,"bufferView":31,"count":8,"max":[74.68060302734375,-53.252601623535156,9.0],"min":[61.69810104370117,-66.47760009765625,0.0]},{"componentType":5126,"type":"VEC3","byteOffset":0,"bufferView":32,"count":8,"max":[99.26940155029297,7.090700149536133,9.0],"min":[75.8927993774414,-13.90999984741211,0.0]},{"componentType":5126,"type":"VEC3","byteOffset":0,"bufferView":33,"count":8,"max":[130.7489013671875,-65.59729766845703,9.0],"min":[113.74459838867188,-83.52760314941406,0.0]},{"componentType":5126,"type":"VEC3","byteOffset":0,"bufferView":34,"count":8,"max":[152.9792938232422,-38.26580047607422,9.0],"min":[133.09030151367188,-56.887901306152344,0.0]},{"componentType":5126,"type":"VEC3","byteOffset":0,"bufferView":35,"count":8,"max":[153.1927032470703,65.72380065917969,9.0],"min":[136.72120666503906,51.30179977416992,0.0]},{"componentType":5126,"type":"VEC3","byteOffset":0,"bufferView":36,"count":8,"max":[91.19989776611328,-41.64419937133789,9.0],"min":[80.26589965820312,-55.30400085449219,0.0]},{"componentType":5126,"type":"VEC3","byteOffset":0,"bufferView":37,"count":8,"max":[98.5376968383789,-64.04519653320312,9.0],"min":[78.50019836425781,-82.53720092773438,0.0]},{"componentType":5125,"type":"SCALAR","bufferView":38,"count":48,"max":[9],"min":[0]},{"componentType":5126,"type":"VEC3","byteOffset":0,"bufferView":39,"count":10,"max":[43.64080047607422,-61.05759811401367,9.0],"min":[6.970600128173828,-95.66510009765625,0.0]},{"componentType":5121,"normalized":true,"type":"VEC4","byteOffset":0,"bufferView":40,"count":10,"max":[6,182,212,220],"min":[6,182,212,220]},{"componentType":5126,"type":"VEC3","byteOffset":0,"bufferView":41,"count":8,"max":[-87.21949768066406,88.19450378417969,9.0],"min":[-106.42479705810547,70.03389739990234,0.0]},{"componentType":5126,"type":"VEC3","byteOffset":0,"bufferView":42,"count":8,"max":[-95.76840209960938,-1.6805000305175781,9.0],"min":[-111.37960052490234,-18.904600143432617,0.0]},{"componentType":5125,"type":"SCALAR","bufferView":43,"count":36,"max":[7],"min":[0]},{"componentType":5126,"type":"VEC3","byteOffset":0,"bufferView":44,"count":8,"max":[133.0261993408203,51.94929885864258,9.0],"min":[119.01640319824219,39.96110153198242,0.0]},{"componentType":5126,"type":"VEC3","byteOffset":0,"bufferView":45,"count":8,"max":[-141.30409240722656,77.05960083007812,9.0],"min":[-154.9904022216797,61.572601318359375,0.0]},{"componentType":5126,"type":"VEC3","byteOffset":0,"bufferView":46,"count":8,"max":[-132.8822021484375,83.0197982788086,9.0],"min":[-148.6779022216797,65.2073974609375,0.0]},{"componentType":5126,"type":"VEC3","byteOffset":0,"bufferView":47,"count":8,"max":[-56.61690139770508,33.74689865112305,9.0],"min":[-69.85379791259766,22.75670051574707,0.0]},{"componentType":5126,"type":"VEC3","byteOffset":0,"bufferView":48,"count":8,"max":[125.09459686279297,93.81289672851562,9.0],"min":[105.40059661865234,74.5541000366211,0.0]},{"componentType":5126,"type":"VEC3","byteOffset":0,"bufferView":49,"count":8,"max":[-48.438499450683594,63.57350158691406,9.0],"min":[-64.48780059814453,46.05009841918945,0.0]},{"componentType":5126,"type":"VEC3","byteOffset":0,"bufferView":50,"count":8,"max":[135.7093963623047,100.3865966796875,9.0],"min":[119.92019653320312,84.48919677734375,0.0]},{"componentType":5126,"type":"VEC3","byteOffset":0,"bufferView":51,"count":8,"max":[166.91839599609375,66.49140167236328,9.0],"min":[153.3096923828125,55.07270050048828,0.0]},{"componentType":5126,"type":"VEC3","byteOffset":0,"bufferView":52,"count":8,"max":[-6.463399887084961,-32.46039962768555,9.0],"min":[-20.149799346923828,-48.19110107421875,0.0]},{"componentType":5126,"type":"VEC3","byteOffset":0,"bufferView":53,"count":8,"max":[-82.72440338134766,38.29869842529297,9.0],"min":[-98.76000213623047,24.537900924682617,0.0]},{"componentType":5126,"type":"VEC3","byteOffset":0,"bufferView":54,"count":8,"max":[-113.2251968383789,-13.268600463867188,9.0],"min":[-130.86419677734375,-31.971099853515625,0.0]},{"componentType":5126,"type":"VEC3","byteOffset":0,"bufferView":55,"count":8,"max":[118.3490982055664,68.3041000366211,9.0],"min":[103.44339752197266,51.35169982910156,0.0]},{"componentType":5126,"type":"VEC3","byteOffset":0,"bufferView":56,"count":8,"max":[159.00270080566406,54.01219940185547,9.0],"min":[145.3843994140625,42.58250045776367,0.0]},{"componentType":5126,"type":"VEC3","byteOffset":0,"bufferView":57,"count":8,"max":[-103.6864013671875,-5.775199890136719,9.0],"min":[-121.14080047607422,-24.88960075378418,0.0]},{"componentType":5126,"type":"VEC3","byteOffset":0,"bufferView":58,"count":8,"max":[124.69390106201172,37.57830047607422,9.0],"min":[110.68409729003906,25.590200424194336,0.0]},{"componentType":5126,"type":"VEC3","byteOffset":0,"bufferView":59,"count":8,"max":[-37.90420150756836,46.09410095214844,9.0],"min":[-54.93560028076172,30.349000930786133,0.0]},{"componentType":5126,"type":"VEC3","byteOffset":0,"bufferView":60,"count":8,"max":[140.5157012939453,17.20479965209961,9.0],"min":[126.50589752197266,5.216599941253662,0.0]},{"componentType":5126,"type":"VEC3","byteOffset":0,"bufferView":61,"count":8,"max":[144.8135986328125,36.29359817504883,9.0],"min":[130.80380249023438,24.305400848388672,0.0]},{"componentType":5126,"type":"VEC3","byteOffset":0,"bufferView":62,"count":8,"max":[148.1096954345703,31.296600341796875,9.0],"min":[134.0998992919922,19.308399200439453,0.0]},{"componentType":5126,"type":"VEC3","byteOffset":0,"bufferView":63,"count":8,"max":[136.34249877929688,31.845800399780273,9.0],"min":[117.02349853515625,11.231300354003906,0.0]},{"componentType":5126,"type":"VEC3","byteOffset":0,"bufferView":64,"count":8,"max":[-68.48030090332031,-82.86669921875,9.0],"min":[-85.40390014648438,-97.89179992675781,0.0]},{"componentType":5126,"type":"VEC3","byteOffset":0,"bufferView":65,"count":8,"max":[-136.90460205078125,-29.597000122070312,9.0],"min":[-154.10459899902344,-48.97600173950195,0.0]},{"componentType":5126,"type":"VEC3","byteOffset":0,"bufferView":66,"count":8,"max":[-20.625200271606445,21.21419906616211,9.0],"min":[-38.719600677490234,4.315000057220459,0.0]},{"componentType":5126,"type":"VEC3","byteOffset":0,"bufferView":67,"count":8,"max":[-56.09600067138672,-67.5707015991211,9.0],"min":[-73.01950073242188,-82.5958023071289,0.0]},{"componentType":5126,"type":"VEC3","byteOffset":0,"bufferView":68,"count":8,"max":[-87.57460021972656,-17.836999893188477,9.0],"min":[-102.10559844970703,-34.37879943847656,0.0]},{"componentType":5126,"type":"VEC3","byteOffset":0,"bufferView":69,"count":8,"max":[120.51010131835938,43.00299835205078,9.0],"min":[106.50050354003906,31.01490020751953,0.0]},{"componentType":5125,"type":"SCALAR","bufferView":70,"count":36,"max":[7],"min":[0]},{"componentType":5126,"type":"VEC3","byteOffset":0,"bufferView":71,"count":8,"max":[-123.63140106201172,-19.564699172973633,9.0],"min":[-138.64419555664062,-37.983299255371094,0.0]},{"componentType":5126,"type":"VEC3","byteOffset":0,"bufferView":72,"count":8,"max":[24.07659912109375,-37.17179870605469,9.0],"min":[-1.3141000270843506,-62.772300720214844,0.0]},{"componentType":5126,"type":"VEC3","byteOffset":0,"bufferView":73,"count":8,"max":[-94.32669830322266,96.83760070800781,9.0],"min":[-111.46980285644531,81.67420196533203,0.0]},{"componentType":5126,"type":"VEC3","byteOffset":0,"bufferView":74,"count":8,"max":[151.83970642089844,26.085599899291992,9.0],"min":[137.83009338378906,14.097399711608887,0.0]},{"componentType":5126,"type":"VEC3","byteOffset":0,"bufferView":75,"count":8,"max":[-51.77790069580078,-73.4031982421875,9.0],"min":[-68.70140075683594,-88.42839813232422,0.0]},{"componentType":5126,"type":"VEC3","byteOffset":0,"bufferView":76,"count":8,"max":[-113.46530151367188,43.85340118408203,9.0],"min":[-129.45950317382812,29.283199310302734,0.0]},{"componentType":5126,"type":"VEC3","byteOffset":0,"bufferView":77,"count":8,"max":[-101.13569641113281,-26.576799392700195,9.0],"min":[-112.74629974365234,-40.179100036621094,0.0]},{"componentType":5126,"type":"VEC3","byteOffset":0,"bufferView":78,"count":8,"max":[-3.7711000442504883,-0.26159998774528503,9.0],"min":[-29.004100799560547,-23.9153995513916,0.0]},{"componentType":5126,"type":"VEC3","byteOffset":0,"bufferView":79,"count":8,"max":[-121.77459716796875,70.48709869384766,9.0],"min":[-138.6331024169922,52.30550003051758,0.0]},{"componentType":5126,"type":"VEC3","byteOffset":0,"bufferView":80,"count":8,"max":[-73.64689636230469,97.14839935302734,9.0],"min":[-91.8196029663086,80.26940155029297,0.0]},{"componentType":5126,"type":"VEC3","byteOffset":0,"bufferView":81,"count":8,"max":[101.48200225830078,75.98310089111328,9.0],"min":[85.96910095214844,60.049198150634766,0.0]},{"componentType":5126,"type":"VEC3","byteOffset":0,"bufferView":82,"count":8,"max":[162.3654022216797,11.549699783325195,9.0],"min":[148.36549377441406,-0.43849998712539673,0.0]},{"componentType":5126,"type":"VEC3","byteOffset":0,"bufferView":83,"count":8,"max":[12.87559986114502,-19.766399383544922,9.0],"min":[-14.809100151062012,-45.72650146484375,0.0]},{"componentType":5126,"type":"VEC3","byteOffset":0,"bufferView":84,"count":8,"max":[-112.25650024414062,76.87550354003906,9.0],"min":[-129.51060485839844,57.48780059814453,0.0]},{"componentType":5126,"type":"VEC3","byteOffset":0,"bufferView":85,"count":8,"max":[-46.448299407958984,-25.187400817871094,9.0],"min":[-71.20890045166016,-50.111698150634766,0.0]},{"componentType":5126,"type":"VEC3","byteOffset":0,"bufferView":86,"count":8,"max":[-138.00039672851562,58.02050018310547,9.0],"min":[-153.3282928466797,40.32389831542969,0.0]},{"componentType":5126,"type":"VEC3","byteOffset":0,"bufferView":87,"count":8,"max":[-93.47750091552734,23.159700393676758,9.0],"min":[-107.5238037109375,10.729999542236328,0.0]},{"componentType":5126,"type":"VEC3","byteOffset":0,"bufferView":88,"count":8,"max":[-23.879199981689453,-46.51319885253906,9.0],"min":[-43.1885986328125,-67.51309967041016,0.0]},{"componentType":5126,"type":"VEC3","byteOffset":0,"bufferView":89,"count":8,"max":[-65.69190216064453,-9.347299575805664,9.0],"min":[-81.19740295410156,-27.14590072631836,0.0]},{"componentType":5126,"type":"VEC3","byteOffset":0,"bufferView":90,"count":8,"max":[155.47410583496094,20.773099899291992,9.0],"min":[141.46420288085938,8.773900032043457,0.0]},{"componentType":5126,"type":"VEC3","byteOffset":0,"bufferView":91,"count":8,"max":[-51.63890075683594,1.9549000263214111,9.0],"min":[-65.07279968261719,-14.012800216674805,0.0]},{"componentType":5126,"type":"VEC3","byteOffset":0,"bufferView":92,"count":8,"max":[-47.61920166015625,-79.07230377197266,9.0],"min":[-64.53299713134766,-94.09729766845703,0.0]},{"componentType":5126,"type":"VEC3","byteOffset":0,"bufferView":93,"count":8,"max":[-101.53939819335938,61.97800064086914,9.0],"min":[-116.82430267333984,49.063499450683594,0.0]},{"componentType":5126,"type":"VEC3","byteOffset":0,"bufferView":94,"count":8,"max":[173.46780395507812,34.04710006713867,9.0],"min":[159.84930419921875,22.617399215698242,0.0]},{"componentType":5126,"type":"VEC3","byteOffset":0,"bufferView":95,"count":8,"max":[-39.42919921875,-23.85260009765625,9.0],"min":[-53.25830078125,-39.97420120239258,0.0]},{"componentType":5126,"type":"VEC3","byteOffset":0,"bufferView":96,"count":8,"max":[127.19249725341797,73.8833999633789,9.0],"min":[111.24909973144531,57.1421012878418,0.0]},{"componentType":5126,"type":"VEC3","byteOffset":0,"bufferView":97,"count":8,"max":[-103.28009796142578,36.24250030517578,9.0],"min":[-123.15840148925781,17.075199127197266,0.0]},{"componentType":5126,"type":"VEC3","byteOffset":0,"bufferView":98,"count":8,"max":[-112.33550262451172,-35.26340103149414,9.0],"min":[-128.1811981201172,-53.86940002441406,0.0]},{"componentType":5126,"type":"VEC3","byteOffset":0,"bufferView":99,"count":8,"max":[-21.958799362182617,-10.498299598693848,9.0],"min":[-36.52730178833008,-26.915599822998047,0.0]},{"componentType":5126,"type":"VEC3","byteOffset":0,"bufferView":100,"count":8,"max":[-107.24720001220703,80.22489929199219,9.0],"min":[-120.82679748535156,63.42689895629883,0.0]},{"componentType":5126,"type":"VEC3","byteOffset":0,"bufferView":101,"count":8,"max":[-58.35919952392578,80.98809814453125,9.0],"min":[-94.10600280761719,48.57899856567383,0.0]},{"componentType":5126,"type":"VEC3","byteOffset":0,"bufferView":102,"count":8,"max":[151.03990173339844,91.3855972290039,9.0],"min":[135.7154998779297,75.91490173339844,0.0]},{"componentType":5126,"type":"VEC3","byteOffset":0,"bufferView":103,"count":8,"max":[151.37969970703125,2.353100061416626,9.0],"min":[137.3697967529297,-9.646100044250488,0.0]},{"componentType":5126,"type":"VEC3","byteOffset":0,"bufferView":104,"count":8,"max":[-87.49400329589844,17.883499145507812,9.0],"min":[-104.58159637451172,2.9159998893737793,0.0]},{"componentType":5126,"type":"VEC3","byteOffset":0,"bufferView":105,"count":8,"max":[155.11180114746094,-2.42549991607666,9.0],"min":[141.10189819335938,-14.413599967956543,0.0]},{"componentType":5126,"type":"VEC3","byteOffset":0,"bufferView":106,"count":8,"max":[-83.50430297851562,9.950900077819824,9.0],"min":[-99.32669830322266,-3.7216999530792236,0.0]},{"componentType":5126,"type":"VEC3","byteOffset":0,"bufferView":107,"count":8,"max":[169.42880249023438,43.60599899291992,9.0],"min":[152.81320190429688,27.15250015258789,0.0]},{"componentType":5126,"type":"VEC3","byteOffset":0,"bufferView":108,"count":8,"max":[162.62339782714844,48.910301208496094,9.0],"min":[149.01480102539062,37.480499267578125,0.0]},{"componentType":5126,"type":"VEC3","byteOffset":0,"bufferView":109,"count":8,"max":[-128.64720153808594,-47.90230178833008,9.0],"min":[-142.43150329589844,-64.44180297851562,0.0]},{"componentType":5126,"type":"VEC3","byteOffset":0,"bufferView":110,"count":8,"max":[-146.54949951171875,72.83560180664062,9.0],"min":[-159.5030975341797,57.38740158081055,0.0]},{"componentType":5126,"type":"VEC3","byteOffset":0,"bufferView":111,"count":8,"max":[-42.16120147705078,22.6658992767334,9.0],"min":[-60.692901611328125,6.218200206756592,0.0]},{"componentType":5126,"type":"VEC3","byteOffset":0,"bufferView":112,"count":8,"max":[-60.274600982666016,37.63309860229492,9.0],"min":[-72.91919708251953,26.877599716186523,0.0]},{"componentType":5126,"type":"VEC3","byteOffset":0,"bufferView":113,"count":8,"max":[111.53050231933594,83.13189697265625,9.0],"min":[95.93890380859375,67.83290100097656,0.0]},{"componentType":5126,"type":"VEC3","byteOffset":0,"bufferView":114,"count":8,"max":[-105.493896484375,-72.94439697265625,9.0],"min":[-123.62030029296875,-90.33049774169922,0.0]},{"componentType":5126,"type":"VEC3","byteOffset":0,"bufferView":115,"count":8,"max":[-57.83810043334961,55.83290100097656,9.0],"min":[-73.27770233154297,39.94409942626953,0.0]},{"componentType":5126,"type":"VEC3","byteOffset":0,"bufferView":116,"count":8,"max":[-144.98719787597656,-46.007999420166016,9.0],"min":[-162.57769775390625,-60.84749984741211,0.0]},{"componentType":5126,"type":"VEC3","byteOffset":0,"bufferView":117,"count":8,"max":[-45.26649856567383,49.677101135253906,9.0],"min":[-58.433101654052734,38.103599548339844,0.0]},{"componentType":5126,"type":"VEC3","byteOffset":0,"bufferView":118,"count":8,"max":[-30.466299057006836,33.324501037597656,9.0],"min":[-46.4296989440918,20.829200744628906,0.0]},{"componentType":5126,"type":"VEC3","byteOffset":0,"bufferView":119,"count":8,"max":[-34.46780014038086,38.085899353027344,9.0],"min":[-49.270301818847656,25.813400268554688,0.0]},{"componentType":5126,"type":"VEC3","byteOffset":0,"bufferView":120,"count":8,"max":[-48.5984992980957,30.786100387573242,9.0],"min":[-66.90190124511719,14.780599594116211,0.0]},{"componentType":5126,"type":"VEC3","byteOffset":0,"bufferView":121,"count":8,"max":[-117.17469787597656,-81.37069702148438,9.0],"min":[-135.1947021484375,-99.6427993774414,0.0]},{"componentType":5126,"type":"VEC3","byteOffset":0,"bufferView":122,"count":8,"max":[-130.28790283203125,-25.24970054626465,9.0],"min":[-145.4541015625,-42.88779830932617,0.0]},{"componentType":5126,"type":"VEC3","byteOffset":0,"bufferView":123,"count":8,"max":[-71.70890045166016,-71.48709869384766,9.0],"min":[-92.62670135498047,-92.21440124511719,0.0]},{"componentType":5126,"type":"VEC3","byteOffset":0,"bufferView":124,"count":8,"max":[144.0269012451172,12.211700439453125,9.0],"min":[130.01710510253906,0.22349999845027924,0.0]},{"componentType":5126,"type":"VEC3","byteOffset":0,"bufferView":125,"count":8,"max":[-33.712100982666016,13.333700180053711,9.0],"min":[-54.564300537109375,-6.37529993057251,0.0]},{"componentType":5126,"type":"VEC3","byteOffset":0,"bufferView":126,"count":8,"max":[-10.7391996383667,-63.99150085449219,9.0],"min":[-29.768999099731445,-83.67739868164062,0.0]},{"componentType":5126,"type":"VEC3","byteOffset":0,"bufferView":127,"count":8,"max":[170.2801055908203,62.204898834228516,9.0],"min":[156.66180419921875,50.77519989013672,0.0]},{"componentType":5126,"type":"VEC3","byteOffset":0,"bufferView":128,"count":8,"max":[-126.0280990600586,7.7555999755859375,9.0],"min":[-154.49180603027344,-21.356199264526367,0.0]},{"componentType":5126,"type":"VEC3","byteOffset":0,"bufferView":129,"count":8,"max":[-146.5019989013672,50.832698822021484,9.0],"min":[-165.93389892578125,31.097200393676758,0.0]},{"componentType":5126,"type":"VEC3","byteOffset":0,"bufferView":130,"count":8,"max":[-37.657501220703125,-53.39830017089844,9.0],"min":[-54.244998931884766,-72.53019714355469,0.0]},{"componentType":5126,"type":"VEC3","byteOffset":0,"bufferView":131,"count":8,"max":[0.6736999750137329,-55.69129943847656,9.0],"min":[-17.884599685668945,-74.98079681396484,0.0]},{"componentType":5126,"type":"VEC3","byteOffset":0,"bufferView":132,"count":8,"max":[8.19480037689209,-49.719200134277344,9.0],"min":[-8.312399864196777,-68.71080017089844,0.0]},{"componentType":5126,"type":"VEC3","byteOffset":0,"bufferView":133,"count":8,"max":[-148.52720642089844,-9.485699653625488,9.0],"min":[-162.32749938964844,-25.747900009155273,0.0]},{"componentType":5126,"type":"VEC3","byteOffset":0,"bufferView":134,"count":8,"max":[-62.690799713134766,6.810400009155273,9.0],"min":[-78.11669921875,-6.179699897766113,0.0]},{"componentType":5126,"type":"VEC3","byteOffset":0,"bufferView":135,"count":8,"max":[-24.273799896240234,-71.57620239257812,9.0],"min":[-42.296199798583984,-92.16290283203125,0.0]},{"componentType":5126,"type":"VEC3","byteOffset":0,"bufferView":136,"count":8,"max":[-120.27989959716797,92.2605972290039,9.0],"min":[-137.8459014892578,74.052001953125,0.0]},{"componentType":5126,"type":"VEC3","byteOffset":0,"bufferView":137,"count":8,"max":[-75.44419860839844,31.584699630737305,9.0],"min":[-93.82319641113281,14.51729965209961,0.0]},{"componentType":5126,"type":"VEC3","byteOffset":0,"bufferView":138,"count":8,"max":[-70.91089630126953,21.92300033569336,9.0],"min":[-86.30960083007812,8.206199645996094,0.0]},{"componentType":5126,"type":"VEC3","byteOffset":0,"bufferView":139,"count":8,"max":[-104.7344970703125,-29.427000045776367,9.0],"min":[-121.04340362548828,-46.486000061035156,0.0]},{"componentType":5126,"type":"VEC3","byteOffset":0,"bufferView":140,"count":8,"max":[166.0093994140625,5.6828999519348145,9.0],"min":[151.99969482421875,-6.305300235748291,0.0]},{"componentType":5126,"type":"VEC3","byteOffset":0,"bufferView":141,"count":8,"max":[-129.20849609375,64.06109619140625,9.0],"min":[-145.956298828125,44.90129852294922,0.0]},{"componentType":5126,"type":"VEC3","byteOffset":0,"bufferView":142,"count":8,"max":[-10.072699546813965,-36.04359817504883,9.0],"min":[-33.468101501464844,-60.12839889526367,0.0]},{"componentType":5126,"type":"VEC3","byteOffset":0,"bufferView":143,"count":8,"max":[-74.86499786376953,1.250100016593933,9.0],"min":[-94.97959899902344,-17.10770034790039,0.0]},{"componentType":5126,"type":"VEC3","byteOffset":0,"bufferView":144,"count":8,"max":[-57.58100128173828,-4.188799858093262,9.0],"min":[-72.877197265625,-20.207199096679688,0.0]},{"componentType":5126,"type":"VEC3","byteOffset":0,"bufferView":145,"count":8,"max":[-66.02549743652344,15.744600296020508,9.0],"min":[-82.98370361328125,0.7497000098228455,0.0]},{"componentType":5126,"type":"VEC3","byteOffset":0,"bufferView":146,"count":8,"max":[-94.55879974365234,-22.34440040588379,9.0],"min":[-108.43930053710938,-38.277400970458984,0.0]},{"componentType":5126,"type":"VEC3","byteOffset":0,"bufferView":147,"count":8,"max":[-120.10230255126953,-40.6083984375,9.0],"min":[-137.8134002685547,-60.095699310302734,0.0]},{"componentType":5126,"type":"VEC3","byteOffset":0,"bufferView":148,"count":8,"max":[-133.40269470214844,-60.907100677490234,9.0],"min":[-152.1488037109375,-76.37059783935547,0.0]},{"componentType":5126,"type":"VEC3","byteOffset":0,"bufferView":149,"count":8,"max":[-138.052001953125,-52.262699127197266,9.0],"min":[-157.5384063720703,-69.22810363769531,0.0]},{"componentType":5126,"type":"VEC3","byteOffset":0,"bufferView":150,"count":8,"max":[155.8437957763672,58.44620132446289,9.0],"min":[142.22540283203125,47.01649856567383,0.0]},{"componentType":5126,"type":"VEC3","byteOffset":0,"bufferView":151,"count":8,"max":[147.5399932861328,7.118800163269043,9.0],"min":[133.5301971435547,-4.880499839782715,0.0]},{"componentType":5126,"type":"VEC3","byteOffset":0,"bufferView":152,"count":8,"max":[-43.15570068359375,-84.28150177001953,9.0],"min":[-60.069400787353516,-99.30650329589844,0.0]},{"componentType":5126,"type":"VEC3","byteOffset":0,"bufferView":153,"count":8,"max":[-60.35580062866211,-61.714900970458984,9.0],"min":[-77.26950073242188,-76.73989868164062,0.0]},{"componentType":5126,"type":"VEC3","byteOffset":0,"bufferView":154,"count":8,"max":[-117.435302734375,51.43259811401367,9.0],"min":[-135.4552001953125,35.01969909667969,0.0]},{"componentType":5126,"type":"VEC3","byteOffset":0,"bufferView":155,"count":8,"max":[-64.9186019897461,49.82820129394531,9.0],"min":[-81.99169921875,31.62350082397461,0.0]},{"componentType":5126,"type":"VEC3","byteOffset":0,"bufferView":156,"count":8,"max":[110.69170379638672,62.41659927368164,9.0],"min":[95.7406997680664,46.01449966430664,0.0]},{"componentType":5126,"type":"VEC3","byteOffset":0,"bufferView":157,"count":8,"max":[-28.570100784301758,-15.695500373840332,9.0],"min":[-46.553001403808594,-34.87220001220703,0.0]},{"componentType":5126,"type":"VEC3","byteOffset":0,"bufferView":158,"count":8,"max":[-67.94380187988281,87.50579833984375,9.0],"min":[-98.60489654541016,63.71849822998047,0.0]},{"componentType":5126,"type":"VEC3","byteOffset":0,"bufferView":159,"count":8,"max":[140.54100036621094,83.47250366210938,9.0],"min":[121.80970001220703,65.32610321044922,0.0]},{"componentType":5126,"type":"VEC3","byteOffset":0,"bufferView":160,"count":8,"max":[-94.73249816894531,56.66600036621094,9.0],"min":[-112.85199737548828,39.854698181152344,0.0]},{"componentType":5126,"type":"VEC3","byteOffset":0,"bufferView":161,"count":8,"max":[-87.44840240478516,47.27190017700195,9.0],"min":[-104.5386962890625,32.14139938354492,0.0]},{"componentType":5125,"type":"SCALAR","bufferView":162,"count":48,"max":[9],"min":[0]},{"componentType":5126,"type":"VEC3","byteOffset":0,"bufferView":163,"count":10,"max":[141.306396484375,41.065101623535156,9.0],"min":[127.29660034179688,29.076900482177734,0.0]},{"componentType":5126,"type":"VEC3","byteOffset":0,"bufferView":164,"count":10,"max":[137.3415985107422,46.815101623535156,9.0],"min":[123.33200073242188,34.82699966430664,0.0]},{"componentType":5125,"type":"SCALAR","bufferView":165,"count":72,"max":[13],"min":[0]},{"componentType":5126,"type":"VEC3","byteOffset":0,"bufferView":166,"count":14,"max":[-73.67880249023438,-42.402801513671875,9.0],"min":[-107.54769897460938,-77.67389678955078,0.0]},{"componentType":5121,"normalized":true,"type":"VEC4","byteOffset":0,"bufferView":167,"count":14,"max":[6,182,212,220],"min":[6,182,212,220]}],"meshes":[{"name":"OSM-BUILDING-REL-16318240","extras":{"building_id":"OSM-BUILDING-REL-16318240","name":"OSM-BUILDING-REL-16318240","height":9.0},"primitives":[{"attributes":{"POSITION":1,"COLOR_0":2},"indices":0,"mode":4}]},{"name":"OSM-BUILDING-REL-16318240_1","extras":{"building_id":"OSM-BUILDING-REL-16318240","name":"OSM-BUILDING-REL-16318240","height":9.0},"primitives":[{"attributes":{"POSITION":3,"COLOR_0":2},"indices":0,"mode":4}]},{"name":"OSM-BUILDING-WAY-349830327","extras":{"building_id":"OSM-BUILDING-WAY-349830327","name":"OSM-BUILDING-WAY-349830327","height":9.0},"primitives":[{"attributes":{"POSITION":5,"COLOR_0":2},"indices":4,"mode":4}]},{"name":"OSM-BUILDING-WAY-349830338","extras":{"building_id":"OSM-BUILDING-WAY-349830338","name":"OSM-BUILDING-WAY-349830338","height":9.0},"primitives":[{"attributes":{"POSITION":7,"COLOR_0":2},"indices":6,"mode":4}]},{"name":"OSM-BUILDING-WAY-349830348","extras":{"building_id":"OSM-BUILDING-WAY-349830348","name":"OSM-BUILDING-WAY-349830348","height":9.0},"primitives":[{"attributes":{"POSITION":8,"COLOR_0":2},"indices":6,"mode":4}]},{"name":"OSM-BUILDING-WAY-349830351","extras":{"building_id":"OSM-BUILDING-WAY-349830351","name":"OSM-BUILDING-WAY-349830351","height":9.0},"primitives":[{"attributes":{"POSITION":9,"COLOR_0":2},"indices":4,"mode":4}]},{"name":"OSM-BUILDING-WAY-349830378","extras":{"building_id":"OSM-BUILDING-WAY-349830378","name":"OSM-BUILDING-WAY-349830378","height":9.0},"primitives":[{"attributes":{"POSITION":10,"COLOR_0":2},"indices":6,"mode":4}]},{"name":"OSM-BUILDING-WAY-349830381","extras":{"building_id":"OSM-BUILDING-WAY-349830381","name":"OSM-BUILDING-WAY-349830381","height":9.0},"primitives":[{"attributes":{"POSITION":11,"COLOR_0":2},"indices":6,"mode":4}]},{"name":"OSM-BUILDING-WAY-349830385","extras":{"building_id":"OSM-BUILDING-WAY-349830385","name":"OSM-BUILDING-WAY-349830385","height":9.0},"primitives":[{"attributes":{"POSITION":12,"COLOR_0":2},"indices":4,"mode":4}]},{"name":"OSM-BUILDING-WAY-349830389","extras":{"building_id":"OSM-BUILDING-WAY-349830389","name":"OSM-BUILDING-WAY-349830389","height":9.0},"primitives":[{"attributes":{"POSITION":13,"COLOR_0":2},"indices":6,"mode":4}]},{"name":"OSM-BUILDING-WAY-349830396","extras":{"building_id":"OSM-BUILDING-WAY-349830396","name":"OSM-BUILDING-WAY-349830396","height":9.0},"primitives":[{"attributes":{"POSITION":15,"COLOR_0":2},"indices":14,"mode":4}]},{"name":"OSM-BUILDING-WAY-349830397","extras":{"building_id":"OSM-BUILDING-WAY-349830397","name":"OSM-BUILDING-WAY-349830397","height":9.0},"primitives":[{"attributes":{"POSITION":16,"COLOR_0":2},"indices":6,"mode":4}]},{"name":"OSM-BUILDING-WAY-349830413","extras":{"building_id":"OSM-BUILDING-WAY-349830413","name":"OSM-BUILDING-WAY-349830413","height":9.0},"primitives":[{"attributes":{"POSITION":17,"COLOR_0":2},"indices":6,"mode":4}]},{"name":"OSM-BUILDING-WAY-349830426","extras":{"building_id":"OSM-BUILDING-WAY-349830426","name":"OSM-BUILDING-WAY-349830426","height":9.0},"primitives":[{"attributes":{"POSITION":18,"COLOR_0":2},"indices":6,"mode":4}]},{"name":"OSM-BUILDING-WAY-349830442","extras":{"building_id":"OSM-BUILDING-WAY-349830442","name":"OSM-BUILDING-WAY-349830442","height":9.0},"primitives":[{"attributes":{"POSITION":19,"COLOR_0":2},"indices":4,"mode":4}]},{"name":"OSM-BUILDING-WAY-349830446","extras":{"building_id":"OSM-BUILDING-WAY-349830446","name":"OSM-BUILDING-WAY-349830446","height":9.0},"primitives":[{"attributes":{"POSITION":20,"COLOR_0":2},"indices":4,"mode":4}]},{"name":"OSM-BUILDING-WAY-349830465","extras":{"building_id":"OSM-BUILDING-WAY-349830465","name":"OSM-BUILDING-WAY-349830465","height":9.0},"primitives":[{"attributes":{"POSITION":21,"COLOR_0":2},"indices":6,"mode":4}]},{"name":"OSM-BUILDING-WAY-349830474","extras":{"building_id":"OSM-BUILDING-WAY-349830474","name":"OSM-BUILDING-WAY-349830474","height":9.0},"primitives":[{"attributes":{"POSITION":22,"COLOR_0":2},"indices":6,"mode":4}]},{"name":"OSM-BUILDING-WAY-349830475","extras":{"building_id":"OSM-BUILDING-WAY-349830475","name":"OSM-BUILDING-WAY-349830475","height":9.0},"primitives":[{"attributes":{"POSITION":23,"COLOR_0":2},"indices":6,"mode":4}]},{"name":"OSM-BUILDING-WAY-349830477","extras":{"building_id":"OSM-BUILDING-WAY-349830477","name":"OSM-BUILDING-WAY-349830477","height":9.0},"primitives":[{"attributes":{"POSITION":24,"COLOR_0":2},"indices":6,"mode":4}]},{"name":"OSM-BUILDING-WAY-349830487","extras":{"building_id":"OSM-BUILDING-WAY-349830487","name":"OSM-BUILDING-WAY-349830487","height":9.0},"primitives":[{"attributes":{"POSITION":25,"COLOR_0":2},"indices":6,"mode":4}]},{"name":"OSM-BUILDING-WAY-349830501","extras":{"building_id":"OSM-BUILDING-WAY-349830501","name":"OSM-BUILDING-WAY-349830501","height":9.0},"primitives":[{"attributes":{"POSITION":26,"COLOR_0":2},"indices":4,"mode":4}]},{"name":"OSM-BUILDING-WAY-349830506","extras":{"building_id":"OSM-BUILDING-WAY-349830506","name":"OSM-BUILDING-WAY-349830506","height":9.0},"primitives":[{"attributes":{"POSITION":27,"COLOR_0":2},"indices":4,"mode":4}]},{"name":"OSM-BUILDING-WAY-349830507","extras":{"building_id":"OSM-BUILDING-WAY-349830507","name":"OSM-BUILDING-WAY-349830507","height":9.0},"primitives":[{"attributes":{"POSITION":28,"COLOR_0":2},"indices":4,"mode":4}]},{"name":"OSM-BUILDING-WAY-349830521","extras":{"building_id":"OSM-BUILDING-WAY-349830521","name":"OSM-BUILDING-WAY-349830521","height":9.0},"primitives":[{"attributes":{"POSITION":29,"COLOR_0":2},"indices":6,"mode":4}]},{"name":"OSM-BUILDING-WAY-349830538","extras":{"building_id":"OSM-BUILDING-WAY-349830538","name":"OSM-BUILDING-WAY-349830538","height":9.0},"primitives":[{"attributes":{"POSITION":30,"COLOR_0":2},"indices":6,"mode":4}]},{"name":"OSM-BUILDING-WAY-349830545","extras":{"building_id":"OSM-BUILDING-WAY-349830545","name":"OSM-BUILDING-WAY-349830545","height":9.0},"primitives":[{"attributes":{"POSITION":31,"COLOR_0":2},"indices":4,"mode":4}]},{"name":"OSM-BUILDING-WAY-349830546","extras":{"building_id":"OSM-BUILDING-WAY-349830546","name":"OSM-BUILDING-WAY-349830546","height":9.0},"primitives":[{"attributes":{"POSITION":32,"COLOR_0":2},"indices":6,"mode":4}]},{"name":"OSM-BUILDING-WAY-349830555","extras":{"building_id":"OSM-BUILDING-WAY-349830555","name":"OSM-BUILDING-WAY-349830555","height":9.0},"primitives":[{"attributes":{"POSITION":33,"COLOR_0":2},"indices":6,"mode":4}]},{"name":"OSM-BUILDING-WAY-349830577","extras":{"building_id":"OSM-BUILDING-WAY-349830577","name":"OSM-BUILDING-WAY-349830577","height":9.0},"primitives":[{"attributes":{"POSITION":34,"COLOR_0":2},"indices":6,"mode":4}]},{"name":"OSM-BUILDING-WAY-349830579","extras":{"building_id":"OSM-BUILDING-WAY-349830579","name":"OSM-BUILDING-WAY-349830579","height":9.0},"primitives":[{"attributes":{"POSITION":35,"COLOR_0":2},"indices":6,"mode":4}]},{"name":"OSM-BUILDING-WAY-349830597","extras":{"building_id":"OSM-BUILDING-WAY-349830597","name":"OSM-BUILDING-WAY-349830597","height":9.0},"primitives":[{"attributes":{"POSITION":36,"COLOR_0":2},"indices":4,"mode":4}]},{"name":"OSM-BUILDING-WAY-349830600","extras":{"building_id":"OSM-BUILDING-WAY-349830600","name":"OSM-BUILDING-WAY-349830600","height":9.0},"primitives":[{"attributes":{"POSITION":37,"COLOR_0":2},"indices":4,"mode":4}]},{"name":"OSM-BUILDING-WAY-349830606","extras":{"building_id":"OSM-BUILDING-WAY-349830606","name":"OSM-BUILDING-WAY-349830606","height":9.0},"primitives":[{"attributes":{"POSITION":39,"COLOR_0":40},"indices":38,"mode":4}]},{"name":"OSM-BUILDING-WAY-349984924","extras":{"building_id":"OSM-BUILDING-WAY-349984924","name":"OSM-BUILDING-WAY-349984924","height":9.0},"primitives":[{"attributes":{"POSITION":41,"COLOR_0":2},"indices":4,"mode":4}]},{"name":"OSM-BUILDING-WAY-349984925","extras":{"building_id":"OSM-BUILDING-WAY-349984925","name":"OSM-BUILDING-WAY-349984925","height":9.0},"primitives":[{"attributes":{"POSITION":42,"COLOR_0":2},"indices":4,"mode":4}]},{"name":"OSM-BUILDING-WAY-349984926","extras":{"building_id":"OSM-BUILDING-WAY-349984926","name":"OSM-BUILDING-WAY-349984926","height":9.0},"primitives":[{"attributes":{"POSITION":44,"COLOR_0":2},"indices":43,"mode":4}]},{"name":"OSM-BUILDING-WAY-349984928","extras":{"building_id":"OSM-BUILDING-WAY-349984928","name":"OSM-BUILDING-WAY-349984928","height":9.0},"primitives":[{"attributes":{"POSITION":45,"COLOR_0":2},"indices":4,"mode":4}]},{"name":"OSM-BUILDING-WAY-349984934","extras":{"building_id":"OSM-BUILDING-WAY-349984934","name":"OSM-BUILDING-WAY-349984934","height":9.0},"primitives":[{"attributes":{"POSITION":46,"COLOR_0":2},"indices":4,"mode":4}]},{"name":"OSM-BUILDING-WAY-349984945","extras":{"building_id":"OSM-BUILDING-WAY-349984945","name":"OSM-BUILDING-WAY-349984945","height":9.0},"primitives":[{"attributes":{"POSITION":47,"COLOR_0":2},"indices":6,"mode":4}]},{"name":"OSM-BUILDING-WAY-349984949","extras":{"building_id":"OSM-BUILDING-WAY-349984949","name":"OSM-BUILDING-WAY-349984949","height":9.0},"primitives":[{"attributes":{"POSITION":48,"COLOR_0":2},"indices":4,"mode":4}]},{"name":"OSM-BUILDING-WAY-349984951","extras":{"building_id":"OSM-BUILDING-WAY-349984951","name":"OSM-BUILDING-WAY-349984951","height":9.0},"primitives":[{"attributes":{"POSITION":49,"COLOR_0":2},"indices":4,"mode":4}]},{"name":"OSM-BUILDING-WAY-349984954","extras":{"building_id":"OSM-BUILDING-WAY-349984954","name":"OSM-BUILDING-WAY-349984954","height":9.0},"primitives":[{"attributes":{"POSITION":50,"COLOR_0":2},"indices":6,"mode":4}]},{"name":"OSM-BUILDING-WAY-349984956","extras":{"building_id":"OSM-BUILDING-WAY-349984956","name":"OSM-BUILDING-WAY-349984956","height":9.0},"primitives":[{"attributes":{"POSITION":51,"COLOR_0":2},"indices":43,"mode":4}]},{"name":"OSM-BUILDING-WAY-349984957","extras":{"building_id":"OSM-BUILDING-WAY-349984957","name":"OSM-BUILDING-WAY-349984957","height":9.0},"primitives":[{"attributes":{"POSITION":52,"COLOR_0":2},"indices":4,"mode":4}]},{"name":"OSM-BUILDING-WAY-349984960","extras":{"building_id":"OSM-BUILDING-WAY-349984960","name":"OSM-BUILDING-WAY-349984960","height":9.0},"primitives":[{"attributes":{"POSITION":53,"COLOR_0":2},"indices":6,"mode":4}]},{"name":"OSM-BUILDING-WAY-349984961","extras":{"building_id":"OSM-BUILDING-WAY-349984961","name":"OSM-BUILDING-WAY-349984961","height":9.0},"primitives":[{"attributes":{"POSITION":54,"COLOR_0":2},"indices":4,"mode":4}]},{"name":"OSM-BUILDING-WAY-349984963","extras":{"building_id":"OSM-BUILDING-WAY-349984963","name":"OSM-BUILDING-WAY-349984963","height":9.0},"primitives":[{"attributes":{"POSITION":55,"COLOR_0":2},"indices":6,"mode":4}]},{"name":"OSM-BUILDING-WAY-349984964","extras":{"building_id":"OSM-BUILDING-WAY-349984964","name":"OSM-BUILDING-WAY-349984964","height":9.0},"primitives":[{"attributes":{"POSITION":56,"COLOR_0":2},"indices":43,"mode":4}]},{"name":"OSM-BUILDING-WAY-349984968","extras":{"building_id":"OSM-BUILDING-WAY-349984968","name":"OSM-BUILDING-WAY-349984968","height":9.0},"primitives":[{"attributes":{"POSITION":57,"COLOR_0":2},"indices":6,"mode":4}]},{"name":"OSM-BUILDING-WAY-349984983","extras":{"building_id":"OSM-BUILDING-WAY-349984983","name":"OSM-BUILDING-WAY-349984983","height":9.0},"primitives":[{"attributes":{"POSITION":58,"COLOR_0":2},"indices":43,"mode":4}]},{"name":"OSM-BUILDING-WAY-349984997","extras":{"building_id":"OSM-BUILDING-WAY-349984997","name":"OSM-BUILDING-WAY-349984997","height":9.0},"primitives":[{"attributes":{"POSITION":59,"COLOR_0":2},"indices":6,"mode":4}]},{"name":"OSM-BUILDING-WAY-349984999","extras":{"building_id":"OSM-BUILDING-WAY-349984999","name":"OSM-BUILDING-WAY-349984999","height":9.0},"primitives":[{"attributes":{"POSITION":60,"COLOR_0":2},"indices":43,"mode":4}]},{"name":"OSM-BUILDING-WAY-349985012","extras":{"building_id":"OSM-BUILDING-WAY-349985012","name":"OSM-BUILDING-WAY-349985012","height":9.0},"primitives":[{"attributes":{"POSITION":61,"COLOR_0":2},"indices":43,"mode":4}]},{"name":"OSM-BUILDING-WAY-349985015","extras":{"building_id":"OSM-BUILDING-WAY-349985015","name":"OSM-BUILDING-WAY-349985015","height":9.0},"primitives":[{"attributes":{"POSITION":62,"COLOR_0":2},"indices":43,"mode":4}]},{"name":"OSM-BUILDING-WAY-349985017","extras":{"building_id":"OSM-BUILDING-WAY-349985017","name":"OSM-BUILDING-WAY-349985017","height":9.0},"primitives":[{"attributes":{"POSITION":63,"COLOR_0":2},"indices":6,"mode":4}]},{"name":"OSM-BUILDING-WAY-349985019","extras":{"building_id":"OSM-BUILDING-WAY-349985019","name":"OSM-BUILDING-WAY-349985019","height":9.0},"primitives":[{"attributes":{"POSITION":64,"COLOR_0":2},"indices":6,"mode":4}]},{"name":"OSM-BUILDING-WAY-349985020","extras":{"building_id":"OSM-BUILDING-WAY-349985020","name":"OSM-BUILDING-WAY-349985020","height":9.0},"primitives":[{"attributes":{"POSITION":65,"COLOR_0":2},"indices":6,"mode":4}]},{"name":"OSM-BUILDING-WAY-349985024","extras":{"building_id":"OSM-BUILDING-WAY-349985024","name":"OSM-BUILDING-WAY-349985024","height":9.0},"primitives":[{"attributes":{"POSITION":66,"COLOR_0":2},"indices":6,"mode":4}]},{"name":"OSM-BUILDING-WAY-349985027","extras":{"building_id":"OSM-BUILDING-WAY-349985027","name":"OSM-BUILDING-WAY-349985027","height":9.0},"primitives":[{"attributes":{"POSITION":67,"COLOR_0":2},"indices":6,"mode":4}]},{"name":"OSM-BUILDING-WAY-349985037","extras":{"building_id":"OSM-BUILDING-WAY-349985037","name":"OSM-BUILDING-WAY-349985037","height":9.0},"primitives":[{"attributes":{"POSITION":68,"COLOR_0":2},"indices":6,"mode":4}]},{"name":"OSM-BUILDING-WAY-349985040","extras":{"building_id":"OSM-BUILDING-WAY-349985040","name":"OSM-BUILDING-WAY-349985040","height":9.0},"primitives":[{"attributes":{"POSITION":69,"COLOR_0":2},"indices":43,"mode":4}]},{"name":"OSM-BUILDING-WAY-349985048","extras":{"building_id":"OSM-BUILDING-WAY-349985048","name":"OSM-BUILDING-WAY-349985048","height":9.0},"primitives":[{"attributes":{"POSITION":71,"COLOR_0":2},"indices":70,"mode":4}]},{"name":"OSM-BUILDING-WAY-349985054","extras":{"building_id":"OSM-BUILDING-WAY-349985054","name":"OSM-BUILDING-WAY-349985054","height":9.0},"primitives":[{"attributes":{"POSITION":72,"COLOR_0":2},"indices":0,"mode":4}]},{"name":"OSM-BUILDING-WAY-349985055","extras":{"building_id":"OSM-BUILDING-WAY-349985055","name":"OSM-BUILDING-WAY-349985055","height":9.0},"primitives":[{"attributes":{"POSITION":73,"COLOR_0":2},"indices":4,"mode":4}]},{"name":"OSM-BUILDING-WAY-349985066","extras":{"building_id":"OSM-BUILDING-WAY-349985066","name":"OSM-BUILDING-WAY-349985066","height":9.0},"primitives":[{"attributes":{"POSITION":74,"COLOR_0":2},"indices":43,"mode":4}]},{"name":"OSM-BUILDING-WAY-349985071","extras":{"building_id":"OSM-BUILDING-WAY-349985071","name":"OSM-BUILDING-WAY-349985071","height":9.0},"primitives":[{"attributes":{"POSITION":75,"COLOR_0":2},"indices":6,"mode":4}]},{"name":"OSM-BUILDING-WAY-349985074","extras":{"building_id":"OSM-BUILDING-WAY-349985074","name":"OSM-BUILDING-WAY-349985074","height":9.0},"primitives":[{"attributes":{"POSITION":76,"COLOR_0":2},"indices":6,"mode":4}]},{"name":"OSM-BUILDING-WAY-349985075","extras":{"building_id":"OSM-BUILDING-WAY-349985075","name":"OSM-BUILDING-WAY-349985075","height":9.0},"primitives":[{"attributes":{"POSITION":77,"COLOR_0":2},"indices":6,"mode":4}]},{"name":"OSM-BUILDING-WAY-349985080","extras":{"building_id":"OSM-BUILDING-WAY-349985080","name":"OSM-BUILDING-WAY-349985080","height":9.0},"primitives":[{"attributes":{"POSITION":78,"COLOR_0":2},"indices":6,"mode":4}]},{"name":"OSM-BUILDING-WAY-349985081","extras":{"building_id":"OSM-BUILDING-WAY-349985081","name":"OSM-BUILDING-WAY-349985081","height":9.0},"primitives":[{"attributes":{"POSITION":79,"COLOR_0":2},"indices":4,"mode":4}]},{"name":"OSM-BUILDING-WAY-349985082","extras":{"building_id":"OSM-BUILDING-WAY-349985082","name":"OSM-BUILDING-WAY-349985082","height":9.0},"primitives":[{"attributes":{"POSITION":80,"COLOR_0":2},"indices":4,"mode":4}]},{"name":"OSM-BUILDING-WAY-349985086","extras":{"building_id":"OSM-BUILDING-WAY-349985086","name":"OSM-BUILDING-WAY-349985086","height":9.0},"primitives":[{"attributes":{"POSITION":81,"COLOR_0":2},"indices":6,"mode":4}]},{"name":"OSM-BUILDING-WAY-349985087","extras":{"building_id":"OSM-BUILDING-WAY-349985087","name":"OSM-BUILDING-WAY-349985087","height":9.0},"primitives":[{"attributes":{"POSITION":82,"COLOR_0":2},"indices":43,"mode":4}]},{"name":"OSM-BUILDING-WAY-349985088","extras":{"building_id":"OSM-BUILDING-WAY-349985088","name":"OSM-BUILDING-WAY-349985088","height":9.0},"primitives":[{"attributes":{"POSITION":83,"COLOR_0":2},"indices":6,"mode":4}]},{"name":"OSM-BUILDING-WAY-349985089","extras":{"building_id":"OSM-BUILDING-WAY-349985089","name":"OSM-BUILDING-WAY-349985089","height":9.0},"primitives":[{"attributes":{"POSITION":84,"COLOR_0":2},"indices":4,"mode":4}]},{"name":"OSM-BUILDING-WAY-349985091","extras":{"building_id":"OSM-BUILDING-WAY-349985091","name":"OSM-BUILDING-WAY-349985091","height":9.0},"primitives":[{"attributes":{"POSITION":85,"COLOR_0":2},"indices":6,"mode":4}]},{"name":"OSM-BUILDING-WAY-349985092","extras":{"building_id":"OSM-BUILDING-WAY-349985092","name":"OSM-BUILDING-WAY-349985092","height":9.0},"primitives":[{"attributes":{"POSITION":86,"COLOR_0":2},"indices":6,"mode":4}]},{"name":"OSM-BUILDING-WAY-349985094","extras":{"building_id":"OSM-BUILDING-WAY-349985094","name":"OSM-BUILDING-WAY-349985094","height":9.0},"primitives":[{"attributes":{"POSITION":87,"COLOR_0":2},"indices":6,"mode":4}]},{"name":"OSM-BUILDING-WAY-349985098","extras":{"building_id":"OSM-BUILDING-WAY-349985098","name":"OSM-BUILDING-WAY-349985098","height":9.0},"primitives":[{"attributes":{"POSITION":88,"COLOR_0":2},"indices":43,"mode":4}]},{"name":"OSM-BUILDING-WAY-349985101","extras":{"building_id":"OSM-BUILDING-WAY-349985101","name":"OSM-BUILDING-WAY-349985101","height":9.0},"primitives":[{"attributes":{"POSITION":89,"COLOR_0":2},"indices":6,"mode":4}]},{"name":"OSM-BUILDING-WAY-349985103","extras":{"building_id":"OSM-BUILDING-WAY-349985103","name":"OSM-BUILDING-WAY-349985103","height":9.0},"primitives":[{"attributes":{"POSITION":90,"COLOR_0":2},"indices":43,"mode":4}]},{"name":"OSM-BUILDING-WAY-349985105","extras":{"building_id":"OSM-BUILDING-WAY-349985105","name":"OSM-BUILDING-WAY-349985105","height":9.0},"primitives":[{"attributes":{"POSITION":91,"COLOR_0":2},"indices":6,"mode":4}]},{"name":"OSM-BUILDING-WAY-349985109","extras":{"building_id":"OSM-BUILDING-WAY-349985109","name":"OSM-BUILDING-WAY-349985109","height":9.0},"primitives":[{"attributes":{"POSITION":92,"COLOR_0":2},"indices":6,"mode":4}]},{"name":"OSM-BUILDING-WAY-349985111","extras":{"building_id":"OSM-BUILDING-WAY-349985111","name":"OSM-BUILDING-WAY-349985111","height":9.0},"primitives":[{"attributes":{"POSITION":93,"COLOR_0":2},"indices":6,"mode":4}]},{"name":"OSM-BUILDING-WAY-349985112","extras":{"building_id":"OSM-BUILDING-WAY-349985112","name":"OSM-BUILDING-WAY-349985112","height":9.0},"primitives":[{"attributes":{"POSITION":94,"COLOR_0":2},"indices":43,"mode":4}]},{"name":"OSM-BUILDING-WAY-349985115","extras":{"building_id":"OSM-BUILDING-WAY-349985115","name":"OSM-BUILDING-WAY-349985115","height":9.0},"primitives":[{"attributes":{"POSITION":95,"COLOR_0":2},"indices":4,"mode":4}]},{"name":"OSM-BUILDING-WAY-349985117","extras":{"building_id":"OSM-BUILDING-WAY-349985117","name":"OSM-BUILDING-WAY-349985117","height":9.0},"primitives":[{"attributes":{"POSITION":96,"COLOR_0":2},"indices":6,"mode":4}]},{"name":"OSM-BUILDING-WAY-349985119","extras":{"building_id":"OSM-BUILDING-WAY-349985119","name":"OSM-BUILDING-WAY-349985119","height":9.0},"primitives":[{"attributes":{"POSITION":97,"COLOR_0":2},"indices":6,"mode":4}]},{"name":"OSM-BUILDING-WAY-349985120","extras":{"building_id":"OSM-BUILDING-WAY-349985120","name":"OSM-BUILDING-WAY-349985120","height":9.0},"primitives":[{"attributes":{"POSITION":98,"COLOR_0":2},"indices":6,"mode":4}]},{"name":"OSM-BUILDING-WAY-349985122","extras":{"building_id":"OSM-BUILDING-WAY-349985122","name":"OSM-BUILDING-WAY-349985122","height":9.0},"primitives":[{"attributes":{"POSITION":99,"COLOR_0":2},"indices":6,"mode":4}]},{"name":"OSM-BUILDING-WAY-349985123","extras":{"building_id":"OSM-BUILDING-WAY-349985123","name":"OSM-BUILDING-WAY-349985123","height":9.0},"primitives":[{"attributes":{"POSITION":100,"COLOR_0":2},"indices":4,"mode":4}]},{"name":"OSM-BUILDING-WAY-349985124","extras":{"building_id":"OSM-BUILDING-WAY-349985124","name":"OSM-BUILDING-WAY-349985124","height":9.0},"primitives":[{"attributes":{"POSITION":101,"COLOR_0":2},"indices":6,"mode":4}]},{"name":"OSM-BUILDING-WAY-349985127","extras":{"building_id":"OSM-BUILDING-WAY-349985127","name":"OSM-BUILDING-WAY-349985127","height":9.0},"primitives":[{"attributes":{"POSITION":102,"COLOR_0":2},"indices":6,"mode":4}]},{"name":"OSM-BUILDING-WAY-349985128","extras":{"building_id":"OSM-BUILDING-WAY-349985128","name":"OSM-BUILDING-WAY-349985128","height":9.0},"primitives":[{"attributes":{"POSITION":103,"COLOR_0":2},"indices":43,"mode":4}]},{"name":"OSM-BUILDING-WAY-349985129","extras":{"building_id":"OSM-BUILDING-WAY-349985129","name":"OSM-BUILDING-WAY-349985129","height":9.0},"primitives":[{"attributes":{"POSITION":104,"COLOR_0":2},"indices":6,"mode":4}]},{"name":"OSM-BUILDING-WAY-349985130","extras":{"building_id":"OSM-BUILDING-WAY-349985130","name":"OSM-BUILDING-WAY-349985130","height":9.0},"primitives":[{"attributes":{"POSITION":105,"COLOR_0":2},"indices":43,"mode":4}]},{"name":"OSM-BUILDING-WAY-349985136","extras":{"building_id":"OSM-BUILDING-WAY-349985136","name":"OSM-BUILDING-WAY-349985136","height":9.0},"primitives":[{"attributes":{"POSITION":106,"COLOR_0":2},"indices":4,"mode":4}]},{"name":"OSM-BUILDING-WAY-349985142","extras":{"building_id":"OSM-BUILDING-WAY-349985142","name":"OSM-BUILDING-WAY-349985142","height":9.0},"primitives":[{"attributes":{"POSITION":107,"COLOR_0":2},"indices":6,"mode":4}]},{"name":"OSM-BUILDING-WAY-349985147","extras":{"building_id":"OSM-BUILDING-WAY-349985147","name":"OSM-BUILDING-WAY-349985147","height":9.0},"primitives":[{"attributes":{"POSITION":108,"COLOR_0":2},"indices":43,"mode":4}]},{"name":"OSM-BUILDING-WAY-349985149","extras":{"building_id":"OSM-BUILDING-WAY-349985149","name":"OSM-BUILDING-WAY-349985149","height":9.0},"primitives":[{"attributes":{"POSITION":109,"COLOR_0":2},"indices":43,"mode":4}]},{"name":"OSM-BUILDING-WAY-349985169","extras":{"building_id":"OSM-BUILDING-WAY-349985169","name":"OSM-BUILDING-WAY-349985169","height":9.0},"primitives":[{"attributes":{"POSITION":110,"COLOR_0":2},"indices":6,"mode":4}]},{"name":"OSM-BUILDING-WAY-349985190","extras":{"building_id":"OSM-BUILDING-WAY-349985190","name":"OSM-BUILDING-WAY-349985190","height":9.0},"primitives":[{"attributes":{"POSITION":111,"COLOR_0":2},"indices":6,"mode":4}]},{"name":"OSM-BUILDING-WAY-349985198","extras":{"building_id":"OSM-BUILDING-WAY-349985198","name":"OSM-BUILDING-WAY-349985198","height":9.0},"primitives":[{"attributes":{"POSITION":112,"COLOR_0":2},"indices":6,"mode":4}]},{"name":"OSM-BUILDING-WAY-349985200","extras":{"building_id":"OSM-BUILDING-WAY-349985200","name":"OSM-BUILDING-WAY-349985200","height":9.0},"primitives":[{"attributes":{"POSITION":113,"COLOR_0":2},"indices":6,"mode":4}]},{"name":"OSM-BUILDING-WAY-349985204","extras":{"building_id":"OSM-BUILDING-WAY-349985204","name":"OSM-BUILDING-WAY-349985204","height":9.0},"primitives":[{"attributes":{"POSITION":114,"COLOR_0":2},"indices":6,"mode":4}]},{"name":"OSM-BUILDING-WAY-349985206","extras":{"building_id":"OSM-BUILDING-WAY-349985206","name":"OSM-BUILDING-WAY-349985206","height":9.0},"primitives":[{"attributes":{"POSITION":115,"COLOR_0":2},"indices":4,"mode":4}]},{"name":"OSM-BUILDING-WAY-349985223","extras":{"building_id":"OSM-BUILDING-WAY-349985223","name":"OSM-BUILDING-WAY-349985223","height":9.0},"primitives":[{"attributes":{"POSITION":116,"COLOR_0":2},"indices":6,"mode":4}]},{"name":"OSM-BUILDING-WAY-349985228","extras":{"building_id":"OSM-BUILDING-WAY-349985228","name":"OSM-BUILDING-WAY-349985228","height":9.0},"primitives":[{"attributes":{"POSITION":117,"COLOR_0":2},"indices":6,"mode":4}]},{"name":"OSM-BUILDING-WAY-349985236","extras":{"building_id":"OSM-BUILDING-WAY-349985236","name":"OSM-BUILDING-WAY-349985236","height":9.0},"primitives":[{"attributes":{"POSITION":118,"COLOR_0":2},"indices":6,"mode":4}]},{"name":"OSM-BUILDING-WAY-349985239","extras":{"building_id":"OSM-BUILDING-WAY-349985239","name":"OSM-BUILDING-WAY-349985239","height":9.0},"primitives":[{"attributes":{"POSITION":119,"COLOR_0":2},"indices":6,"mode":4}]},{"name":"OSM-BUILDING-WAY-349985248","extras":{"building_id":"OSM-BUILDING-WAY-349985248","name":"OSM-BUILDING-WAY-349985248","height":9.0},"primitives":[{"attributes":{"POSITION":120,"COLOR_0":2},"indices":6,"mode":4}]},{"name":"OSM-BUILDING-WAY-349985252","extras":{"building_id":"OSM-BUILDING-WAY-349985252","name":"OSM-BUILDING-WAY-349985252","height":9.0},"primitives":[{"attributes":{"POSITION":121,"COLOR_0":2},"indices":6,"mode":4}]},{"name":"OSM-BUILDING-WAY-349985269","extras":{"building_id":"OSM-BUILDING-WAY-349985269","name":"OSM-BUILDING-WAY-349985269","height":9.0},"primitives":[{"attributes":{"POSITION":122,"COLOR_0":2},"indices":4,"mode":4}]},{"name":"OSM-BUILDING-WAY-349985279","extras":{"building_id":"OSM-BUILDING-WAY-349985279","name":"OSM-BUILDING-WAY-349985279","height":9.0},"primitives":[{"attributes":{"POSITION":123,"COLOR_0":2},"indices":14,"mode":4}]},{"name":"OSM-BUILDING-WAY-349985285","extras":{"building_id":"OSM-BUILDING-WAY-349985285","name":"OSM-BUILDING-WAY-349985285","height":9.0},"primitives":[{"attributes":{"POSITION":124,"COLOR_0":2},"indices":43,"mode":4}]},{"name":"OSM-BUILDING-WAY-349985290","extras":{"building_id":"OSM-BUILDING-WAY-349985290","name":"OSM-BUILDING-WAY-349985290","height":9.0},"primitives":[{"attributes":{"POSITION":125,"COLOR_0":2},"indices":6,"mode":4}]},{"name":"OSM-BUILDING-WAY-349985294","extras":{"building_id":"OSM-BUILDING-WAY-349985294","name":"OSM-BUILDING-WAY-349985294","height":9.0},"primitives":[{"attributes":{"POSITION":126,"COLOR_0":2},"indices":4,"mode":4}]},{"name":"OSM-BUILDING-WAY-349985321","extras":{"building_id":"OSM-BUILDING-WAY-349985321","name":"OSM-BUILDING-WAY-349985321","height":9.0},"primitives":[{"attributes":{"POSITION":127,"COLOR_0":2},"indices":43,"mode":4}]},{"name":"OSM-BUILDING-WAY-349985327","extras":{"building_id":"OSM-BUILDING-WAY-349985327","name":"OSM-BUILDING-WAY-349985327","height":9.0},"primitives":[{"attributes":{"POSITION":128,"COLOR_0":2},"indices":6,"mode":4}]},{"name":"OSM-BUILDING-WAY-349985331","extras":{"building_id":"OSM-BUILDING-WAY-349985331","name":"OSM-BUILDING-WAY-349985331","height":9.0},"primitives":[{"attributes":{"POSITION":129,"COLOR_0":2},"indices":43,"mode":4}]},{"name":"OSM-BUILDING-WAY-349985339","extras":{"building_id":"OSM-BUILDING-WAY-349985339","name":"OSM-BUILDING-WAY-349985339","height":9.0},"primitives":[{"attributes":{"POSITION":130,"COLOR_0":2},"indices":6,"mode":4}]},{"name":"OSM-BUILDING-WAY-349985344","extras":{"building_id":"OSM-BUILDING-WAY-349985344","name":"OSM-BUILDING-WAY-349985344","height":9.0},"primitives":[{"attributes":{"POSITION":131,"COLOR_0":2},"indices":4,"mode":4}]},{"name":"OSM-BUILDING-WAY-349985354","extras":{"building_id":"OSM-BUILDING-WAY-349985354","name":"OSM-BUILDING-WAY-349985354","height":9.0},"primitives":[{"attributes":{"POSITION":132,"COLOR_0":2},"indices":4,"mode":4}]},{"name":"OSM-BUILDING-WAY-349985362","extras":{"building_id":"OSM-BUILDING-WAY-349985362","name":"OSM-BUILDING-WAY-349985362","height":9.0},"primitives":[{"attributes":{"POSITION":133,"COLOR_0":2},"indices":4,"mode":4}]},{"name":"OSM-BUILDING-WAY-349985364","extras":{"building_id":"OSM-BUILDING-WAY-349985364","name":"OSM-BUILDING-WAY-349985364","height":9.0},"primitives":[{"attributes":{"POSITION":134,"COLOR_0":2},"indices":4,"mode":4}]},{"name":"OSM-BUILDING-WAY-349985366","extras":{"building_id":"OSM-BUILDING-WAY-349985366","name":"OSM-BUILDING-WAY-349985366","height":9.0},"primitives":[{"attributes":{"POSITION":135,"COLOR_0":2},"indices":6,"mode":4}]},{"name":"OSM-BUILDING-WAY-349985375","extras":{"building_id":"OSM-BUILDING-WAY-349985375","name":"OSM-BUILDING-WAY-349985375","height":9.0},"primitives":[{"attributes":{"POSITION":136,"COLOR_0":2},"indices":6,"mode":4}]},{"name":"OSM-BUILDING-WAY-349985379","extras":{"building_id":"OSM-BUILDING-WAY-349985379","name":"OSM-BUILDING-WAY-349985379","height":9.0},"primitives":[{"attributes":{"POSITION":137,"COLOR_0":2},"indices":4,"mode":4}]},{"name":"OSM-BUILDING-WAY-349985383","extras":{"building_id":"OSM-BUILDING-WAY-349985383","name":"OSM-BUILDING-WAY-349985383","height":9.0},"primitives":[{"attributes":{"POSITION":138,"COLOR_0":2},"indices":4,"mode":4}]},{"name":"OSM-BUILDING-WAY-349985389","extras":{"building_id":"OSM-BUILDING-WAY-349985389","name":"OSM-BUILDING-WAY-349985389","height":9.0},"primitives":[{"attributes":{"POSITION":139,"COLOR_0":2},"indices":4,"mode":4}]},{"name":"OSM-BUILDING-WAY-349985393","extras":{"building_id":"OSM-BUILDING-WAY-349985393","name":"OSM-BUILDING-WAY-349985393","height":9.0},"primitives":[{"attributes":{"POSITION":140,"COLOR_0":2},"indices":43,"mode":4}]},{"name":"OSM-BUILDING-WAY-349985395","extras":{"building_id":"OSM-BUILDING-WAY-349985395","name":"OSM-BUILDING-WAY-349985395","height":9.0},"primitives":[{"attributes":{"POSITION":141,"COLOR_0":2},"indices":4,"mode":4}]},{"name":"OSM-BUILDING-WAY-349985401","extras":{"building_id":"OSM-BUILDING-WAY-349985401","name":"OSM-BUILDING-WAY-349985401","height":9.0},"primitives":[{"attributes":{"POSITION":142,"COLOR_0":2},"indices":0,"mode":4}]},{"name":"OSM-BUILDING-WAY-349985405","extras":{"building_id":"OSM-BUILDING-WAY-349985405","name":"OSM-BUILDING-WAY-349985405","height":9.0},"primitives":[{"attributes":{"POSITION":143,"COLOR_0":2},"indices":6,"mode":4}]},{"name":"OSM-BUILDING-WAY-349985421","extras":{"building_id":"OSM-BUILDING-WAY-349985421","name":"OSM-BUILDING-WAY-349985421","height":9.0},"primitives":[{"attributes":{"POSITION":144,"COLOR_0":2},"indices":6,"mode":4}]},{"name":"OSM-BUILDING-WAY-349985433","extras":{"building_id":"OSM-BUILDING-WAY-349985433","name":"OSM-BUILDING-WAY-349985433","height":9.0},"primitives":[{"attributes":{"POSITION":145,"COLOR_0":2},"indices":4,"mode":4}]},{"name":"OSM-BUILDING-WAY-349985438","extras":{"building_id":"OSM-BUILDING-WAY-349985438","name":"OSM-BUILDING-WAY-349985438","height":9.0},"primitives":[{"attributes":{"POSITION":146,"COLOR_0":2},"indices":6,"mode":4}]},{"name":"OSM-BUILDING-WAY-349985439","extras":{"building_id":"OSM-BUILDING-WAY-349985439","name":"OSM-BUILDING-WAY-349985439","height":9.0},"primitives":[{"attributes":{"POSITION":147,"COLOR_0":2},"indices":4,"mode":4}]},{"name":"OSM-BUILDING-WAY-349985441","extras":{"building_id":"OSM-BUILDING-WAY-349985441","name":"OSM-BUILDING-WAY-349985441","height":9.0},"primitives":[{"attributes":{"POSITION":148,"COLOR_0":2},"indices":6,"mode":4}]},{"name":"OSM-BUILDING-WAY-349985443","extras":{"building_id":"OSM-BUILDING-WAY-349985443","name":"OSM-BUILDING-WAY-349985443","height":9.0},"primitives":[{"attributes":{"POSITION":149,"COLOR_0":2},"indices":6,"mode":4}]},{"name":"OSM-BUILDING-WAY-349985444","extras":{"building_id":"OSM-BUILDING-WAY-349985444","name":"OSM-BUILDING-WAY-349985444","height":9.0},"primitives":[{"attributes":{"POSITION":150,"COLOR_0":2},"indices":43,"mode":4}]},{"name":"OSM-BUILDING-WAY-349985448","extras":{"building_id":"OSM-BUILDING-WAY-349985448","name":"OSM-BUILDING-WAY-349985448","height":9.0},"primitives":[{"attributes":{"POSITION":151,"COLOR_0":2},"indices":43,"mode":4}]},{"name":"OSM-BUILDING-WAY-349985456","extras":{"building_id":"OSM-BUILDING-WAY-349985456","name":"OSM-BUILDING-WAY-349985456","height":9.0},"primitives":[{"attributes":{"POSITION":152,"COLOR_0":2},"indices":6,"mode":4}]},{"name":"OSM-BUILDING-WAY-349985461","extras":{"building_id":"OSM-BUILDING-WAY-349985461","name":"OSM-BUILDING-WAY-349985461","height":9.0},"primitives":[{"attributes":{"POSITION":153,"COLOR_0":2},"indices":6,"mode":4}]},{"name":"OSM-BUILDING-WAY-349985469","extras":{"building_id":"OSM-BUILDING-WAY-349985469","name":"OSM-BUILDING-WAY-349985469","height":9.0},"primitives":[{"attributes":{"POSITION":154,"COLOR_0":2},"indices":6,"mode":4}]},{"name":"OSM-BUILDING-WAY-349985471","extras":{"building_id":"OSM-BUILDING-WAY-349985471","name":"OSM-BUILDING-WAY-349985471","height":9.0},"primitives":[{"attributes":{"POSITION":155,"COLOR_0":2},"indices":6,"mode":4}]},{"name":"OSM-BUILDING-WAY-349985474","extras":{"building_id":"OSM-BUILDING-WAY-349985474","name":"OSM-BUILDING-WAY-349985474","height":9.0},"primitives":[{"attributes":{"POSITION":156,"COLOR_0":2},"indices":6,"mode":4}]},{"name":"OSM-BUILDING-WAY-349985475","extras":{"building_id":"OSM-BUILDING-WAY-349985475","name":"OSM-BUILDING-WAY-349985475","height":9.0},"primitives":[{"attributes":{"POSITION":157,"COLOR_0":2},"indices":6,"mode":4}]},{"name":"OSM-BUILDING-WAY-349985476","extras":{"building_id":"OSM-BUILDING-WAY-349985476","name":"OSM-BUILDING-WAY-349985476","height":9.0},"primitives":[{"attributes":{"POSITION":158,"COLOR_0":2},"indices":6,"mode":4}]},{"name":"OSM-BUILDING-WAY-349985478","extras":{"building_id":"OSM-BUILDING-WAY-349985478","name":"OSM-BUILDING-WAY-349985478","height":9.0},"primitives":[{"attributes":{"POSITION":159,"COLOR_0":2},"indices":6,"mode":4}]},{"name":"OSM-BUILDING-WAY-349985479","extras":{"building_id":"OSM-BUILDING-WAY-349985479","name":"OSM-BUILDING-WAY-349985479","height":9.0},"primitives":[{"attributes":{"POSITION":160,"COLOR_0":2},"indices":6,"mode":4}]},{"name":"OSM-BUILDING-WAY-349985480","extras":{"building_id":"OSM-BUILDING-WAY-349985480","name":"OSM-BUILDING-WAY-349985480","height":9.0},"primitives":[{"attributes":{"POSITION":161,"COLOR_0":2},"indices":6,"mode":4}]},{"name":"OSM-BUILDING-WAY-349985484","extras":{"building_id":"OSM-BUILDING-WAY-349985484","name":"OSM-BUILDING-WAY-349985484","height":9.0},"primitives":[{"attributes":{"POSITION":163,"COLOR_0":40},"indices":162,"mode":4}]},{"name":"OSM-BUILDING-WAY-349985485","extras":{"building_id":"OSM-BUILDING-WAY-349985485","name":"OSM-BUILDING-WAY-349985485","height":9.0},"primitives":[{"attributes":{"POSITION":164,"COLOR_0":40},"indices":162,"mode":4}]},{"name":"OSM-BUILDING-WAY-349985487","extras":{"building_id":"OSM-BUILDING-WAY-349985487","name":"OSM-BUILDING-WAY-349985487","height":9.0},"primitives":[{"attributes":{"POSITION":166,"COLOR_0":167},"indices":165,"mode":4}]}],"nodes":[{"name":"OSM-BUILDING-REL-16318240","mesh":1},{"name":"OSM-BUILDING-WAY-349830327","mesh":2},{"name":"OSM-BUILDING-WAY-349830338","mesh":3},{"name":"OSM-BUILDING-WAY-349830348","mesh":4},{"name":"OSM-BUILDING-WAY-349830351","mesh":5},{"name":"OSM-BUILDING-WAY-349830378","mesh":6},{"name":"OSM-BUILDING-WAY-349830381","mesh":7},{"name":"OSM-BUILDING-WAY-349830385","mesh":8},{"name":"OSM-BUILDING-WAY-349830389","mesh":9},{"name":"OSM-BUILDING-WAY-349830396","mesh":10},{"name":"OSM-BUILDING-WAY-349830397","mesh":11},{"name":"OSM-BUILDING-WAY-349830413","mesh":12},{"name":"OSM-BUILDING-WAY-349830426","mesh":13},{"name":"OSM-BUILDING-WAY-349830442","mesh":14},{"name":"OSM-BUILDING-WAY-349830446","mesh":15},{"name":"OSM-BUILDING-WAY-349830465","mesh":16},{"name":"OSM-BUILDING-WAY-349830474","mesh":17},{"name":"OSM-BUILDING-WAY-349830475","mesh":18},{"name":"OSM-BUILDING-WAY-349830477","mesh":19},{"name":"OSM-BUILDING-WAY-349830487","mesh":20},{"name":"OSM-BUILDING-WAY-349830501","mesh":21},{"name":"OSM-BUILDING-WAY-349830506","mesh":22},{"name":"OSM-BUILDING-WAY-349830507","mesh":23},{"name":"OSM-BUILDING-WAY-349830521","mesh":24},{"name":"OSM-BUILDING-WAY-349830538","mesh":25},{"name":"OSM-BUILDING-WAY-349830545","mesh":26},{"name":"OSM-BUILDING-WAY-349830546","mesh":27},{"name":"OSM-BUILDING-WAY-349830555","mesh":28},{"name":"OSM-BUILDING-WAY-349830577","mesh":29},{"name":"OSM-BUILDING-WAY-349830579","mesh":30},{"name":"OSM-BUILDING-WAY-349830597","mesh":31},{"name":"OSM-BUILDING-WAY-349830600","mesh":32},{"name":"OSM-BUILDING-WAY-349830606","mesh":33},{"name":"OSM-BUILDING-WAY-349984924","mesh":34},{"name":"OSM-BUILDING-WAY-349984925","mesh":35},{"name":"OSM-BUILDING-WAY-349984926","mesh":36},{"name":"OSM-BUILDING-WAY-349984928","mesh":37},{"name":"OSM-BUILDING-WAY-349984934","mesh":38},{"name":"OSM-BUILDING-WAY-349984945","mesh":39},{"name":"OSM-BUILDING-WAY-349984949","mesh":40},{"name":"OSM-BUILDING-WAY-349984951","mesh":41},{"name":"OSM-BUILDING-WAY-349984954","mesh":42},{"name":"OSM-BUILDING-WAY-349984956","mesh":43},{"name":"OSM-BUILDING-WAY-349984957","mesh":44},{"name":"OSM-BUILDING-WAY-349984960","mesh":45},{"name":"OSM-BUILDING-WAY-349984961","mesh":46},{"name":"OSM-BUILDING-WAY-349984963","mesh":47},{"name":"OSM-BUILDING-WAY-349984964","mesh":48},{"name":"OSM-BUILDING-WAY-349984968","mesh":49},{"name":"OSM-BUILDING-WAY-349984983","mesh":50},{"name":"OSM-BUILDING-WAY-349984997","mesh":51},{"name":"OSM-BUILDING-WAY-349984999","mesh":52},{"name":"OSM-BUILDING-WAY-349985012","mesh":53},{"name":"OSM-BUILDING-WAY-349985015","mesh":54},{"name":"OSM-BUILDING-WAY-349985017","mesh":55},{"name":"OSM-BUILDING-WAY-349985019","mesh":56},{"name":"OSM-BUILDING-WAY-349985020","mesh":57},{"name":"OSM-BUILDING-WAY-349985024","mesh":58},{"name":"OSM-BUILDING-WAY-349985027","mesh":59},{"name":"OSM-BUILDING-WAY-349985037","mesh":60},{"name":"OSM-BUILDING-WAY-349985040","mesh":61},{"name":"OSM-BUILDING-WAY-349985048","mesh":62},{"name":"OSM-BUILDING-WAY-349985054","mesh":63},{"name":"OSM-BUILDING-WAY-349985055","mesh":64},{"name":"OSM-BUILDING-WAY-349985066","mesh":65},{"name":"OSM-BUILDING-WAY-349985071","mesh":66},{"name":"OSM-BUILDING-WAY-349985074","mesh":67},{"name":"OSM-BUILDING-WAY-349985075","mesh":68},{"name":"OSM-BUILDING-WAY-349985080","mesh":69},{"name":"OSM-BUILDING-WAY-349985081","mesh":70},{"name":"OSM-BUILDING-WAY-349985082","mesh":71},{"name":"OSM-BUILDING-WAY-349985086","mesh":72},{"name":"OSM-BUILDING-WAY-349985087","mesh":73},{"name":"OSM-BUILDING-WAY-349985088","mesh":74},{"name":"OSM-BUILDING-WAY-349985089","mesh":75},{"name":"OSM-BUILDING-WAY-349985091","mesh":76},{"name":"OSM-BUILDING-WAY-349985092","mesh":77},{"name":"OSM-BUILDING-WAY-349985094","mesh":78},{"name":"OSM-BUILDING-WAY-349985098","mesh":79},{"name":"OSM-BUILDING-WAY-349985101","mesh":80},{"name":"OSM-BUILDING-WAY-349985103","mesh":81},{"name":"OSM-BUILDING-WAY-349985105","mesh":82},{"name":"OSM-BUILDING-WAY-349985109","mesh":83},{"name":"OSM-BUILDING-WAY-349985111","mesh":84},{"name":"OSM-BUILDING-WAY-349985112","mesh":85},{"name":"OSM-BUILDING-WAY-349985115","mesh":86},{"name":"OSM-BUILDING-WAY-349985117","mesh":87},{"name":"OSM-BUILDING-WAY-349985119","mesh":88},{"name":"OSM-BUILDING-WAY-349985120","mesh":89},{"name":"OSM-BUILDING-WAY-349985122","mesh":90},{"name":"OSM-BUILDING-WAY-349985123","mesh":91},{"name":"OSM-BUILDING-WAY-349985124","mesh":92},{"name":"OSM-BUILDING-WAY-349985127","mesh":93},{"name":"OSM-BUILDING-WAY-349985128","mesh":94},{"name":"OSM-BUILDING-WAY-349985129","mesh":95},{"name":"OSM-BUILDING-WAY-349985130","mesh":96},{"name":"OSM-BUILDING-WAY-349985136","mesh":97},{"name":"OSM-BUILDING-WAY-349985142","mesh":98},{"name":"OSM-BUILDING-WAY-349985147","mesh":99},{"name":"OSM-BUILDING-WAY-349985149","mesh":100},{"name":"OSM-BUILDING-WAY-349985169","mesh":101},{"name":"OSM-BUILDING-WAY-349985190","mesh":102},{"name":"OSM-BUILDING-WAY-349985198","mesh":103},{"name":"OSM-BUILDING-WAY-349985200","mesh":104},{"name":"OSM-BUILDING-WAY-349985204","mesh":105},{"name":"OSM-BUILDING-WAY-349985206","mesh":106},{"name":"OSM-BUILDING-WAY-349985223","mesh":107},{"name":"OSM-BUILDING-WAY-349985228","mesh":108},{"name":"OSM-BUILDING-WAY-349985236","mesh":109},{"name":"OSM-BUILDING-WAY-349985239","mesh":110},{"name":"OSM-BUILDING-WAY-349985248","mesh":111},{"name":"OSM-BUILDING-WAY-349985252","mesh":112},{"name":"OSM-BUILDING-WAY-349985269","mesh":113},{"name":"OSM-BUILDING-WAY-349985279","mesh":114},{"name":"OSM-BUILDING-WAY-349985285","mesh":115},{"name":"OSM-BUILDING-WAY-349985290","mesh":116},{"name":"OSM-BUILDING-WAY-349985294","mesh":117},{"name":"OSM-BUILDING-WAY-349985321","mesh":118},{"name":"OSM-BUILDING-WAY-349985327","mesh":119},{"name":"OSM-BUILDING-WAY-349985331","mesh":120},{"name":"OSM-BUILDING-WAY-349985339","mesh":121},{"name":"OSM-BUILDING-WAY-349985344","mesh":122},{"name":"OSM-BUILDING-WAY-349985354","mesh":123},{"name":"OSM-BUILDING-WAY-349985362","mesh":124},{"name":"OSM-BUILDING-WAY-349985364","mesh":125},{"name":"OSM-BUILDING-WAY-349985366","mesh":126},{"name":"OSM-BUILDING-WAY-349985375","mesh":127},{"name":"OSM-BUILDING-WAY-349985379","mesh":128},{"name":"OSM-BUILDING-WAY-349985383","mesh":129},{"name":"OSM-BUILDING-WAY-349985389","mesh":130},{"name":"OSM-BUILDING-WAY-349985393","mesh":131},{"name":"OSM-BUILDING-WAY-349985395","mesh":132},{"name":"OSM-BUILDING-WAY-349985401","mesh":133},{"name":"OSM-BUILDING-WAY-349985405","mesh":134},{"name":"OSM-BUILDING-WAY-349985421","mesh":135},{"name":"OSM-BUILDING-WAY-349985433","mesh":136},{"name":"OSM-BUILDING-WAY-349985438","mesh":137},{"name":"OSM-BUILDING-WAY-349985439","mesh":138},{"name":"OSM-BUILDING-WAY-349985441","mesh":139},{"name":"OSM-BUILDING-WAY-349985443","mesh":140},{"name":"OSM-BUILDING-WAY-349985444","mesh":141},{"name":"OSM-BUILDING-WAY-349985448","mesh":142},{"name":"OSM-BUILDING-WAY-349985456","mesh":143},{"name":"OSM-BUILDING-WAY-349985461","mesh":144},{"name":"OSM-BUILDING-WAY-349985469","mesh":145},{"name":"OSM-BUILDING-WAY-349985471","mesh":146},{"name":"OSM-BUILDING-WAY-349985474","mesh":147},{"name":"OSM-BUILDING-WAY-349985475","mesh":148},{"name":"OSM-BUILDING-WAY-349985476","mesh":149},{"name":"OSM-BUILDING-WAY-349985478","mesh":150},{"name":"OSM-BUILDING-WAY-349985479","mesh":151},{"name":"OSM-BUILDING-WAY-349985480","mesh":152},{"name":"OSM-BUILDING-WAY-349985484","mesh":153},{"name":"OSM-BUILDING-WAY-349985485","mesh":154},{"name":"OSM-BUILDING-WAY-349985487","mesh":155}],"buffers":[{"uri":"gltf_buffer_0.bin","byteLength":144},{"uri":"gltf_buffer_1.bin","byteLength":96},{"uri":"gltf_buffer_2.bin","byteLength":32},{"uri":"gltf_buffer_3.bin","byteLength":96},{"uri":"gltf_buffer_4.bin","byteLength":144},{"uri":"gltf_buffer_5.bin","byteLength":96},{"uri":"gltf_buffer_6.bin","byteLength":144},{"uri":"gltf_buffer_7.bin","byteLength":96},{"uri":"gltf_buffer_8.bin","byteLength":96},{"uri":"gltf_buffer_9.bin","byteLength":96},{"uri":"gltf_buffer_10.bin","byteLength":96},{"uri":"gltf_buffer_11.bin","byteLength":96},{"uri":"gltf_buffer_12.bin","byteLength":96},{"uri":"gltf_buffer_13.bin","byteLength":96},{"uri":"gltf_buffer_14.bin","byteLength":144},{"uri":"gltf_buffer_15.bin","byteLength":96},{"uri":"gltf_buffer_16.bin","byteLength":96},{"uri":"gltf_buffer_17.bin","byteLength":96},{"uri":"gltf_buffer_18.bin","byteLength":96},{"uri":"gltf_buffer_19.bin","byteLength":96},{"uri":"gltf_buffer_20.bin","byteLength":96},{"uri":"gltf_buffer_21.bin","byteLength":96},{"uri":"gltf_buffer_22.bin","byteLength":96},{"uri":"gltf_buffer_23.bin","byteLength":96},{"uri":"gltf_buffer_24.bin","byteLength":96},{"uri":"gltf_buffer_25.bin","byteLength":96},{"uri":"gltf_buffer_26.bin","byteLength":96},{"uri":"gltf_buffer_27.bin","byteLength":96},{"uri":"gltf_buffer_28.bin","byteLength":96},{"uri":"gltf_buffer_29.bin","byteLength":96},{"uri":"gltf_buffer_30.bin","byteLength":96},{"uri":"gltf_buffer_31.bin","byteLength":96},{"uri":"gltf_buffer_32.bin","byteLength":96},{"uri":"gltf_buffer_33.bin","byteLength":96},{"uri":"gltf_buffer_34.bin","byteLength":96},{"uri":"gltf_buffer_35.bin","byteLength":96},{"uri":"gltf_buffer_36.bin","byteLength":96},{"uri":"gltf_buffer_37.bin","byteLength":96},{"uri":"gltf_buffer_38.bin","byteLength":192},{"uri":"gltf_buffer_39.bin","byteLength":120},{"uri":"gltf_buffer_40.bin","byteLength":40},{"uri":"gltf_buffer_41.bin","byteLength":96},{"uri":"gltf_buffer_42.bin","byteLength":96},{"uri":"gltf_buffer_43.bin","byteLength":144},{"uri":"gltf_buffer_44.bin","byteLength":96},{"uri":"gltf_buffer_45.bin","byteLength":96},{"uri":"gltf_buffer_46.bin","byteLength":96},{"uri":"gltf_buffer_47.bin","byteLength":96},{"uri":"gltf_buffer_48.bin","byteLength":96},{"uri":"gltf_buffer_49.bin","byteLength":96},{"uri":"gltf_buffer_50.bin","byteLength":96},{"uri":"gltf_buffer_51.bin","byteLength":96},{"uri":"gltf_buffer_52.bin","byteLength":96},{"uri":"gltf_buffer_53.bin","byteLength":96},{"uri":"gltf_buffer_54.bin","byteLength":96},{"uri":"gltf_buffer_55.bin","byteLength":96},{"uri":"gltf_buffer_56.bin","byteLength":96},{"uri":"gltf_buffer_57.bin","byteLength":96},{"uri":"gltf_buffer_58.bin","byteLength":96},{"uri":"gltf_buffer_59.bin","byteLength":96},{"uri":"gltf_buffer_60.bin","byteLength":96},{"uri":"gltf_buffer_61.bin","byteLength":96},{"uri":"gltf_buffer_62.bin","byteLength":96},{"uri":"gltf_buffer_63.bin","byteLength":96},{"uri":"gltf_buffer_64.bin","byteLength":96},{"uri":"gltf_buffer_65.bin","byteLength":96},{"uri":"gltf_buffer_66.bin","byteLength":96},{"uri":"gltf_buffer_67.bin","byteLength":96},{"uri":"gltf_buffer_68.bin","byteLength":96},{"uri":"gltf_buffer_69.bin","byteLength":96},{"uri":"gltf_buffer_70.bin","byteLength":144},{"uri":"gltf_buffer_71.bin","byteLength":96},{"uri":"gltf_buffer_72.bin","byteLength":96},{"uri":"gltf_buffer_73.bin","byteLength":96},{"uri":"gltf_buffer_74.bin","byteLength":96},{"uri":"gltf_buffer_75.bin","byteLength":96},{"uri":"gltf_buffer_76.bin","byteLength":96},{"uri":"gltf_buffer_77.bin","byteLength":96},{"uri":"gltf_buffer_78.bin","byteLength":96},{"uri":"gltf_buffer_79.bin","byteLength":96},{"uri":"gltf_buffer_80.bin","byteLength":96},{"uri":"gltf_buffer_81.bin","byteLength":96},{"uri":"gltf_buffer_82.bin","byteLength":96},{"uri":"gltf_buffer_83.bin","byteLength":96},{"uri":"gltf_buffer_84.bin","byteLength":96},{"uri":"gltf_buffer_85.bin","byteLength":96},{"uri":"gltf_buffer_86.bin","byteLength":96},{"uri":"gltf_buffer_87.bin","byteLength":96},{"uri":"gltf_buffer_88.bin","byteLength":96},{"uri":"gltf_buffer_89.bin","byteLength":96},{"uri":"gltf_buffer_90.bin","byteLength":96},{"uri":"gltf_buffer_91.bin","byteLength":96},{"uri":"gltf_buffer_92.bin","byteLength":96},{"uri":"gltf_buffer_93.bin","byteLength":96},{"uri":"gltf_buffer_94.bin","byteLength":96},{"uri":"gltf_buffer_95.bin","byteLength":96},{"uri":"gltf_buffer_96.bin","byteLength":96},{"uri":"gltf_buffer_97.bin","byteLength":96},{"uri":"gltf_buffer_98.bin","byteLength":96},{"uri":"gltf_buffer_99.bin","byteLength":96},{"uri":"gltf_buffer_100.bin","byteLength":96},{"uri":"gltf_buffer_101.bin","byteLength":96},{"uri":"gltf_buffer_102.bin","byteLength":96},{"uri":"gltf_buffer_103.bin","byteLength":96},{"uri":"gltf_buffer_104.bin","byteLength":96},{"uri":"gltf_buffer_105.bin","byteLength":96},{"uri":"gltf_buffer_106.bin","byteLength":96},{"uri":"gltf_buffer_107.bin","byteLength":96},{"uri":"gltf_buffer_108.bin","byteLength":96},{"uri":"gltf_buffer_109.bin","byteLength":96},{"uri":"gltf_buffer_110.bin","byteLength":96},{"uri":"gltf_buffer_111.bin","byteLength":96},{"uri":"gltf_buffer_112.bin","byteLength":96},{"uri":"gltf_buffer_113.bin","byteLength":96},{"uri":"gltf_buffer_114.bin","byteLength":96},{"uri":"gltf_buffer_115.bin","byteLength":96},{"uri":"gltf_buffer_116.bin","byteLength":96},{"uri":"gltf_buffer_117.bin","byteLength":96},{"uri":"gltf_buffer_118.bin","byteLength":96},{"uri":"gltf_buffer_119.bin","byteLength":96},{"uri":"gltf_buffer_120.bin","byteLength":96},{"uri":"gltf_buffer_121.bin","byteLength":96},{"uri":"gltf_buffer_122.bin","byteLength":96},{"uri":"gltf_buffer_123.bin","byteLength":96},{"uri":"gltf_buffer_124.bin","byteLength":96},{"uri":"gltf_buffer_125.bin","byteLength":96},{"uri":"gltf_buffer_126.bin","byteLength":96},{"uri":"gltf_buffer_127.bin","byteLength":96},{"uri":"gltf_buffer_128.bin","byteLength":96},{"uri":"gltf_buffer_129.bin","byteLength":96},{"uri":"gltf_buffer_130.bin","byteLength":96},{"uri":"gltf_buffer_131.bin","byteLength":96},{"uri":"gltf_buffer_132.bin","byteLength":96},{"uri":"gltf_buffer_133.bin","byteLength":96},{"uri":"gltf_buffer_134.bin","byteLength":96},{"uri":"gltf_buffer_135.bin","byteLength":96},{"uri":"gltf_buffer_136.bin","byteLength":96},{"uri":"gltf_buffer_137.bin","byteLength":96},{"uri":"gltf_buffer_138.bin","byteLength":96},{"uri":"gltf_buffer_139.bin","byteLength":96},{"uri":"gltf_buffer_140.bin","byteLength":96},{"uri":"gltf_buffer_141.bin","byteLength":96},{"uri":"gltf_buffer_142.bin","byteLength":96},{"uri":"gltf_buffer_143.bin","byteLength":96},{"uri":"gltf_buffer_144.bin","byteLength":96},{"uri":"gltf_buffer_145.bin","byteLength":96},{"uri":"gltf_buffer_146.bin","byteLength":96},{"uri":"gltf_buffer_147.bin","byteLength":96},{"uri":"gltf_buffer_148.bin","byteLength":96},{"uri":"gltf_buffer_149.bin","byteLength":96},{"uri":"gltf_buffer_150.bin","byteLength":96},{"uri":"gltf_buffer_151.bin","byteLength":96},{"uri":"gltf_buffer_152.bin","byteLength":96},{"uri":"gltf_buffer_153.bin","byteLength":96},{"uri":"gltf_buffer_154.bin","byteLength":96},{"uri":"gltf_buffer_155.bin","byteLength":96},{"uri":"gltf_buffer_156.bin","byteLength":96},{"uri":"gltf_buffer_157.bin","byteLength":96},{"uri":"gltf_buffer_158.bin","byteLength":96},{"uri":"gltf_buffer_159.bin","byteLength":96},{"uri":"gltf_buffer_160.bin","byteLength":96},{"uri":"gltf_buffer_161.bin","byteLength":96},{"uri":"gltf_buffer_162.bin","byteLength":192},{"uri":"gltf_buffer_163.bin","byteLength":120},{"uri":"gltf_buffer_164.bin","byteLength":120},{"uri":"gltf_buffer_165.bin","byteLength":288},{"uri":"gltf_buffer_166.bin","byteLength":168},{"uri":"gltf_buffer_167.bin","byteLength":56}],"bufferViews":[{"buffer":0,"byteOffset":0,"byteLength":144},{"buffer":1,"byteOffset":0,"byteLength":96},{"buffer":2,"byteOffset":0,"byteLength":32},{"buffer":3,"byteOffset":0,"byteLength":96},{"buffer":4,"byteOffset":0,"byteLength":144},{"buffer":5,"byteOffset":0,"byteLength":96},{"buffer":6,"byteOffset":0,"byteLength":144},{"buffer":7,"byteOffset":0,"byteLength":96},{"buffer":8,"byteOffset":0,"byteLength":96},{"buffer":9,"byteOffset":0,"byteLength":96},{"buffer":10,"byteOffset":0,"byteLength":96},{"buffer":11,"byteOffset":0,"byteLength":96},{"buffer":12,"byteOffset":0,"byteLength":96},{"buffer":13,"byteOffset":0,"byteLength":96},{"buffer":14,"byteOffset":0,"byteLength":144},{"buffer":15,"byteOffset":0,"byteLength":96},{"buffer":16,"byteOffset":0,"byteLength":96},{"buffer":17,"byteOffset":0,"byteLength":96},{"buffer":18,"byteOffset":0,"byteLength":96},{"buffer":19,"byteOffset":0,"byteLength":96},{"buffer":20,"byteOffset":0,"byteLength":96},{"buffer":21,"byteOffset":0,"byteLength":96},{"buffer":22,"byteOffset":0,"byteLength":96},{"buffer":23,"byteOffset":0,"byteLength":96},{"buffer":24,"byteOffset":0,"byteLength":96},{"buffer":25,"byteOffset":0,"byteLength":96},{"buffer":26,"byteOffset":0,"byteLength":96},{"buffer":27,"byteOffset":0,"byteLength":96},{"buffer":28,"byteOffset":0,"byteLength":96},{"buffer":29,"byteOffset":0,"byteLength":96},{"buffer":30,"byteOffset":0,"byteLength":96},{"buffer":31,"byteOffset":0,"byteLength":96},{"buffer":32,"byteOffset":0,"byteLength":96},{"buffer":33,"byteOffset":0,"byteLength":96},{"buffer":34,"byteOffset":0,"byteLength":96},{"buffer":35,"byteOffset":0,"byteLength":96},{"buffer":36,"byteOffset":0,"byteLength":96},{"buffer":37,"byteOffset":0,"byteLength":96},{"buffer":38,"byteOffset":0,"byteLength":192},{"buffer":39,"byteOffset":0,"byteLength":120},{"buffer":40,"byteOffset":0,"byteLength":40},{"buffer":41,"byteOffset":0,"byteLength":96},{"buffer":42,"byteOffset":0,"byteLength":96},{"buffer":43,"byteOffset":0,"byteLength":144},{"buffer":44,"byteOffset":0,"byteLength":96},{"buffer":45,"byteOffset":0,"byteLength":96},{"buffer":46,"byteOffset":0,"byteLength":96},{"buffer":47,"byteOffset":0,"byteLength":96},{"buffer":48,"byteOffset":0,"byteLength":96},{"buffer":49,"byteOffset":0,"byteLength":96},{"buffer":50,"byteOffset":0,"byteLength":96},{"buffer":51,"byteOffset":0,"byteLength":96},{"buffer":52,"byteOffset":0,"byteLength":96},{"buffer":53,"byteOffset":0,"byteLength":96},{"buffer":54,"byteOffset":0,"byteLength":96},{"buffer":55,"byteOffset":0,"byteLength":96},{"buffer":56,"byteOffset":0,"byteLength":96},{"buffer":57,"byteOffset":0,"byteLength":96},{"buffer":58,"byteOffset":0,"byteLength":96},{"buffer":59,"byteOffset":0,"byteLength":96},{"buffer":60,"byteOffset":0,"byteLength":96},{"buffer":61,"byteOffset":0,"byteLength":96},{"buffer":62,"byteOffset":0,"byteLength":96},{"buffer":63,"byteOffset":0,"byteLength":96},{"buffer":64,"byteOffset":0,"byteLength":96},{"buffer":65,"byteOffset":0,"byteLength":96},{"buffer":66,"byteOffset":0,"byteLength":96},{"buffer":67,"byteOffset":0,"byteLength":96},{"buffer":68,"byteOffset":0,"byteLength":96},{"buffer":69,"byteOffset":0,"byteLength":96},{"buffer":70,"byteOffset":0,"byteLength":144},{"buffer":71,"byteOffset":0,"byteLength":96},{"buffer":72,"byteOffset":0,"byteLength":96},{"buffer":73,"byteOffset":0,"byteLength":96},{"buffer":74,"byteOffset":0,"byteLength":96},{"buffer":75,"byteOffset":0,"byteLength":96},{"buffer":76,"byteOffset":0,"byteLength":96},{"buffer":77,"byteOffset":0,"byteLength":96},{"buffer":78,"byteOffset":0,"byteLength":96},{"buffer":79,"byteOffset":0,"byteLength":96},{"buffer":80,"byteOffset":0,"byteLength":96},{"buffer":81,"byteOffset":0,"byteLength":96},{"buffer":82,"byteOffset":0,"byteLength":96},{"buffer":83,"byteOffset":0,"byteLength":96},{"buffer":84,"byteOffset":0,"byteLength":96},{"buffer":85,"byteOffset":0,"byteLength":96},{"buffer":86,"byteOffset":0,"byteLength":96},{"buffer":87,"byteOffset":0,"byteLength":96},{"buffer":88,"byteOffset":0,"byteLength":96},{"buffer":89,"byteOffset":0,"byteLength":96},{"buffer":90,"byteOffset":0,"byteLength":96},{"buffer":91,"byteOffset":0,"byteLength":96},{"buffer":92,"byteOffset":0,"byteLength":96},{"buffer":93,"byteOffset":0,"byteLength":96},{"buffer":94,"byteOffset":0,"byteLength":96},{"buffer":95,"byteOffset":0,"byteLength":96},{"buffer":96,"byteOffset":0,"byteLength":96},{"buffer":97,"byteOffset":0,"byteLength":96},{"buffer":98,"byteOffset":0,"byteLength":96},{"buffer":99,"byteOffset":0,"byteLength":96},{"buffer":100,"byteOffset":0,"byteLength":96},{"buffer":101,"byteOffset":0,"byteLength":96},{"buffer":102,"byteOffset":0,"byteLength":96},{"buffer":103,"byteOffset":0,"byteLength":96},{"buffer":104,"byteOffset":0,"byteLength":96},{"buffer":105,"byteOffset":0,"byteLength":96},{"buffer":106,"byteOffset":0,"byteLength":96},{"buffer":107,"byteOffset":0,"byteLength":96},{"buffer":108,"byteOffset":0,"byteLength":96},{"buffer":109,"byteOffset":0,"byteLength":96},{"buffer":110,"byteOffset":0,"byteLength":96},{"buffer":111,"byteOffset":0,"byteLength":96},{"buffer":112,"byteOffset":0,"byteLength":96},{"buffer":113,"byteOffset":0,"byteLength":96},{"buffer":114,"byteOffset":0,"byteLength":96},{"buffer":115,"byteOffset":0,"byteLength":96},{"buffer":116,"byteOffset":0,"byteLength":96},{"buffer":117,"byteOffset":0,"byteLength":96},{"buffer":118,"byteOffset":0,"byteLength":96},{"buffer":119,"byteOffset":0,"byteLength":96},{"buffer":120,"byteOffset":0,"byteLength":96},{"buffer":121,"byteOffset":0,"byteLength":96},{"buffer":122,"byteOffset":0,"byteLength":96},{"buffer":123,"byteOffset":0,"byteLength":96},{"buffer":124,"byteOffset":0,"byteLength":96},{"buffer":125,"byteOffset":0,"byteLength":96},{"buffer":126,"byteOffset":0,"byteLength":96},{"buffer":127,"byteOffset":0,"byteLength":96},{"buffer":128,"byteOffset":0,"byteLength":96},{"buffer":129,"byteOffset":0,"byteLength":96},{"buffer":130,"byteOffset":0,"byteLength":96},{"buffer":131,"byteOffset":0,"byteLength":96},{"buffer":132,"byteOffset":0,"byteLength":96},{"buffer":133,"byteOffset":0,"byteLength":96},{"buffer":134,"byteOffset":0,"byteLength":96},{"buffer":135,"byteOffset":0,"byteLength":96},{"buffer":136,"byteOffset":0,"byteLength":96},{"buffer":137,"byteOffset":0,"byteLength":96},{"buffer":138,"byteOffset":0,"byteLength":96},{"buffer":139,"byteOffset":0,"byteLength":96},{"buffer":140,"byteOffset":0,"byteLength":96},{"buffer":141,"byteOffset":0,"byteLength":96},{"buffer":142,"byteOffset":0,"byteLength":96},{"buffer":143,"byteOffset":0,"byteLength":96},{"buffer":144,"byteOffset":0,"byteLength":96},{"buffer":145,"byteOffset":0,"byteLength":96},{"buffer":146,"byteOffset":0,"byteLength":96},{"buffer":147,"byteOffset":0,"byteLength":96},{"buffer":148,"byteOffset":0,"byteLength":96},{"buffer":149,"byteOffset":0,"byteLength":96},{"buffer":150,"byteOffset":0,"byteLength":96},{"buffer":151,"byteOffset":0,"byteLength":96},{"buffer":152,"byteOffset":0,"byteLength":96},{"buffer":153,"byteOffset":0,"byteLength":96},{"buffer":154,"byteOffset":0,"byteLength":96},{"buffer":155,"byteOffset":0,"byteLength":96},{"buffer":156,"byteOffset":0,"byteLength":96},{"buffer":157,"byteOffset":0,"byteLength":96},{"buffer":158,"byteOffset":0,"byteLength":96},{"buffer":159,"byteOffset":0,"byteLength":96},{"buffer":160,"byteOffset":0,"byteLength":96},{"buffer":161,"byteOffset":0,"byteLength":96},{"buffer":162,"byteOffset":0,"byteLength":192},{"buffer":163,"byteOffset":0,"byteLength":120},{"buffer":164,"byteOffset":0,"byteLength":120},{"buffer":165,"byteOffset":0,"byteLength":288},{"buffer":166,"byteOffset":0,"byteLength":168},{"buffer":167,"byteOffset":0,"byteLength":56}]}