{"scene":0,"scenes":[{"nodes":[0,1,2,3,4,5,6,7,8,9,10,11,12,13,14,15,16,17,18,19,20,21,22,23,24,25,26,27,28,29,30,31,32,33,34,35,36,37,38,39,40,41,42,43,44,45,46,47,48,49,50,51,52,53,54,55,56,57,58,59,60,61,62,63,64,65,66,67,68,69,70,71,72,73,74,75,76,77,78,79,80,81,82,83,84,85,86,87,88,89,90,91,92,93,94,95,96,97,98,99,100,101,102,103,104,105,106,107,108,109,110,111,112,113,114,115,116,117,118,119,120,121,122,123,124,125,126,127,128,129,130,131,132,133,134,135,136,137,138,139,140,141,142,143,144,145,146,147,148,149,150,151,152,153,154]}],"asset":{"version":"2.0","generator":"https://github.com/mikedh/trimesh"},"accessors":[{"componentType":5125,"type":"SCALAR","bufferView":0,"count":36,"max":[7],"min":[0]},{"componentType":5126,"type":"VEC3","byteOffset":0,"bufferView":1,"count":8,"max":[80.59239959716797,-31.020599365234375,9.0],"min":[54.8583984375,-54.529598236083984,0.0]},{"componentType":5121,"normalized":true,"type":"VEC4","byteOffset":0,"bufferView":2,"count":8,"max":[6,182,212,220],"min":[6,182,212,220]},{"componentType":5126,"type":"VEC3","byteOffset":0,"bufferView":3,"count":8,"max":[97.44599914550781,-18.04450035095215,9.0],"min":[74.20240020751953,-39.51599884033203,0.0]},{"componentType":5125,"type":"SCALAR","bufferView":4,"count":36,"max":[7],"min":[0]},{"componentType":5126,"type":"VEC3","byteOffset":0,"bufferView":5,"count":8,"max":[60.29169845581055,-44.25640106201172,9.0],"min":[34.19620132446289,-68.58059692382812,0.0]},{"componentType":5125,"type":"SCALAR","bufferView":6,"count":36,"max":[7],"min":[0]},{"componentType":5126,"type":"VEC3","byteOffset":0,"bufferView":7,"count":8,"max":[62.17070007324219,-17.08810043334961,9.0],"min":[38.02790069580078,-38.21080017089844,0.0]},{"componentType":5126,"type":"VEC3","byteOffset":0,"bufferView":8,"count":8,"max":[155.10400390625,-54.89780044555664,9.0],"min":[130.56629943847656,-80.7426986694336,0.0]},{"componentType":5126,"type":"VEC3","byteOffset":0,"bufferView":9,"count":8,"max":[118.57689666748047,-50.47560119628906,9.0],"min":[91.83000183105469,-71.89610290527344,0.0]},{"componentType":5126,"type":"VEC3","byteOffset":0,"bufferView":10,"count":8,"max":[113.87149810791016,-78.78759765625,9.0],"min":[88.53900146484375,-104.02310180664062,0.0]},{"componentType":5126,"type":"VEC3","byteOffset":0,"bufferView":11,"count":8,"max":[94.85269927978516,-42.92829895019531,9.0],"min":[83.44580078125,-55.54439926147461,0.0]},{"componentType":5126,"type":"VEC3","byteOffset":0,"bufferView":12,"count":8,"max":[28.047300338745117,104.90029907226562,9.0],"min":[-31.516300201416016,55.765499114990234,0.0]},{"componentType":5126,"type":"VEC3","byteOffset":0,"bufferView":13,"count":8,"max":[114.95929718017578,-6.668499946594238,9.0],"min":[95.14569854736328,-25.112699508666992,0.0]},{"componentType":5125,"type":"SCALAR","bufferView":14,"count":36,"max":[7],"min":[0]},{"componentType":5126,"type":"VEC3","byteOffset":0,"bufferView":15,"count":8,"max":[78.18599700927734,-51.37889862060547,9.0],"min":[60.689300537109375,-72.18329620361328,0.0]},{"componentType":5126,"type":"VEC3","byteOffset":0,"bufferView":16,"count":8,"max":[94.80809783935547,48.45600128173828,9.0],"min":[59.47600173950195,3.218400001525879,0.0]},{"componentType":5126,"type":"VEC3","byteOffset":0,"bufferView":17,"count":8,"max":[34.065799713134766,23.39459991455078,9.0],"min":[-10.356900215148926,-23.15239906311035,0.0]},{"componentType":5126,"type":"VEC3","byteOffset":0,"bufferView":18,"count":8,"max":[134.12460327148438,-63.90420150756836,9.0],"min":[114.59539794921875,-85.37200164794922,0.0]},{"componentType":5126,"type":"VEC3","byteOffset":0,"bufferView":19,"count":8,"max":[134.3979949951172,-30.80340003967285,9.0],"min":[112.06729888916016,-51.82939910888672,0.0]},{"componentType":5126,"type":"VEC3","byteOffset":0,"bufferView":20,"count":8,"max":[87.56909942626953,-43.1879997253418,9.0],"min":[75.783203125,-56.75740051269531,0.0]},{"componentType":5126,"type":"VEC3","byteOffset":0,"bufferView":21,"count":8,"max":[74.8812026977539,-80.8906021118164,9.0],"min":[55.507999420166016,-99.43589782714844,0.0]},{"componentType":5126,"type":"VEC3","byteOffset":0,"bufferView":22,"count":8,"max":[175.6793975830078,-10.402999877929688,9.0],"min":[141.60659790039062,-41.698299407958984,0.0]},{"componentType":5126,"type":"VEC3","byteOffset":0,"bufferView":23,"count":8,"max":[109.2947998046875,-30.212099075317383,9.0],"min":[91.83360290527344,-48.05699920654297,0.0]},{"componentType":5126,"type":"VEC3","byteOffset":0,"bufferView":24,"count":8,"max":[56.796199798583984,-65.44200134277344,9.0],"min":[43.582801818847656,-78.57610321044922,0.0]},{"componentType":5126,"type":"VEC3","byteOffset":0,"bufferView":25,"count":8,"max":[154.33160400390625,67.63310241699219,9.0],"min":[140.05340576171875,54.74440002441406,0.0]},{"componentType":5126,"type":"VEC3","byteOffset":0,"bufferView":26,"count":8,"max":[44.844600677490234,66.53690338134766,9.0],"min":[1.0023000240325928,30.080699920654297,0.0]},{"componentType":5126,"type":"VEC3","byteOffset":0,"bufferView":27,"count":8,"max":[95.77880096435547,-64.13770294189453,9.0],"min":[82.70970153808594,-78.7979965209961,0.0]},{"componentType":5126,"type":"VEC3","byteOffset":0,"bufferView":28,"count":8,"max":[99.90380096435547,-39.1879997253418,9.0],"min":[88.46920013427734,-51.62329864501953,0.0]},{"componentType":5126,"type":"VEC3","byteOffset":0,"bufferView":29,"count":8,"max":[125.9197006225586,-15.821399688720703,9.0],"min":[102.1177978515625,-39.000999450683594,0.0]},{"componentType":5126,"type":"VEC3","byteOffset":0,"bufferView":30,"count":8,"max":[45.18190002441406,93.50260162353516,9.0],"min":[24.440799713134766,69.35379791259766,0.0]},{"componentType":5126,"type":"VEC3","byteOffset":0,"bufferView":31,"count":8,"max":[64.93499755859375,-58.510101318359375,9.0],"min":[51.95249938964844,-71.73519897460938,0.0]},{"componentType":5126,"type":"VEC3","byteOffset":0,"bufferView":32,"count":8,"max":[89.5238037109375,1.8331999778747559,9.0],"min":[66.14730072021484,-19.167600631713867,0.0]},{"componentType":5126,"type":"VEC3","byteOffset":0,"bufferView":33,"count":8,"max":[121.00340270996094,-70.85489654541016,9.0],"min":[103.9990005493164,-88.78520202636719,0.0]},{"componentType":5126,"type":"VEC3","byteOffset":0,"bufferView":34,"count":8,"max":[143.23379516601562,-43.523399353027344,9.0],"min":[123.3447036743164,-62.14540100097656,0.0]},{"componentType":5126,"type":"VEC3","byteOffset":0,"bufferView":35,"count":8,"max":[143.44720458984375,60.46620178222656,9.0],"min":[126.97560119628906,46.0442008972168,0.0]},{"componentType":5126,"type":"VEC3","byteOffset":0,"bufferView":36,"count":8,"max":[81.45429992675781,-46.901798248291016,9.0],"min":[70.52030181884766,-60.56159973144531,0.0]},{"componentType":5126,"type":"VEC3","byteOffset":0,"bufferView":37,"count":8,"max":[88.79219818115234,-69.30280303955078,9.0],"min":[68.75460052490234,-87.7947006225586,0.0]},{"componentType":5125,"type":"SCALAR","bufferView":38,"count":48,"max":[9],"min":[0]},{"componentType":5126,"type":"VEC3","byteOffset":0,"bufferView":39,"count":10,"max":[33.895198822021484,-66.31510162353516,9.0],"min":[-2.7750000953674316,-100.92259979248047,0.0]},{"componentType":5121,"normalized":true,"type":"VEC4","byteOffset":0,"bufferView":40,"count":10,"max":[6,182,212,220],"min":[6,182,212,220]},{"componentType":5126,"type":"VEC3","byteOffset":0,"bufferView":41,"count":8,"max":[-96.96510314941406,82.93689727783203,9.0],"min":[-116.17040252685547,64.77629852294922,0.0]},{"componentType":5126,"type":"VEC3","byteOffset":0,"bufferView":42,"count":8,"max":[-105.51390075683594,-6.9380998611450195,9.0],"min":[-121.12519836425781,-24.162200927734375,0.0]},{"componentType":5125,"type":"SCALAR","bufferView":43,"count":36,"max":[7],"min":[0]},{"componentType":5126,"type":"VEC3","byteOffset":0,"bufferView":44,"count":8,"max":[123.28070068359375,46.69169998168945,9.0],"min":[109.2708969116211,34.70349884033203,0.0]},{"componentType":5126,"type":"VEC3","byteOffset":0,"bufferView":45,"count":8,"max":[-151.0496063232422,71.802001953125,9.0],"min":[-164.73599243164062,56.314998626708984,0.0]},{"componentType":5126,"type":"VEC3","byteOffset":0,"bufferView":46,"count":8,"max":[-142.6278076171875,77.76229858398438,9.0],"min":[-158.42349243164062,59.949798583984375,0.0]},{"componentType":5126,"type":"VEC3","byteOffset":0,"bufferView":47,"count":8,"max":[-66.36250305175781,28.489299774169922,9.0],"min":[-79.59929656982422,17.499099731445312,0.0]},{"componentType":5126,"type":"VEC3","byteOffset":0,"bufferView":48,"count":8,"max":[115.3490982055664,88.5552978515625,9.0],"min":[95.65499877929688,69.29650115966797,0.0]},{"componentType":5126,"type":"VEC3","byteOffset":0,"bufferView":49,"count":8,"max":[-58.183998107910156,58.31589889526367,9.0],"min":[-74.2333984375,40.79249954223633,0.0]},{"componentType":5126,"type":"VEC3","byteOffset":0,"bufferView":50,"count":8,"max":[125.96379852294922,95.12899780273438,9.0],"min":[110.17469787597656,79.23169708251953,0.0]},{"componentType":5126,"type":"VEC3","byteOffset":0,"bufferView":51,"count":8,"max":[157.1728057861328,61.23379898071289,9.0],"min":[143.56410217285156,49.815101623535156,0.0]},{"componentType":5126,"type":"VEC3","byteOffset":0,"bufferView":52,"count":8,"max":[-16.208999633789062,-37.71799850463867,9.0],"min":[-29.89539909362793,-53.44860076904297,0.0]},{"componentType":5126,"type":"VEC3","byteOffset":0,"bufferView":53,"count":8,"max":[-92.47000122070312,33.041099548339844,9.0],"min":[-108.50550079345703,19.28030014038086,0.0]},{"componentType":5126,"type":"VEC3","byteOffset":0,"bufferView":54,"count":8,"max":[-122.9708023071289,-18.526199340820312,9.0],"min":[-140.60980224609375,-37.22869873046875,0.0]},{"componentType":5126,"type":"VEC3","byteOffset":0,"bufferView":55,"count":8,"max":[108.60350036621094,63.04650115966797,9.0],"min":[93.6978988647461,46.09410095214844,0.0]},{"componentType":5126,"type":"VEC3","byteOffset":0,"bufferView":56,"count":8,"max":[149.2572021484375,48.75469970703125,9.0],"min":[135.63890075683594,37.32490158081055,0.0]},{"componentType":5126,"type":"VEC3","byteOffset":0,"bufferView":57,"count":8,"max":[-113.43190002441406,-11.03279972076416,9.0],"min":[-130.8863983154297,-30.147199630737305,0.0]},{"componentType":5126,"type":"VEC3","byteOffset":0,"bufferView":58,"count":8,"max":[114.94840240478516,32.32080078125,9.0],"min":[100.9384994506836,20.332599639892578,0.0]},{"componentType":5126,"type":"VEC3","byteOffset":0,"bufferView":59,"count":8,"max":[-47.64979934692383,40.83660125732422,9.0],"min":[-64.68109893798828,25.09149932861328,0.0]},{"componentType":5126,"type":"VEC3","byteOffset":0,"bufferView":60,"count":8,"max":[130.77020263671875,11.947199821472168,9.0],"min":[116.76029968261719,-0.04089999943971634,0.0]},{"componentType":5126,"type":"VEC3","byteOffset":0,"bufferView":61,"count":8,"max":[135.06809997558594,31.035999298095703,9.0],"min":[121.05829620361328,19.047800064086914,0.0]},{"componentType":5126,"type":"VEC3","byteOffset":0,"bufferView":62,"count":8,"max":[138.36419677734375,26.038999557495117,9.0],"min":[124.35430145263672,14.05090045928955,0.0]},{"componentType":5126,"type":"VEC3","byteOffset":0,"bufferView":63,"count":8,"max":[126.59700012207031,26.588199615478516,9.0],"min":[107.27799987792969,5.973700046539307,0.0]},{"componentType":5126,"type":"VEC3","byteOffset":0,"bufferView":64,"count":8,"max":[-78.22589874267578,-88.12429809570312,9.0],"min":[-95.14939880371094,-103.14939880371094,0.0]},{"componentType":5126,"type":"VEC3","byteOffset":0,"bufferView":65,"count":8,"max":[-146.65020751953125,-34.85459899902344,9.0],"min":[-163.85009765625,-54.23360061645508,0.0]},{"componentType":5126,"type":"VEC3","byteOffset":0,"bufferView":66,"count":8,"max":[-30.37070083618164,15.956700325012207,9.0],"min":[-48.4651985168457,-0.9426000118255615,0.0]},{"componentType":5126,"type":"VEC3","byteOffset":0,"bufferView":67,"count":8,"max":[-65.84159851074219,-72.82830047607422,9.0],"min":[-82.76509857177734,-87.85340118408203,0.0]},{"componentType":5126,"type":"VEC3","byteOffset":0,"bufferView":68,"count":8,"max":[-97.32019805908203,-23.094499588012695,9.0],"min":[-111.8511962890625,-39.63629913330078,0.0]},{"componentType":5126,"type":"VEC3","byteOffset":0,"bufferView":69,"count":8,"max":[110.76460266113281,37.74549865722656,9.0],"min":[96.75499725341797,25.757299423217773,0.0]},{"componentType":5125,"type":"SCALAR","bufferView":70,"count":36,"max":[7],"min":[0]},{"componentType":5126,"type":"VEC3","byteOffset":0,"bufferView":71,"count":8,"max":[-133.3769989013672,-24.82229995727539,9.0],"min":[-148.38980102539062,-43.24089813232422,0.0]},{"componentType":5126,"type":"VEC3","byteOffset":0,"bufferView":72,"count":8,"max":[14.331000328063965,-42.42940139770508,9.0],"min":[-11.059599876403809,-68.02989959716797,0.0]},{"componentType":5126,"type":"VEC3","byteOffset":0,"bufferView":73,"count":8,"max":[-104.07230377197266,91.58000183105469,9.0],"min":[-121.21540069580078,76.41670227050781,0.0]},{"componentType":5126,"type":"VEC3","byteOffset":0,"bufferView":74,"count":8,"max":[142.09410095214844,20.827999114990234,9.0],"min":[128.08450317382812,8.839900016784668,0.0]},{"componentType":5126,"type":"VEC3","byteOffset":0,"bufferView":75,"count":8,"max":[-61.52349853515625,-78.66079711914062,9.0],"min":[-78.4469985961914,-93.68599700927734,0.0]},{"componentType":5126,"type":"VEC3","byteOffset":0,"bufferView":76,"count":8,"max":[-123.21089935302734,38.59579849243164,9.0],"min":[-139.20509338378906,24.02560043334961,0.0]},{"componentType":5126,"type":"VEC3","byteOffset":0,"bufferView":77,"count":8,"max":[-110.88130187988281,-31.834400177001953,9.0],"min":[-122.4917984008789,-45.43659973144531,0.0]},{"componentType":5126,"type":"VEC3","byteOffset":0,"bufferView":78,"count":8,"max":[-13.516599655151367,-5.519199848175049,9.0],"min":[-38.74959945678711,-29.17300033569336,0.0]},{"componentType":5126,"type":"VEC3","byteOffset":0,"bufferView":79,"count":8,"max":[-131.5200958251953,65.22949981689453,9.0],"min":[-148.37869262695312,47.04790115356445,0.0]},{"componentType":5126,"type":"VEC3","byteOffset":0,"bufferView":80,"count":8,"max":[-83.39250183105469,91.89080047607422,9.0],"min":[-101.56520080566406,75.01180267333984,0.0]},{"componentType":5126,"type":"VEC3","byteOffset":0,"bufferView":81,"count":8,"max":[91.73639678955078,70.72550201416016,9.0],"min":[76.22350311279297,54.79159927368164,0.0]},{"componentType":5126,"type":"VEC3","byteOffset":0,"bufferView":82,"count":8,"max":[152.6197967529297,6.292099952697754,9.0],"min":[138.61990356445312,-5.696100234985352,0.0]},{"componentType":5126,"type":"VEC3","byteOffset":0,"bufferView":83,"count":8,"max":[3.130000114440918,-25.02400016784668,9.0],"min":[-24.55470085144043,-50.984100341796875,0.0]},{"componentType":5126,"type":"VEC3","byteOffset":0,"bufferView":84,"count":8,"max":[-122.00199890136719,71.6178970336914,9.0],"min":[-139.25619506835938,52.230201721191406,0.0]},{"componentType":5126,"type":"VEC3","byteOffset":0,"bufferView":85,"count":8,"max":[-56.19390106201172,-30.44499969482422,9.0],"min":[-80.95449829101562,-55.36920166015625,0.0]},{"componentType":5126,"type":"VEC3","byteOffset":0,"bufferView":86,"count":8,"max":[-147.74600219726562,52.762901306152344,9.0],"min":[-163.0738067626953,35.06629943847656,0.0]},{"componentType":5126,"type":"VEC3","byteOffset":0,"bufferView":87,"count":8,"max":[-103.2229995727539,17.902099609375,9.0],"min":[-117.26940155029297,5.472400188446045,0.0]},{"componentType":5126,"type":"VEC3","byteOffset":0,"bufferView":88,"count":8,"max":[-33.62480163574219,-51.77069854736328,9.0],"min":[-52.934200286865234,-72.77069854736328,0.0]},{"componentType":5126,"type":"VEC3","byteOffset":0,"bufferView":89,"count":8,"max":[-75.4375,-14.6048002243042,9.0],"min":[-90.94300079345703,-32.403499603271484,0.0]},{"componentType":5126,"type":"VEC3","byteOffset":0,"bufferView":90,"count":8,"max":[145.72850036621094,15.515600204467773,9.0],"min":[131.7187042236328,3.5162999629974365,0.0]},{"componentType":5126,"type":"VEC3","byteOffset":0,"bufferView":91,"count":8,"max":[-61.3843994140625,-3.3025999069213867,9.0],"min":[-74.81829833984375,-19.27039909362793,0.0]},{"componentType":5126,"type":"VEC3","byteOffset":0,"bufferView":92,"count":8,"max":[-57.36479949951172,-84.32990264892578,9.0],"min":[-74.27850341796875,-99.35489654541016,0.0]},{"componentType":5126,"type":"VEC3","byteOffset":0,"bufferView":93,"count":8,"max":[-111.28500366210938,56.72050094604492,9.0],"min":[-126.56990051269531,43.80590057373047,0.0]},{"componentType":5126,"type":"VEC3","byteOffset":0,"bufferView":94,"count":8,"max":[163.72219848632812,28.789499282836914,9.0],"min":[150.10369873046875,17.359800338745117,0.0]},{"componentType":5126,"type":"VEC3","byteOffset":0,"bufferView":95,"count":8,"max":[-49.17470169067383,-29.110200881958008,9.0],"min":[-63.00379943847656,-45.2318000793457,0.0]},{"componentType":5126,"type":"VEC3","byteOffset":0,"bufferView":96,"count":8,"max":[117.4468994140625,68.62590026855469,9.0],"min":[101.50350189208984,51.884498596191406,0.0]},{"componentType":5126,"type":"VEC3","byteOffset":0,"bufferView":97,"count":8,"max":[-113.02559661865234,30.984899520874023,9.0],"min":[-132.9040069580078,11.81760025024414,0.0]},{"componentType":5126,"type":"VEC3","byteOffset":0,"bufferView":98,"count":8,"max":[-122.08100128173828,-40.520999908447266,9.0],"min":[-137.9268035888672,-59.12689971923828,0.0]},{"componentType":5126,"type":"VEC3","byteOffset":0,"bufferView":99,"count":8,"max":[-31.704299926757812,-15.755900382995605,9.0],"min":[-46.27289962768555,-32.17319869995117,0.0]},{"componentType":5126,"type":"VEC3","byteOffset":0,"bufferView":100,"count":8,"max":[-116.9926986694336,74.96730041503906,9.0],"min":[-130.57240295410156,58.1693000793457,0.0]},{"componentType":5126,"type":"VEC3","byteOffset":0,"bufferView":101,"count":8,"max":[-68.10469818115234,75.73049926757812,9.0],"min":[-103.85160064697266,43.3213996887207,0.0]},{"componentType":5126,"type":"VEC3","byteOffset":0,"bufferView":102,"count":8,"max":[141.29440307617188,86.12809753417969,9.0],"min":[125.97000122070312,70.65740203857422,0.0]},{"componentType":5126,"type":"VEC3","byteOffset":0,"bufferView":103,"count":8,"max":[141.63409423828125,-2.904400110244751,9.0],"min":[127.62429809570312,-14.90369987487793,0.0]},{"componentType":5126,"type":"VEC3","byteOffset":0,"bufferView":104,"count":8,"max":[-97.2396011352539,12.625900268554688,9.0],"min":[-114.32710266113281,-2.341599941253662,0.0]},{"componentType":5126,"type":"VEC3","byteOffset":0,"bufferView":105,"count":8,"max":[145.36619567871094,-7.683000087738037,9.0],"min":[131.3563995361328,-19.671199798583984,0.0]},{"componentType":5126,"type":"VEC3","byteOffset":0,"bufferView":106,"count":8,"max":[-93.24980163574219,4.693299770355225,9.0],"min":[-109.07230377197266,-8.97920036315918,0.0]},{"componentType":5126,"type":"VEC3","byteOffset":0,"bufferView":107,"count":8,"max":[159.68319702148438,38.3484992980957,9.0],"min":[143.0677032470703,21.894899368286133,0.0]},{"componentType":5126,"type":"VEC3","byteOffset":0,"bufferView":108,"count":8,"max":[152.8778076171875,43.652801513671875,9.0],"min":[139.26930236816406,32.222900390625,0.0]},{"componentType":5126,"type":"VEC3","byteOffset":0,"bufferView":109,"count":8,"max":[-138.3927001953125,-53.1599006652832,9.0],"min":[-152.177001953125,-69.69940185546875,0.0]},{"componentType":5126,"type":"VEC3","byteOffset":0,"bufferView":110,"count":8,"max":[-156.29510498046875,67.5780029296875,9.0],"min":[-169.24859619140625,52.129798889160156,0.0]},{"componentType":5126,"type":"VEC3","byteOffset":0,"bufferView":111,"count":8,"max":[-51.906700134277344,17.408300399780273,9.0],"min":[-70.43840026855469,0.9606000185012817,0.0]},{"componentType":5126,"type":"VEC3","byteOffset":0,"bufferView":112,"count":8,"max":[-70.02010345458984,32.3754997253418,9.0],"min":[-82.66480255126953,21.6200008392334,0.0]},{"componentType":5126,"type":"VEC3","byteOffset":0,"bufferView":113,"count":8,"max":[101.78500366210938,77.87429809570312,9.0],"min":[86.19329833984375,62.57529830932617,0.0]},{"componentType":5126,"type":"VEC3","byteOffset":0,"bufferView":114,"count":8,"max":[-115.239501953125,-78.2020034790039,9.0],"min":[-133.36590576171875,-95.58809661865234,0.0]},{"componentType":5126,"type":"VEC3","byteOffset":0,"bufferView":115,"count":8,"max":[-67.58360290527344,50.575401306152344,9.0],"min":[-83.02320098876953,34.686500549316406,0.0]},{"componentType":5126,"type":"VEC3","byteOffset":0,"bufferView":116,"count":8,"max":[-154.73280334472656,-51.26559829711914,9.0],"min":[-172.32330322265625,-66.1051025390625,0.0]},{"componentType":5126,"type":"VEC3","byteOffset":0,"bufferView":117,"count":8,"max":[-55.012001037597656,44.41960144042969,9.0],"min":[-68.17870330810547,32.846099853515625,0.0]},{"componentType":5126,"type":"VEC3","byteOffset":0,"bufferView":118,"count":8,"max":[-40.21189880371094,28.0669002532959,9.0],"min":[-56.175201416015625,15.571599960327148,0.0]},{"componentType":5126,"type":"VEC3","byteOffset":0,"bufferView":119,"count":8,"max":[-44.213401794433594,32.82830047607422,9.0],"min":[-59.01580047607422,20.55579948425293,0.0]},{"componentType":5126,"type":"VEC3","byteOffset":0,"bufferView":120,"count":8,"max":[-58.34400177001953,25.528499603271484,9.0],"min":[-76.64749908447266,9.52299976348877,0.0]},{"componentType":5126,"type":"VEC3","byteOffset":0,"bufferView":121,"count":8,"max":[-126.92030334472656,-86.62830352783203,9.0],"min":[-144.9403076171875,-104.90029907226562,0.0]},{"componentType":5126,"type":"VEC3","byteOffset":0,"bufferView":122,"count":8,"max":[-140.0334014892578,-30.507200241088867,9.0],"min":[-155.19970703125,-48.14540100097656,0.0]},{"componentType":5126,"type":"VEC3","byteOffset":0,"bufferView":123,"count":8,"max":[-81.45449829101562,-76.74469757080078,9.0],"min":[-102.37229919433594,-97.47200012207031,0.0]},{"componentType":5126,"type":"VEC3","byteOffset":0,"bufferView":124,"count":8,"max":[134.2812957763672,6.954100131988525,9.0],"min":[120.27149963378906,-5.03410005569458,0.0]},{"componentType":5126,"type":"VEC3","byteOffset":0,"bufferView":125,"count":8,"max":[-43.457698822021484,8.076199531555176,9.0],"min":[-64.30989837646484,-11.63290023803711,0.0]},{"componentType":5126,"type":"VEC3","byteOffset":0,"bufferView":126,"count":8,"max":[-20.484800338745117,-69.24909973144531,9.0],"min":[-39.51449966430664,-88.93499755859375,0.0]},{"componentType":5126,"type":"VEC3","byteOffset":0,"bufferView":127,"count":8,"max":[160.53460693359375,56.94729995727539,9.0],"min":[146.9163055419922,45.517601013183594,0.0]},{"componentType":5126,"type":"VEC3","byteOffset":0,"bufferView":128,"count":8,"max":[-135.7736053466797,2.4981000423431396,9.0],"min":[-164.2373046875,-26.613800048828125,0.0]},{"componentType":5126,"type":"VEC3","byteOffset":0,"bufferView":129,"count":8,"max":[-156.2476043701172,45.57509994506836,9.0],"min":[-175.6793975830078,25.839599609375,0.0]},{"componentType":5126,"type":"VEC3","byteOffset":0,"bufferView":130,"count":8,"max":[-47.403099060058594,-58.65589904785156,9.0],"min":[-63.9906005859375,-77.78780364990234,0.0]},{"componentType":5126,"type":"VEC3","byteOffset":0,"bufferView":131,"count":8,"max":[-9.071800231933594,-60.94889831542969,9.0],"min":[-27.630199432373047,-80.2384033203125,0.0]},{"componentType":5126,"type":"VEC3","byteOffset":0,"bufferView":132,"count":8,"max":[-1.5507999658584595,-54.97669982910156,9.0],"min":[-18.058000564575195,-73.96839904785156,0.0]},{"componentType":5126,"type":"VEC3","byteOffset":0,"bufferView":133,"count":8,"max":[-158.27279663085938,-14.743300437927246,9.0],"min":[-172.07310485839844,-31.00550079345703,0.0]},{"componentType":5126,"type":"VEC3","byteOffset":0,"bufferView":134,"count":8,"max":[-72.4363021850586,1.5528000593185425,9.0],"min":[-87.86219787597656,-11.437299728393555,0.0]},{"componentType":5126,"type":"VEC3","byteOffset":0,"bufferView":135,"count":8,"max":[-34.01940155029297,-76.83380126953125,9.0],"min":[-52.04169845581055,-97.42040252685547,0.0]},{"componentType":5126,"type":"VEC3","byteOffset":0,"bufferView":136,"count":8,"max":[-130.02540588378906,87.00299835205078,9.0],"min":[-147.5915069580078,68.79440307617188,0.0]},{"componentType":5126,"type":"VEC3","byteOffset":0,"bufferView":137,"count":8,"max":[-85.1897964477539,26.32710075378418,9.0],"min":[-103.56880187988281,9.259699821472168,0.0]},{"componentType":5126,"type":"VEC3","byteOffset":0,"bufferView":138,"count":8,"max":[-80.65640258789062,16.6653995513916,9.0],"min":[-96.05509948730469,2.948699951171875,0.0]},{"componentType":5126,"type":"VEC3","byteOffset":0,"bufferView":139,"count":8,"max":[-114.4801025390625,-34.68450164794922,9.0],"min":[-130.7888946533203,-51.74359893798828,0.0]},{"componentType":5126,"type":"VEC3","byteOffset":0,"bufferView":140,"count":8,"max":[156.2637939453125,0.4253000020980835,9.0],"min":[142.2541046142578,-11.562899589538574,0.0]},{"componentType":5126,"type":"VEC3","byteOffset":0,"bufferView":141,"count":8,"max":[-138.9541015625,58.80350112915039,9.0],"min":[-155.70179748535156,39.643699645996094,0.0]},{"componentType":5126,"type":"VEC3","byteOffset":0,"bufferView":142,"count":8,"max":[-19.818199157714844,-41.30120086669922,9.0],"min":[-43.21369934082031,-65.38600158691406,0.0]},{"componentType":5126,"type":"VEC3","byteOffset":0,"bufferView":143,"count":8,"max":[-84.61060333251953,-4.007500171661377,9.0],"min":[-104.7251968383789,-22.365299224853516,0.0]},{"componentType":5126,"type":"VEC3","byteOffset":0,"bufferView":144,"count":8,"max":[-67.32659912109375,-9.446399688720703,9.0],"min":[-82.622802734375,-25.464799880981445,0.0]},{"componentType":5126,"type":"VEC3","byteOffset":0,"bufferView":145,"count":8,"max":[-75.77110290527344,10.487000465393066,9.0],"min":[-92.72920227050781,-4.507900238037109,0.0]},{"componentType":5126,"type":"VEC3","byteOffset":0,"bufferView":146,"count":8,"max":[-104.30439758300781,-27.601999282836914,9.0],"min":[-118.18479919433594,-43.5349006652832,0.0]},{"componentType":5126,"type":"VEC3","byteOffset":0,"bufferView":147,"count":8,"max":[-129.847900390625,-45.86600112915039,9.0],"min":[-147.5590057373047,-65.35320281982422,0.0]},{"componentType":5126,"type":"VEC3","byteOffset":0,"bufferView":148,"count":8,"max":[-143.148193359375,-66.16470336914062,9.0],"min":[-161.89430236816406,-81.62809753417969,0.0]},{"componentType":5126,"type":"VEC3","byteOffset":0,"bufferView":149,"count":8,"max":[-147.79750061035156,-57.520301818847656,9.0],"min":[-167.28390502929688,-74.48570251464844,0.0]},{"componentType":5126,"type":"VEC3","byteOffset":0,"bufferView":150,"count":8,"max":[146.09820556640625,53.18870162963867,9.0],"min":[132.4799041748047,41.7588996887207,0.0]},{"componentType":5126,"type":"VEC3","byteOffset":0,"bufferView":151,"count":8,"max":[137.79449462890625,1.861199975013733,9.0],"min":[123.78459930419922,-10.138099670410156,0.0]},{"componentType":5126,"type":"VEC3","byteOffset":0,"bufferView":152,"count":8,"max":[-52.90119934082031,-89.53910064697266,9.0],"min":[-69.81500244140625,-104.56410217285156,0.0]},{"componentType":5126,"type":"VEC3","byteOffset":0,"bufferView":153,"count":8,"max":[-70.10140228271484,-66.97250366210938,9.0],"min":[-87.01509857177734,-81.99739837646484,0.0]},{"componentType":5126,"type":"VEC3","byteOffset":0,"bufferView":154,"count":8,"max":[-127.18080139160156,46.17499923706055,9.0],"min":[-145.20069885253906,29.762100219726562,0.0]},{"componentType":5126,"type":"VEC3","byteOffset":0,"bufferView":155,"count":8,"max":[-74.66419982910156,44.57059860229492,9.0],"min":[-91.73729705810547,26.365999221801758,0.0]},{"componentType":5126,"type":"VEC3","byteOffset":0,"bufferView":156,"count":8,"max":[100.94609832763672,57.159000396728516,9.0],"min":[85.99520111083984,40.756900787353516,0.0]},{"componentType":5126,"type":"VEC3","byteOffset":0,"bufferView":157,"count":8,"max":[-38.31570053100586,-20.953100204467773,9.0],"min":[-56.298500061035156,-40.129798889160156,0.0]},{"componentType":5126,"type":"VEC3","byteOffset":0,"bufferView":158,"count":8,"max":[-77.68939971923828,82.24819946289062,9.0],"min":[-108.35050201416016,58.460899353027344,0.0]},{"componentType":5126,"type":"VEC3","byteOffset":0,"bufferView":159,"count":8,"max":[130.79550170898438,78.21489715576172,9.0],"min":[112.06410217285156,60.06850051879883,0.0]},{"componentType":5126,"type":"VEC3","byteOffset":0,"bufferView":160,"count":8,"max":[-104.47799682617188,51.40840148925781,9.0],"min":[-122.59760284423828,34.597198486328125,0.0]},{"componentType":5126,"type":"VEC3","byteOffset":0,"bufferView":161,"count":8,"max":[-97.19400024414062,42.01430130004883,9.0],"min":[-114.2842025756836,26.883899688720703,0.0]},{"componentType":5125,"type":"SCALAR","bufferView":162,"count":48,"max":[9],"min":[0]},{"componentType":5126,"type":"VEC3","byteOffset":0,"bufferView":163,"count":10,"max":[131.56080627441406,35.807498931884766,9.0],"min":[117.5510025024414,23.819299697875977,0.0]},{"componentType":5126,"type":"VEC3","byteOffset":0,"bufferView":164,"count":10,"max":[127.59600067138672,41.55759811401367,9.0],"min":[113.5864028930664,29.569400787353516,0.0]},{"componentType":5125,"type":"SCALAR","bufferView":165,"count":72,"max":[13],"min":[0]},{"componentType":5126,"type":"VEC3","byteOffset":0,"bufferView":166,"count":14,"max":[-83.42430114746094,-47.660400390625,9.0],"min":[-117.29329681396484,-82.931396484375,0.0]},{"componentType":5121,"normalized":true,"type":"VEC4","byteOffset":0,"bufferView":167,"count":14,"max":[6,182,212,220],"min":[6,182,212,220]}],"meshes":[{"name":"OSM-BUILDING-REL-16318240","extras":{"building_id":"OSM-BUILDING-REL-16318240","name":"OSM-BUILDING-REL-16318240","height":9.0},"primitives":[{"attributes":{"POSITION":1,"COLOR_0":2},"indices":0,"mode":4}]},{"name":"OSM-BUILDING-REL-16318240_1","extras":{"building_id":"OSM-BUILDING-REL-16318240","name":"OSM-BUILDING-REL-16318240","height":9.0},"primitives":[{"attributes":{"POSITION":3,"COLOR_0":2},"indices":0,"mode":4}]},{"name":"OSM-BUILDING-WAY-349830327","extras":{"building_id":"OSM-BUILDING-WAY-349830327","name":"OSM-BUILDING-WAY-349830327","height":9.0},"primitives":[{"attributes":{"POSITION":5,"COLOR_0":2},"indices":4,"mode":4}]},{"name":"OSM-BUILDING-WAY-349830338","extras":{"building_id":"OSM-BUILDING-WAY-349830338","name":"OSM-BUILDING-WAY-349830338","height":9.0},"primitives":[{"attributes":{"POSITION":7,"COLOR_0":2},"indices":6,"mode":4}]},{"name":"OSM-BUILDING-WAY-349830348","extras":{"building_id":"OSM-BUILDING-WAY-349830348","name":"OSM-BUILDING-WAY-349830348","height":9.0},"primitives":[{"attributes":{"POSITION":8,"COLOR_0":2},"indices":6,"mode":4}]},{"name":"OSM-BUILDING-WAY-349830351","extras":{"building_id":"OSM-BUILDING-WAY-349830351","name":"OSM-BUILDING-WAY-349830351","height":9.0},"primitives":[{"attributes":{"POSITION":9,"COLOR_0":2},"indices":4,"mode":4}]},{"name":"OSM-BUILDING-WAY-349830378","extras":{"building_id":"OSM-BUILDING-WAY-349830378","name":"OSM-BUILDING-WAY-349830378","height":9.0},"primitives":[{"attributes":{"POSITION":10,"COLOR_0":2},"indices":6,"mode":4}]},{"name":"OSM-BUILDING-WAY-349830381","extras":{"building_id":"OSM-BUILDING-WAY-349830381","name":"OSM-BUILDING-WAY-349830381","height":9.0},"primitives":[{"attributes":{"POSITION":11,"COLOR_0":2},"indices":6,"mode":4}]},{"name":"OSM-BUILDING-WAY-349830385","extras":{"building_id":"OSM-BUILDING-WAY-349830385","name":"OSM-BUILDING-WAY-349830385","height":9.0},"primitives":[{"attributes":{"POSITION":12,"COLOR_0":2},"indices":4,"mode":4}]},{"name":"OSM-BUILDING-WAY-349830389","extras":{"building_id":"OSM-BUILDING-WAY-349830389","name":"OSM-BUILDING-WAY-349830389","height":9.0},"primitives":[{"attributes":{"POSITION":13,"COLOR_0":2},"indices":6,"mode":4}]},{"name":"OSM-BUILDING-WAY-349830396","extras":{"building_id":"OSM-BUILDING-WAY-349830396","name":"OSM-BUILDING-WAY-349830396","height":9.0},"primitives":[{"attributes":{"POSITION":15,"COLOR_0":2},"indices":14,"mode":4}]},{"name":"OSM-BUILDING-WAY-349830397","extras":{"building_id":"OSM-BUILDING-WAY-349830397","name":"OSM-BUILDING-WAY-349830397","height":9.0},"primitives":[{"attributes":{"POSITION":16,"COLOR_0":2},"indices":6,"mode":4}]},{"name":"OSM-BUILDING-WAY-349830413","extras":{"building_id":"OSM-BUILDING-WAY-349830413","name":"OSM-BUILDING-WAY-349830413","height":9.0},"primitives":[{"attributes":{"POSITION":17,"COLOR_0":2},"indices":6,"mode":4}]},{"name":"OSM-BUILDING-WAY-349830426","extras":{"building_id":"OSM-BUILDING-WAY-349830426","name":"OSM-BUILDING-WAY-349830426","height":9.0},"primitives":[{"attributes":{"POSITION":18,"COLOR_0":2},"indices":6,"mode":4}]},{"name":"OSM-BUILDING-WAY-349830442","extras":{"building_id":"OSM-BUILDING-WAY-349830442","name":"OSM-BUILDING-WAY-349830442","height":9.0},"primitives":[{"attributes":{"POSITION":19,"COLOR_0":2},"indices":4,"mode":4}]},{"name":"OSM-BUILDING-WAY-349830446","extras":{"building_id":"OSM-BUILDING-WAY-349830446","name":"OSM-BUILDING-WAY-349830446","height":9.0},"primitives":[{"attributes":{"POSITION":20,"COLOR_0":2},"indices":4,"mode":4}]},{"name":"OSM-BUILDING-WAY-349830465","extras":{"building_id":"OSM-BUILDING-WAY-349830465","name":"OSM-BUILDING-WAY-349830465","height":9.0},"primitives":[{"attributes":{"POSITION":21,"COLOR_0":2},"indices":6,"mode":4}]},{"name":"OSM-BUILDING-WAY-349830474","extras":{"building_id":"OSM-BUILDING-WAY-349830474","name":"OSM-BUILDING-WAY-349830474","height":9.0},"primitives":[{"attributes":{"POSITION":22,"COLOR_0":2},"indices":6,"mode":4}]},{"name":"OSM-BUILDING-WAY-349830475","extras":{"building_id":"OSM-BUILDING-WAY-349830475","name":"OSM-BUILDING-WAY-349830475","height":9.0},"primitives":[{"attributes":{"POSITION":23,"COLOR_0":2},"indices":6,"mode":4}]},{"name":"OSM-BUILDING-WAY-349830477","extras":{"building_id":"OSM-BUILDING-WAY-349830477","name":"OSM-BUILDING-WAY-349830477","height":9.0},"primitives":[{"attributes":{"POSITION":24,"COLOR_0":2},"indices":6,"mode":4}]},{"name":"OSM-BUILDING-WAY-349830487","extras":{"building_id":"OSM-BUILDING-WAY-349830487","name":"OSM-BUILDING-WAY-349830487","height":9.0},"primitives":[{"attributes":{"POSITION":25,"COLOR_0":2},"indices":6,"mode":4}]},{"name":"OSM-BUILDING-WAY-349830501","extras":{"building_id":"OSM-BUILDING-WAY-349830501","name":"OSM-BUILDING-WAY-349830501","height":9.0},"primitives":[{"attributes":{"POSITION":26,"COLOR_0":2},"indices":4,"mode":4}]},{"name":"OSM-BUILDING-WAY-349830506","extras":{"building_id":"OSM-BUILDING-WAY-349830506","name":"OSM-BUILDING-WAY-349830506","height":9.0},"primitives":[{"attributes":{"POSITION":27,"COLOR_0":2},"indices":4,"mode":4}]},{"name":"OSM-BUILDING-WAY-349830507","extras":{"building_id":"OSM-BUILDING-WAY-349830507","name":"OSM-BUILDING-WAY-349830507","height":9.0},"primitives":[{"attributes":{"POSITION":28,"COLOR_0":2},"indices":4,"mode":4}]},{"name":"OSM-BUILDING-WAY-349830521","extras":{"building_id":"OSM-BUILDING-WAY-349830521","name":"OSM-BUILDING-WAY-349830521","height":9.0},"primitives":[{"attributes":{"POSITION":29,"COLOR_0":2},"indices":6,"mode":4}]},{"name":"OSM-BUILDING-WAY-349830538","extras":{"building_id":"OSM-BUILDING-WAY-349830538","name":"OSM-BUILDING-WAY-349830538","height":9.0},"primitives":[{"attributes":{"POSITION":30,"COLOR_0":2},"indices":6,"mode":4}]},{"name":"OSM-BUILDING-WAY-349830545","extras":{"building_id":"OSM-BUILDING-WAY-349830545","name":"OSM-BUILDING-WAY-349830545","height":9.0},"primitives":[{"attributes":{"POSITION":31,"COLOR_0":2},"indices":4,"mode":4}]},{"name":"OSM-BUILDING-WAY-349830546","extras":{"building_id":"OSM-BUILDING-WAY-349830546","name":"OSM-BUILDING-WAY-349830546","height":9.0},"primitives":[{"attributes":{"POSITION":32,"COLOR_0":2},"indices":6,"mode":4}]},{"name":"OSM-BUILDING-WAY-349830555","extras":{"building_id":"OSM-BUILDING-WAY-349830555","name":"OSM-BUILDING-WAY-349830555","height":9.0},"primitives":[{"attributes":{"POSITION":33,"COLOR_0":2},"indices":6,"mode":4}]},{"name":"OSM-BUILDING-WAY-349830577","extras":{"building_id":"OSM-BUILDING-WAY-349830577","name":"OSM-BUILDING-WAY-349830577","height":9.0},"primitives":[{"attributes":{"POSITION":34,"COLOR_0":2},"indices":6,"mode":4}]},{"name":"OSM-BUILDING-WAY-349830579","extras":{"building_id":"OSM-BUILDING-WAY-349830579","name":"OSM-BUILDING-WAY-349830579","height":9.0},"primitives":[{"attributes":{"POSITION":35,"COLOR_0":2},"indices":6,"mode":4}]},{"name":"OSM-BUILDING-WAY-349830597","extras":{"building_id":"OSM-BUILDING-WAY-349830597","name":"OSM-BUILDING-WAY-349830597","height":9.0},"primitives":[{"attributes":{"POSITION":36,"COLOR_0":2},"indices":4,"mode":4}]},{"name":"OSM-BUILDING-WAY-349830600","extras":{"building_id":"OSM-BUILDING-WAY-349830600","name":"OSM-BUILDING-WAY-349830600","height":9.0},"primitives":[{"attributes":{"POSITION":37,"COLOR_0":2},"indices":4,"mode":4}]},{"name":"OSM-BUILDING-WAY-349830606","extras":{"building_id":"OSM-BUILDING-WAY-349830606","name":"OSM-BUILDING-WAY-349830606","height":9.0},"primitives":[{"attributes":{"POSITION":39,"COLOR_0":40},"indices":38,"mode":4}]},{"name":"OSM-BUILDING-WAY-349984924","extras":{"building_id":"OSM-BUILDING-WAY-349984924","name":"OSM-BUILDING-WAY-349984924","height":9.0},"primitives":[{"attributes":{"POSITION":41,"COLOR_0":2},"indices":4,"mode":4}]},{"name":"OSM-BUILDING-WAY-349984925","extras":{"building_id":"OSM-BUILDING-WAY-349984925","name":"OSM-BUILDING-WAY-349984925","height":9.0},"primitives":[{"attributes":{"POSITION":42,"COLOR_0":2},"indices":4,"mode":4}]},{"name":"OSM-BUILDING-WAY-349984926","extras":{"building_id":"OSM-BUILDING-WAY-349984926","name":"OSM-BUILDING-WAY-349984926","height":9.0},"primitives":[{"attributes":{"POSITION":44,"COLOR_0":2},"indices":43,"mode":4}]},{"name":"OSM-BUILDING-WAY-349984928","extras":{"building_id":"OSM-BUILDING-WAY-349984928","name":"OSM-BUILDING-WAY-349984928","height":9.0},"primitives":[{"attributes":{"POSITION":45,"COLOR_0":2},"indices":4,"mode":4}]},{"name":"OSM-BUILDING-WAY-349984934","extras":{"building_id":"OSM-BUILDING-WAY-349984934","name":"OSM-BUILDING-WAY-349984934","height":9.0},"primitives":[{"attributes":{"POSITION":46,"COLOR_0":2},"indices":4,"mode":4}]},{"name":"OSM-BUILDING-WAY-349984945","extras":{"building_id":"OSM-BUILDING-WAY-349984945","name":"OSM-BUILDING-WAY-349984945","height":9.0},"primitives":[{"attributes":{"POSITION":47,"COLOR_0":2},"indices":6,"mode":4}]},{"name":"OSM-BUILDING-WAY-349984949","extras":{"building_id":"OSM-BUILDING-WAY-349984949","name":"OSM-BUILDING-WAY-349984949","height":9.0},"primitives":[{"attributes":{"POSITION":48,"COLOR_0":2},"indices":4,"mode":4}]},{"name":"OSM-BUILDING-WAY-349984951","extras":{"building_id":"OSM-BUILDING-WAY-349984951","name":"OSM-BUILDING-WAY-349984951","height":9.0},"primitives":[{"attributes":{"POSITION":49,"COLOR_0":2},"indices":4,"mode":4}]},{"name":"OSM-BUILDING-WAY-349984954","extras":{"building_id":"OSM-BUILDING-WAY-349984954","name":"OSM-BUILDING-WAY-349984954","height":9.0},"primitives":[{"attributes":{"POSITION":50,"COLOR_0":2},"indices":6,"mode":4}]},{"name":"OSM-BUILDING-WAY-349984956","extras":{"building_id":"OSM-BUILDING-WAY-349984956","name":"OSM-BUILDING-WAY-349984956","height":9.0},"primitives":[{"attributes":{"POSITION":51,"COLOR_0":2},"indices":43,"mode":4}]},{"name":"OSM-BUILDING-WAY-349984957","extras":{"building_id":"OSM-BUILDING-WAY-349984957","name":"OSM-BUILDING-WAY-349984957","height":9.0},"primitives":[{"attributes":{"POSITION":52,"COLOR_0":2},"indices":4,"mode":4}]},{"name":"OSM-BUILDING-WAY-349984960","extras":{"building_id":"OSM-BUILDING-WAY-349984960","name":"OSM-BUILDING-WAY-349984960","height":9.0},"primitives":[{"attributes":{"POSITION":53,"COLOR_0":2},"indices":6,"mode":4}]},{"name":"OSM-BUILDING-WAY-349984961","extras":{"building_id":"OSM-BUILDING-WAY-349984961","name":"OSM-BUILDING-WAY-349984961","height":9.0},"primitives":[{"attributes":{"POSITION":54,"COLOR_0":2},"indices":4,"mode":4}]},{"name":"OSM-BUILDING-WAY-349984963","extras":{"building_id":"OSM-BUILDING-WAY-349984963","name":"OSM-BUILDING-WAY-349984963","height":9.0},"primitives":[{"attributes":{"POSITION":55,"COLOR_0":2},"indices":6,"mode":4}]},{"name":"OSM-BUILDING-WAY-349984964","extras":{"building_id":"OSM-BUILDING-WAY-349984964","name":"OSM-BUILDING-WAY-349984964","height":9.0},"primitives":[{"attributes":{"POSITION":56,"COLOR_0":2},"indices":43,"mode":4}]},{"name":"OSM-BUILDING-WAY-349984968","extras":{"building_id":"OSM-BUILDING-WAY-349984968","name":"OSM-BUILDING-WAY-349984968","height":9.0},"primitives":[{"attributes":{"POSITION":57,"COLOR_0":2},"indices":6,"mode":4}]},{"name":"OSM-BUILDING-WAY-349984983","extras":{"building_id":"OSM-BUILDING-WAY-349984983","name":"OSM-BUILDING-WAY-349984983","height":9.0},"primitives":[{"attributes":{"POSITION":58,"COLOR_0":2},"indices":43,"mode":4}]},{"name":"OSM-BUILDING-WAY-349984997","extras":{"building_id":"OSM-BUILDING-WAY-349984997","name":"OSM-BUILDING-WAY-349984997","height":9.0},"primitives":[{"attributes":{"POSITION":59,"COLOR_0":2},"indices":6,"mode":4}]},{"name":"OSM-BUILDING-WAY-349984999","extras":{"building_id":"OSM-BUILDING-WAY-349984999","name":"OSM-BUILDING-WAY-349984999","height":9.0},"primitives":[{"attributes":{"POSITION":60,"COLOR_0":2},"indices":43,"mode":4}]},{"name":"OSM-BUILDING-WAY-349985012","extras":{"building_id":"OSM-BUILDING-WAY-349985012","name":"OSM-BUILDING-WAY-349985012","height":9.0},"primitives":[{"attributes":{"POSITION":61,"COLOR_0":2},"indices":43,"mode":4}]},{"name":"OSM-BUILDING-WAY-349985015","extras":{"building_id":"OSM-BUILDING-WAY-349985015","name":"OSM-BUILDING-WAY-349985015","height":9.0},"primitives":[{"attributes":{"POSITION":62,"COLOR_0":2},"indices":43,"mode":4}]},{"name":"OSM-BUILDING-WAY-349985017","extras":{"building_id":"OSM-BUILDING-WAY-349985017","name":"OSM-BUILDING-WAY-349985017","height":9.0},"primitives":[{"attributes":{"POSITION":63,"COLOR_0":2},"indices":6,"mode":4}]},{"name":"OSM-BUILDING-WAY-349985019","extras":{"building_id":"OSM-BUILDING-WAY-349985019","name":"OSM-BUILDING-WAY-349985019","height":9.0},"primitives":[{"attributes":{"POSITION":64,"COLOR_0":2},"indices":6,"mode":4}]},{"name":"OSM-BUILDING-WAY-349985020","extras":{"building_id":"OSM-BUILDING-WAY-349985020","name":"OSM-BUILDING-WAY-349985020","height":9.0},"primitives":[{"attributes":{"POSITION":65,"COLOR_0":2},"indices":6,"mode":4}]},{"name":"OSM-BUILDING-WAY-349985024","extras":{"building_id":"OSM-BUILDING-WAY-349985024","name":"OSM-BUILDING-WAY-349985024","height":9.0},"primitives":[{"attributes":{"POSITION":66,"COLOR_0":2},"indices":6,"mode":4}]},{"name":"OSM-BUILDING-WAY-349985027","extras":{"building_id":"OSM-BUILDING-WAY-349985027","name":"OSM-BUILDING-WAY-349985027","height":9.0},"primitives":[{"attributes":{"POSITION":67,"COLOR_0":2},"indices":6,"mode":4}]},{"name":"OSM-BUILDING-WAY-349985037","extras":{"building_id":"OSM-BUILDING-WAY-349985037","name":"OSM-BUILDING-WAY-349985037","height":9.0},"primitives":[{"attributes":{"POSITION":68,"COLOR_0":2},"indices":6,"mode":4}]},{"name":"OSM-BUILDING-WAY-349985040","extras":{"building_id":"OSM-BUILDING-WAY-349985040","name":"OSM-BUILDING-WAY-349985040","height":9.0},"primitives":[{"attributes":{"POSITION":69,"COLOR_0":2},"indices":43,"mode":4}]},{"name":"OSM-BUILDING-WAY-349985048","extras":{"building_id":"OSM-BUILDING-WAY-349985048","name":"OSM-BUILDING-WAY-349985048","height":9.0},"primitives":[{"attributes":{"POSITION":71,"COLOR_0":2},"indices":70,"mode":4}]},{"name":"OSM-BUILDING-WAY-349985054","extras":{"building_id":"OSM-BUILDING-WAY-349985054","name":"OSM-BUILDING-WAY-349985054","height":9.0},"primitives":[{"attributes":{"POSITION":72,"COLOR_0":2},"indices":0,"mode":4}]},{"name":"OSM-BUILDING-WAY-349985055","extras":{"building_id":"OSM-BUILDING-WAY-349985055","name":"OSM-BUILDING-WAY-349985055","height":9.0},"primitives":[{"attributes":{"POSITION":73,"COLOR_0":2},"indices":4,"mode":4}]},{"name":"OSM-BUILDING-WAY-349985066","extras":{"building_id":"OSM-BUILDING-WAY-349985066","name":"OSM-BUILDING-WAY-349985066","height":9.0},"primitives":[{"attributes":{"POSITION":74,"COLOR_0":2},"indices":43,"mode":4}]},{"name":"OSM-BUILDING-WAY-349985071","extras":{"building_id":"OSM-BUILDING-WAY-349985071","name":"OSM-BUILDING-WAY-349985071","height":9.0},"primitives":[{"attributes":{"POSITION":75,"COLOR_0":2},"indices":6,"mode":4}]},{"name":"OSM-BUILDING-WAY-349985074","extras":{"building_id":"OSM-BUILDING-WAY-349985074","name":"OSM-BUILDING-WAY-349985074","height":9.0},"primitives":[{"attributes":{"POSITION":76,"COLOR_0":2},"indices":6,"mode":4}]},{"name":"OSM-BUILDING-WAY-349985075","extras":{"building_id":"OSM-BUILDING-WAY-349985075","name":"OSM-BUILDING-WAY-349985075","height":9.0},"primitives":[{"attributes":{"POSITION":77,"COLOR_0":2},"indices":6,"mode":4}]},{"name":"OSM-BUILDING-WAY-349985080","extras":{"building_id":"OSM-BUILDING-WAY-349985080","name":"OSM-BUILDING-WAY-349985080","height":9.0},"primitives":[{"attributes":{"POSITION":78,"COLOR_0":2},"indices":6,"mode":4}]},{"name":"OSM-BUILDING-WAY-349985081","extras":{"building_id":"OSM-BUILDING-WAY-349985081","name":"OSM-BUILDING-WAY-349985081","height":9.0},"primitives":[{"attributes":{"POSITION":79,"COLOR_0":2},"indices":4,"mode":4}]},{"name":"OSM-BUILDING-WAY-349985082","extras":{"building_id":"OSM-BUILDING-WAY-349985082","name":"OSM-BUILDING-WAY-349985082","height":9.0},"primitives":[{"attributes":{"POSITION":80,"COLOR_0":2},"indices":4,"mode":4}]},{"name":"OSM-BUILDING-WAY-349985086","extras":{"building_id":"OSM-BUILDING-WAY-349985086","name":"OSM-BUILDING-WAY-349985086","height":9.0},"primitives":[{"attributes":{"POSITION":81,"COLOR_0":2},"indices":6,"mode":4}]},{"name":"OSM-BUILDING-WAY-349985087","extras":{"building_id":"OSM-BUILDING-WAY-349985087","name":"OSM-BUILDING-WAY-349985087","height":9.0},"primitives":[{"attributes":{"POSITION":82,"COLOR_0":2},"indices":43,"mode":4}]},{"name":"OSM-BUILDING-WAY-349985088","extras":{"building_id":"OSM-BUILDING-WAY-349985088","name":"OSM-BUILDING-WAY-349985088","height":9.0},"primitives":[{"attributes":{"POSITION":83,"COLOR_0":2},"indices":6,"mode":4}]},{"name":"OSM-BUILDING-WAY-349985089","extras":{"building_id":"OSM-BUILDING-WAY-349985089","name":"OSM-BUILDING-WAY-349985089","height":9.0},"primitives":[{"attributes":{"POSITION":84,"COLOR_0":2},"indices":4,"mode":4}]},{"name":"OSM-BUILDING-WAY-349985091","extras":{"building_id":"OSM-BUILDING-WAY-349985091","name":"OSM-BUILDING-WAY-349985091","height":9.0},"primitives":[{"attributes":{"POSITION":85,"COLOR_0":2},"indices":6,"mode":4}]},{"name":"OSM-BUILDING-WAY-349985092","extras":{"building_id":"OSM-BUILDING-WAY-349985092","name":"OSM-BUILDING-WAY-349985092","height":9.0},"primitives":[{"attributes":{"POSITION":86,"COLOR_0":2},"indices":6,"mode":4}]},{"name":"OSM-BUILDING-WAY-349985094","extras":{"building_id":"OSM-BUILDING-WAY-349985094","name":"OSM-BUILDING-WAY-349985094","height":9.0},"primitives":[{"attributes":{"POSITION":87,"COLOR_0":2},"indices":6,"mode":4}]},{"name":"OSM-BUILDING-WAY-349985098","extras":{"building_id":"OSM-BUILDING-WAY-349985098","name":"OSM-BUILDING-WAY-349985098","height":9.0},"primitives":[{"attributes":{"POSITION":88,"COLOR_0":2},"indices":43,"mode":4}]},{"name":"OSM-BUILDING-WAY-349985101","extras":{"building_id":"OSM-BUILDING-WAY-349985101","name":"OSM-BUILDING-WAY-349985101","height":9.0},"primitives":[{"attributes":{"POSITION":89,"COLOR_0":2},"indices":6,"mode":4}]},{"name":"OSM-BUILDING-WAY-349985103","extras":{"building_id":"OSM-BUILDING-WAY-349985103","name":"OSM-BUILDING-WAY-349985103","height":9.0},"primitives":[{"attributes":{"POSITION":90,"COLOR_0":2},"indices":43,"mode":4}]},{"name":"OSM-BUILDING-WAY-349985105","extras":{"building_id":"OSM-BUILDING-WAY-349985105","name":"OSM-BUILDING-WAY-349985105","height":9.0},"primitives":[{"attributes":{"POSITION":91,"COLOR_0":2},"indices":6,"mode":4}]},{"name":"OSM-BUILDING-WAY-349985109","extras":{"building_id":"OSM-BUILDING-WAY-349985109","name":"OSM-BUILDING-WAY-349985109","height":9.0},"primitives":[{"attributes":{"POSITION":92,"COLOR_0":2},"indices":6,"mode":4}]},{"name":"OSM-BUILDING-WAY-349985111","extras":{"building_id":"OSM-BUILDING-WAY-349985111","name":"OSM-BUILDING-WAY-349985111","height":9.0},"primitives":[{"attributes":{"POSITION":93,"COLOR_0":2},"indices":6,"mode":4}]},{"name":"OSM-BUILDING-WAY-349985112","extras":{"building_id":"OSM-BUILDING-WAY-349985112","name":"OSM-BUILDING-WAY-349985112","height":9.0},"primitives":[{"attributes":{"POSITION":94,"COLOR_0":2},"indices":43,"mode":4}]},{"name":"OSM-BUILDING-WAY-349985115","extras":{"building_id":"OSM-BUILDING-WAY-349985115","name":"OSM-BUILDING-WAY-349985115","height":9.0},"primitives":[{"attributes":{"POSITION":95,"COLOR_0":2},"indices":4,"mode":4}]},{"name":"OSM-BUILDING-WAY-349985117","extras":{"building_id":"OSM-BUILDING-WAY-349985117","name":"OSM-BUILDING-WAY-349985117","height":9.0},"primitives":[{"attributes":{"POSITION":96,"COLOR_0":2},"indices":6,"mode":4}]},{"name":"OSM-BUILDING-WAY-349985119","extras":{"building_id":"OSM-BUILDING-WAY-349985119","name":"OSM-BUILDING-WAY-349985119","height":9.0},"primitives":[{"attributes":{"POSITION":97,"COLOR_0":2},"indices":6,"mode":4}]},{"name":"OSM-BUILDING-WAY-349985120","extras":{"building_id":"OSM-BUILDING-WAY-349985120","name":"OSM-BUILDING-WAY-349985120","height":9.0},"primitives":[{"attributes":{"POSITION":98,"COLOR_0":2},"indices":6,"mode":4}]},{"name":"OSM-BUILDING-WAY-349985122","extras":{"building_id":"OSM-BUILDING-WAY-349985122","name":"OSM-BUILDING-WAY-349985122","height":9.0},"primitives":[{"attributes":{"POSITION":99,"COLOR_0":2},"indices":6,"mode":4}]},{"name":"OSM-BUILDING-WAY-349985123","extras":{"building_id":"OSM-BUILDING-WAY-349985123","name":"OSM-BUILDING-WAY-349985123","height":9.0},"primitives":[{"attributes":{"POSITION":100,"COLOR_0":2},"indices":4,"mode":4}]},{"name":"OSM-BUILDING-WAY-349985124","extras":{"building_id":"OSM-BUILDING-WAY-349985124","name":"OSM-BUILDING-WAY-349985124","height":9.0},"primitives":[{"attributes":{"POSITION":101,"COLOR_0":2},"indices":6,"mode":4}]},{"name":"OSM-BUILDING-WAY-349985127","extras":{"building_id":"OSM-BUILDING-WAY-349985127","name":"OSM-BUILDING-WAY-349985127","height":9.0},"primitives":[{"attributes":{"POSITION":102,"COLOR_0":2},"indices":6,"mode":4}]},{"name":"OSM-BUILDING-WAY-349985128","extras":{"building_id":"OSM-BUILDING-WAY-349985128","name":"OSM-BUILDING-WAY-349985128","height":9.0},"primitives":[{"attributes":{"POSITION":103,"COLOR_0":2},"indices":43,"mode":4}]},{"name":"OSM-BUILDING-WAY-349985129","extras":{"building_id":"OSM-BUILDING-WAY-349985129","name":"OSM-BUILDING-WAY-349985129","height":9.0},"primitives":[{"attributes":{"POSITION":104,"COLOR_0":2},"indices":6,"mode":4}]},{"name":"OSM-BUILDING-WAY-349985130","extras":{"building_id":"OSM-BUILDING-WAY-349985130","name":"OSM-BUILDING-WAY-349985130","height":9.0},"primitives":[{"attributes":{"POSITION":105,"COLOR_0":2},"indices":43,"mode":4}]},{"name":"OSM-BUILDING-WAY-349985136","extras":{"building_id":"OSM-BUILDING-WAY-349985136","name":"OSM-BUILDING-WAY-349985136","height":9.0},"primitives":[{"attributes":{"POSITION":106,"COLOR_0":2},"indices":4,"mode":4}]},{"name":"OSM-BUILDING-WAY-349985142","extras":{"building_id":"OSM-BUILDING-WAY-349985142","name":"OSM-BUILDING-WAY-349985142","height":9.0},"primitives":[{"attributes":{"POSITION":107,"COLOR_0":2},"indices":6,"mode":4}]},{"name":"OSM-BUILDING-WAY-349985147","extras":{"building_id":"OSM-BUILDING-WAY-349985147","name":"OSM-BUILDING-WAY-349985147","height":9.0},"primitives":[{"attributes":{"POSITION":108,"COLOR_0":2},"indices":43,"mode":4}]},{"name":"OSM-BUILDING-WAY-349985149","extras":{"building_id":"OSM-BUILDING-WAY-349985149","name":"OSM-BUILDING-WAY-349985149","height":9.0},"primitives":[{"attributes":{"POSITION":109,"COLOR_0":2},"indices":43,"mode":4}]},{"name":"OSM-BUILDING-WAY-349985169","extras":{"building_id":"OSM-BUILDING-WAY-349985169","name":"OSM-BUILDING-WAY-349985169","height":9.0},"primitives":[{"attributes":{"POSITION":110,"COLOR_0":2},"indices":6,"mode":4}]},{"name":"OSM-BUILDING-WAY-349985190","extras":{"building_id":"OSM-BUILDING-WAY-349985190","name":"OSM-BUILDING-WAY-349985190","height":9.0},"primitives":[{"attributes":{"POSITION":111,"COLOR_0":2},"indices":6,"mode":4}]},{"name":"OSM-BUILDING-WAY-349985198","extras":{"building_id":"OSM-BUILDING-WAY-349985198","name":"OSM-BUILDING-WAY-349985198","height":9.0},"primitives":[{"attributes":{"POSITION":112,"COLOR_0":2},"indices":6,"mode":4}]},{"name":"OSM-BUILDING-WAY-349985200","extras":{"building_id":"OSM-BUILDING-WAY-349985200","name":"OSM-BUILDING-WAY-349985200","height":9.0},"primitives":[{"attributes":{"POSITION":113,"COLOR_0":2},"indices":6,"mode":4}]},{"name":"OSM-BUILDING-WAY-349985204","extras":{"building_id":"OSM-BUILDING-WAY-349985204","name":"OSM-BUILDING-WAY-349985204","height":9.0},"primitives":[{"attributes":{"POSITION":114,"COLOR_0":2},"indices":6,"mode":4}]},{"name":"OSM-BUILDING-WAY-349985206","extras":{"building_id":"OSM-BUILDING-WAY-349985206","name":"OSM-BUILDING-WAY-349985206","height":9.0},"primitives":[{"attributes":{"POSITION":115,"COLOR_0":2},"indices":4,"mode":4}]},{"name":"OSM-BUILDING-WAY-349985223","extras":{"building_id":"OSM-BUILDING-WAY-349985223","name":"OSM-BUILDING-WAY-349985223","height":9.0},"primitives":[{"attributes":{"POSITION":116,"COLOR_0":2},"indices":6,"mode":4}]},{"name":"OSM-BUILDING-WAY-349985228","extras":{"building_id":"OSM-BUILDING-WAY-349985228","name":"OSM-BUILDING-WAY-349985228","height":9.0},"primitives":[{"attributes":{"POSITION":117,"COLOR_0":2},"indices":6,"mode":4}]},{"name":"OSM-BUILDING-WAY-349985236","extras":{"building_id":"OSM-BUILDING-WAY-349985236","name":"OSM-BUILDING-WAY-349985236","height":9.0},"primitives":[{"attributes":{"POSITION":118,"COLOR_0":2},"indices":6,"mode":4}]},{"name":"OSM-BUILDING-WAY-349985239","extras":{"building_id":"OSM-BUILDING-WAY-349985239","name":"OSM-BUILDING-WAY-349985239","height":9.0},"primitives":[{"attributes":{"POSITION":119,"COLOR_0":2},"indices":6,"mode":4}]},{"name":"OSM-BUILDING-WAY-349985248","extras":{"building_id":"OSM-BUILDING-WAY-349985248","name":"OSM-BUILDING-WAY-349985248","height":9.0},"primitives":[{"attributes":{"POSITION":120,"COLOR_0":2},"indices":6,"mode":4}]},{"name":"OSM-BUILDING-WAY-349985252","extras":{"building_id":"OSM-BUILDING-WAY-349985252","name":"OSM-BUILDING-WAY-349985252","height":9.0},"primitives":[{"attributes":{"POSITION":121,"COLOR_0":2},"indices":6,"mode":4}]},{"name":"OSM-BUILDING-WAY-349985269","extras":{"building_id":"OSM-BUILDING-WAY-349985269","name":"OSM-BUILDING-WAY-349985269","height":9.0},"primitives":[{"attributes":{"POSITION":122,"COLOR_0":2},"indices":4,"mode":4}]},{"name":"OSM-BUILDING-WAY-349985279","extras":{"building_id":"OSM-BUILDING-WAY-349985279","name":"OSM-BUILDING-WAY-349985279","height":9.0},"primitives":[{"attributes":{"POSITION":123,"COLOR_0":2},"indices":14,"mode":4}]},{"name":"OSM-BUILDING-WAY-349985285","extras":{"building_id":"OSM-BUILDING-WAY-349985285","name":"OSM-BUILDING-WAY-349985285","height":9.0},"primitives":[{"attributes":{"POSITION":124,"COLOR_0":2},"indices":43,"mode":4}]},{"name":"OSM-BUILDING-WAY-349985290","extras":{"building_id":"OSM-BUILDING-WAY-349985290","name":"OSM-BUILDING-WAY-349985290","height":9.0},"primitives":[{"attributes":{"POSITION":125,"COLOR_0":2},"indices":6,"mode":4}]},{"name":"OSM-BUILDING-WAY-349985294","extras":{"building_id":"OSM-BUILDING-WAY-349985294","name":"OSM-BUILDING-WAY-349985294","height":9.0},"primitives":[{"attributes":{"POSITION":126,"COLOR_0":2},"indices":4,"mode":4}]},{"name":"OSM-BUILDING-WAY-349985321","extras":{"building_id":"OSM-BUILDING-WAY-349985321","name":"OSM-BUILDING-WAY-349985321","height":9.0},"primitives":[{"attributes":{"POSITION":127,"COLOR_0":2},"indices":43,"mode":4}]},{"name":"OSM-BUILDING-WAY-349985327","extras":{"building_id":"OSM-BUILDING-WAY-349985327","name":"OSM-BUILDING-WAY-349985327","height":9.0},"primitives":[{"attributes":{"POSITION":128,"COLOR_0":2},"indices":6,"mode":4}]},{"name":"OSM-BUILDING-WAY-349985331","extras":{"building_id":"OSM-BUILDING-WAY-349985331","name":"OSM-BUILDING-WAY-349985331","height":9.0},"primitives":[{"attributes":{"POSITION":129,"COLOR_0":2},"indices":43,"mode":4}]},{"name":"OSM-BUILDING-WAY-349985339","extras":{"building_id":"OSM-BUILDING-WAY-349985339","name":"OSM-BUILDING-WAY-349985339","height":9.0},"primitives":[{"attributes":{"POSITION":130,"COLOR_0":2},"indices":6,"mode":4}]},{"name":"OSM-BUILDING-WAY-349985344","extras":{"building_id":"OSM-BUILDING-WAY-349985344","name":"OSM-BUILDING-WAY-349985344","height":9.0},"primitives":[{"attributes":{"POSITION":131,"COLOR_0":2},"indices":4,"mode":4}]},{"name":"OSM-BUILDING-WAY-349985354","extras":{"building_id":"OSM-BUILDING-WAY-349985354","name":"OSM-BUILDING-WAY-349985354","height":9.0},"primitives":[{"attributes":{"POSITION":132,"COLOR_0":2},"indices":4,"mode":4}]},{"name":"OSM-BUILDING-WAY-349985362","extras":{"building_id":"OSM-BUILDING-WAY-349985362","name":"OSM-BUILDING-WAY-349985362","height":9.0},"primitives":[{"attributes":{"POSITION":133,"COLOR_0":2},"indices":4,"mode":4}]},{"name":"OSM-BUILDING-WAY-349985364","extras":{"building_id":"OSM-BUILDING-WAY-349985364","name":"OSM-BUILDING-WAY-349985364","height":9.0},"primitives":[{"attributes":{"POSITION":134,"COLOR_0":2},"indices":4,"mode":4}]},{"name":"OSM-BUILDING-WAY-349985366","extras":{"building_id":"OSM-BUILDING-WAY-349985366","name":"OSM-BUILDING-WAY-349985366","height":9.0},"primitives":[{"attributes":{"POSITION":135,"COLOR_0":2},"indices":6,"mode":4}]},{"name":"OSM-BUILDING-WAY-349985375","extras":{"building_id":"OSM-BUILDING-WAY-349985375","name":"OSM-BUILDING-WAY-349985375","height":9.0},"primitives":[{"attributes":{"POSITION":136,"COLOR_0":2},"indices":6,"mode":4}]},{"name":"OSM-BUILDING-WAY-349985379","extras":{"building_id":"OSM-BUILDING-WAY-349985379","name":"OSM-BUILDING-WAY-349985379","height":9.0},"primitives":[{"attributes":{"POSITION":137,"COLOR_0":2},"indices":4,"mode":4}]},{"name":"OSM-BUILDING-WAY-349985383","extras":{"building_id":"OSM-BUILDING-WAY-349985383","name":"OSM-BUILDING-WAY-349985383","height":9.0},"primitives":[{"attributes":{"POSITION":138,"COLOR_0":2},"indices":4,"mode":4}]},{"name":"OSM-BUILDING-WAY-349985389","extras":{"building_id":"OSM-BUILDING-WAY-349985389","name":"OSM-BUILDING-WAY-349985389","height":9.0},"primitives":[{"attributes":{"POSITION":139,"COLOR_0":2},"indices":4,"mode":4}]},{"name":"OSM-BUILDING-WAY-349985393","extras":{"building_id":"OSM-BUILDING-WAY-349985393","name":"OSM-BUILDING-WAY-349985393","height":9.0},"primitives":[{"attributes":{"POSITION":140,"COLOR_0":2},"indices":43,"mode":4}]},{"name":"OSM-BUILDING-WAY-349985395","extras":{"building_id":"OSM-BUILDING-WAY-349985395","name":"OSM-BUILDING-WAY-349985395","height":9.0},"primitives":[{"attributes":{"POSITION":141,"COLOR_0":2},"indices":4,"mode":4}]},{"name":"OSM-BUILDING-WAY-349985401","extras":{"building_id":"OSM-BUILDING-WAY-349985401","name":"OSM-BUILDING-WAY-349985401","height":9.0},"primitives":[{"attributes":{"POSITION":142,"COLOR_0":2},"indices":0,"mode":4}]},{"name":"OSM-BUILDING-WAY-349985405","extras":{"building_id":"OSM-BUILDING-WAY-349985405","name":"OSM-BUILDING-WAY-349985405","height":9.0},"primitives":[{"attributes":{"POSITION":143,"COLOR_0":2},"indices":6,"mode":4}]},{"name":"OSM-BUILDING-WAY-349985421","extras":{"building_id":"OSM-BUILDING-WAY-349985421","name":"OSM-BUILDING-WAY-349985421","height":9.0},"primitives":[{"attributes":{"POSITION":144,"COLOR_0":2},"indices":6,"mode":4}]},{"name":"OSM-BUILDING-WAY-349985433","extras":{"building_id":"OSM-BUILDING-WAY-349985433","name":"OSM-BUILDING-WAY-349985433","height":9.0},"primitives":[{"attributes":{"POSITION":145,"COLOR_0":2},"indices":4,"mode":4}]},{"name":"OSM-BUILDING-WAY-349985438","extras":{"building_id":"OSM-BUILDING-WAY-349985438","name":"OSM-BUILDING-WAY-349985438","height":9.0},"primitives":[{"attributes":{"POSITION":146,"COLOR_0":2},"indices":6,"mode":4}]},{"name":"OSM-BUILDING-WAY-349985439","extras":{"building_id":"OSM-BUILDING-WAY-349985439","name":"OSM-BUILDING-WAY-349985439","height":9.0},"primitives":[{"attributes":{"POSITION":147,"COLOR_0":2},"indices":4,"mode":4}]},{"name":"OSM-BUILDING-WAY-349985441","extras":{"building_id":"OSM-BUILDING-WAY-349985441","name":"OSM-BUILDING-WAY-349985441","height":9.0},"primitives":[{"attributes":{"POSITION":148,"COLOR_0":2},"indices":6,"mode":4}]},{"name":"OSM-BUILDING-WAY-349985443","extras":{"building_id":"OSM-BUILDING-WAY-349985443","name":"OSM-BUILDING-WAY-349985443","height":9.0},"primitives":[{"attributes":{"POSITION":149,"COLOR_0":2},"indices":6,"mode":4}]},{"name":"OSM-BUILDING-WAY-349985444","extras":{"building_id":"OSM-BUILDING-WAY-349985444","name":"OSM-BUILDING-WAY-349985444","height":9.0},"primitives":[{"attributes":{"POSITION":150,"COLOR_0":2},"indices":43,"mode":4}]},{"name":"OSM-BUILDING-WAY-349985448","extras":{"building_id":"OSM-BUILDING-WAY-349985448","name":"OSM-BUILDING-WAY-349985448","height":9.0},"primitives":[{"attributes":{"POSITION":151,"COLOR_0":2},"indices":43,"mode":4}]},{"name":"OSM-BUILDING-WAY-349985456","extras":{"building_id":"OSM-BUILDING-WAY-349985456","name":"OSM-BUILDING-WAY-349985456","height":9.0},"primitives":[{"attributes":{"POSITION":152,"COLOR_0":2},"indices":6,"mode":4}]},{"name":"OSM-BUILDING-WAY-349985461","extras":{"building_id":"OSM-BUILDING-WAY-349985461","name":"OSM-BUILDING-WAY-349985461","height":9.0},"primitives":[{"attributes":{"POSITION":153,"COLOR_0":2},"indices":6,"mode":4}]},{"name":"OSM-BUILDING-WAY-349985469","extras":{"building_id":"OSM-BUILDING-WAY-349985469","name":"OSM-BUILDING-WAY-349985469","height":9.0},"primitives":[{"attributes":{"POSITION":154,"COLOR_0":2},"indices":6,"mode":4}]},{"name":"OSM-BUILDING-WAY-349985471","extras":{"building_id":"OSM-BUILDING-WAY-349985471","name":"OSM-BUILDING-WAY-349985471","height":9.0},"primitives":[{"attributes":{"POSITION":155,"COLOR_0":2},"indices":6,"mode":4}]},{"name":"OSM-BUILDING-WAY-349985474","extras":{"building_id":"OSM-BUILDING-WAY-349985474","name":"OSM-BUILDING-WAY-349985474","height":9.0},"primitives":[{"attributes":{"POSITION":156,"COLOR_0":2},"indices":6,"mode":4}]},{"name":"OSM-BUILDING-WAY-349985475","extras":{"building_id":"OSM-BUILDING-WAY-349985475","name":"OSM-BUILDING-WAY-349985475","height":9.0},"primitives":[{"attributes":{"POSITION":157,"COLOR_0":2},"indices":6,"mode":4}]},{"name":"OSM-BUILDING-WAY-349985476","extras":{"building_id":"OSM-BUILDING-WAY-349985476","name":"OSM-BUILDING-WAY-349985476","height":9.0},"primitives":[{"attributes":{"POSITION":158,"COLOR_0":2},"indices":6,"mode":4}]},{"name":"OSM-BUILDING-WAY-349985478","extras":{"building_id":"OSM-BUILDING-WAY-349985478","name":"OSM-BUILDING-WAY-349985478","height":9.0},"primitives":[{"attributes":{"POSITION":159,"COLOR_0":2},"indices":6,"mode":4}]},{"name":"OSM-BUILDING-WAY-349985479","extras":{"building_id":"OSM-BUILDING-WAY-349985479","name":"OSM-BUILDING-WAY-349985479","height":9.0},"primitives":[{"attributes":{"POSITION":160,"COLOR_0":2},"indices":6,"mode":4}]},{"name":"OSM-BUILDING-WAY-349985480","extras":{"building_id":"OSM-BUILDING-WAY-349985480","name":"OSM-BUILDING-WAY-349985480","height":9.0},"primitives":[{"attributes":{"POSITION":161,"COLOR_0":2},"indices":6,"mode":4}]},{"name":"OSM-BUILDING-WAY-349985484","extras":{"building_id":"OSM-BUILDING-WAY-349985484","name":"OSM-BUILDING-WAY-349985484","height":9.0},"primitives":[{"attributes":{"POSITION":163,"COLOR_0":40},"indices":162,"mode":4}]},{"name":"OSM-BUILDING-WAY-349985485","extras":{"building_id":"OSM-BUILDING-WAY-349985485","name":"OSM-BUILDING-WAY-349985485","height":9.0},"primitives":[{"attributes":{"POSITION":164,"COLOR_0":40},"indices":162,"mode":4}]},{"name":"OSM-BUILDING-WAY-349985487","extras":{"building_id":"OSM-BUILDING-WAY-349985487","name":"OSM-BUILDING-WAY-349985487","height":9.0},"primitives":[{"attributes":{"POSITION":166,"COLOR_0":167},"indices":165,"mode":4}]}],"nodes":[{"name":"OSM-BUILDING-REL-16318240","mesh":1},{"name":"OSM-BUILDING-WAY-349830327","mesh":2},{"name":"OSM-BUILDING-WAY-349830338","mesh":3},{"name":"OSM-BUILDING-WAY-349830348","mesh":4},{"name":"OSM-BUILDING-WAY-349830351","mesh":5},{"name":"OSM-BUILDING-WAY-349830378","mesh":6},{"name":"OSM-BUILDING-WAY-349830381","mesh":7},{"name":"OSM-BUILDING-WAY-349830385","mesh":8},{"name":"OSM-BUILDING-WAY-349830389","mesh":9},{"name":"OSM-BUILDING-WAY-349830396","mesh":10},{"name":"OSM-BUILDING-WAY-349830397","mesh":11},{"name":"OSM-BUILDING-WAY-349830413","mesh":12},{"name":"OSM-BUILDING-WAY-349830426","mesh":13},{"name":"OSM-BUILDING-WAY-349830442","mesh":14},{"name":"OSM-BUILDING-WAY-349830446","mesh":15},{"name":"OSM-BUILDING-WAY-349830465","mesh":16},{"name":"OSM-BUILDING-WAY-349830474","mesh":17},{"name":"OSM-BUILDING-WAY-349830475","mesh":18},{"name":"OSM-BUILDING-WAY-349830477","mesh":19},{"name":"OSM-BUILDING-WAY-349830487","mesh":20},{"name":"OSM-BUILDING-WAY-349830501","mesh":21},{"name":"OSM-BUILDING-WAY-349830506","mesh":22},{"name":"OSM-BUILDING-WAY-349830507","mesh":23},{"name":"OSM-BUILDING-WAY-349830521","mesh":24},{"name":"OSM-BUILDING-WAY-349830538","mesh":25},{"name":"OSM-BUILDING-WAY-349830545","mesh":26},{"name":"OSM-BUILDING-WAY-349830546","mesh":27},{"name":"OSM-BUILDING-WAY-349830555","mesh":28},{"name":"OSM-BUILDING-WAY-349830577","mesh":29},{"name":"OSM-BUILDING-WAY-349830579","mesh":30},{"name":"OSM-BUILDING-WAY-349830597","mesh":31},{"name":"OSM-BUILDING-WAY-349830600","mesh":32},{"name":"OSM-BUILDING-WAY-349830606","mesh":33},{"name":"OSM-BUILDING-WAY-349984924","mesh":34},{"name":"OSM-BUILDING-WAY-349984925","mesh":35},{"name":"OSM-BUILDING-WAY-349984926","mesh":36},{"name":"OSM-BUILDING-WAY-349984928","mesh":37},{"name":"OSM-BUILDING-WAY-349984934","mesh":38},{"name":"OSM-BUILDING-WAY-349984945","mesh":39},{"name":"OSM-BUILDING-WAY-349984949","mesh":40},{"name":"OSM-BUILDING-WAY-349984951","mesh":41},{"name":"OSM-BUILDING-WAY-349984954","mesh":42},{"name":"OSM-BUILDING-WAY-349984956","mesh":43},{"name":"OSM-BUILDING-WAY-349984957","mesh":44},{"name":"OSM-BUILDING-WAY-349984960","mesh":45},{"name":"OSM-BUILDING-WAY-349984961","mesh":46},{"name":"OSM-BUILDING-WAY-349984963","mesh":47},{"name":"OSM-BUILDING-WAY-349984964","mesh":48},{"name":"OSM-BUILDING-WAY-349984968","mesh":49},{"name":"OSM-BUILDING-WAY-349984983","mesh":50},{"name":"OSM-BUILDING-WAY-349984997","mesh":51},{"name":"OSM-BUILDING-WAY-349984999","mesh":52},{"name":"OSM-BUILDING-WAY-349985012","mesh":53},{"name":"OSM-BUILDING-WAY-349985015","mesh":54},{"name":"OSM-BUILDING-WAY-349985017","mesh":55},{"name":"OSM-BUILDING-WAY-349985019","mesh":56},{"name":"OSM-BUILDING-WAY-349985020","mesh":57},{"name":"OSM-BUILDING-WAY-349985024","mesh":58},{"name":"OSM-BUILDING-WAY-349985027","mesh":59},{"name":"OSM-BUILDING-WAY-349985037","mesh":60},{"name":"OSM-BUILDING-WAY-349985040","mesh":61},{"name":"OSM-BUILDING-WAY-349985048","mesh":62},{"name":"OSM-BUILDING-WAY-349985054","mesh":63},{"name":"OSM-BUILDING-WAY-349985055","mesh":64},{"name":"OSM-BUILDING-WAY-349985066","mesh":65},{"name":"OSM-BUILDING-WAY-349985071","mesh":66},{"name":"OSM-BUILDING-WAY-349985074","mesh":67},{"name":"OSM-BUILDING-WAY-349985075","mesh":68},{"name":"OSM-BUILDING-WAY-349985080","mesh":69},{"name":"OSM-BUILDING-WAY-349985081","mesh":70},{"name":"OSM-BUILDING-WAY-349985082","mesh":71},{"name":"OSM-BUILDING-WAY-349985086","mesh":72},{"name":"OSM-BUILDING-WAY-349985087","mesh":73},{"name":"OSM-BUILDING-WAY-349985088","mesh":74},{"name":"OSM-BUILDING-WAY-349985089","mesh":75},{"name":"OSM-BUILDING-WAY-349985091","mesh":76},{"name":"OSM-BUILDING-WAY-349985092","mesh":77},{"name":"OSM-BUILDING-WAY-349985094","mesh":78},{"name":"OSM-BUILDING-WAY-349985098","mesh":79},{"name":"OSM-BUILDING-WAY-349985101","mesh":80},{"name":"OSM-BUILDING-WAY-349985103","mesh":81},{"name":"OSM-BUILDING-WAY-349985105","mesh":82},{"name":"OSM-BUILDING-WAY-349985109","mesh":83},{"name":"OSM-BUILDING-WAY-349985111","mesh":84},{"name":"OSM-BUILDING-WAY-349985112","mesh":85},{"name":"OSM-BUILDING-WAY-349985115","mesh":86},{"name":"OSM-BUILDING-WAY-349985117","mesh":87},{"name":"OSM-BUILDING-WAY-349985119","mesh":88},{"name":"OSM-BUILDING-WAY-349985120","mesh":89},{"name":"OSM-BUILDING-WAY-349985122","mesh":90},{"name":"OSM-BUILDING-WAY-349985123","mesh":91},{"name":"OSM-BUILDING-WAY-349985124","mesh":92},{"name":"OSM-BUILDING-WAY-349985127","mesh":93},{"name":"OSM-BUILDING-WAY-349985128","mesh":94},{"name":"OSM-BUILDING-WAY-349985129","mesh":95},{"name":"OSM-BUILDING-WAY-349985130","mesh":96},{"name":"OSM-BUILDING-WAY-349985136","mesh":97},{"name":"OSM-BUILDING-WAY-349985142","mesh":98},{"name":"OSM-BUILDING-WAY-349985147","mesh":99},{"name":"OSM-BUILDING-WAY-349985149","mesh":100},{"name":"OSM-BUILDING-WAY-349985169","mesh":101},{"name":"OSM-BUILDING-WAY-349985190","mesh":102},{"name":"OSM-BUILDING-WAY-349985198","mesh":103},{"name":"OSM-BUILDING-WAY-349985200","mesh":104},{"name":"OSM-BUILDING-WAY-349985204","mesh":105},{"name":"OSM-BUILDING-WAY-349985206","mesh":106},{"name":"OSM-BUILDING-WAY-349985223","mesh":107},{"name":"OSM-BUILDING-WAY-349985228","mesh":108},{"name":"OSM-BUILDING-WAY-349985236","mesh":109},{"name":"OSM-BUILDING-WAY-349985239","mesh":110},{"name":"OSM-BUILDING-WAY-349985248","mesh":111},{"name":"OSM-BUILDING-WAY-349985252","mesh":112},{"name":"OSM-BUILDING-WAY-349985269","mesh":113},{"name":"OSM-BUILDING-WAY-349985279","mesh":114},{"name":"OSM-BUILDING-WAY-349985285","mesh":115},{"name":"OSM-BUILDING-WAY-349985290","mesh":116},{"name":"OSM-BUILDING-WAY-349985294","mesh":117},{"name":"OSM-BUILDING-WAY-349985321","mesh":118},{"name":"OSM-BUILDING-WAY-349985327","mesh":119},{"name":"OSM-BUILDING-WAY-349985331","mesh":120},{"name":"OSM-BUILDING-WAY-349985339","mesh":121},{"name":"OSM-BUILDING-WAY-349985344","mesh":122},{"name":"OSM-BUILDING-WAY-349985354","mesh":123},{"name":"OSM-BUILDING-WAY-349985362","mesh":124},{"name":"OSM-BUILDING-WAY-349985364","mesh":125},{"name":"OSM-BUILDING-WAY-349985366","mesh":126},{"name":"OSM-BUILDING-WAY-349985375","mesh":127},{"name":"OSM-BUILDING-WAY-349985379","mesh":128},{"name":"OSM-BUILDING-WAY-349985383","mesh":129},{"name":"OSM-BUILDING-WAY-349985389","mesh":130},{"name":"OSM-BUILDING-WAY-349985393","mesh":131},{"name":"OSM-BUILDING-WAY-349985395","mesh":132},{"name":"OSM-BUILDING-WAY-349985401","mesh":133},{"name":"OSM-BUILDING-WAY-349985405","mesh":134},{"name":"OSM-BUILDING-WAY-349985421","mesh":135},{"name":"OSM-BUILDING-WAY-349985433","mesh":136},{"name":"OSM-BUILDING-WAY-349985438","mesh":137},{"name":"OSM-BUILDING-WAY-349985439","mesh":138},{"name":"OSM-BUILDING-WAY-349985441","mesh":139},{"name":"OSM-BUILDING-WAY-349985443","mesh":140},{"name":"OSM-BUILDING-WAY-349985444","mesh":141},{"name":"OSM-BUILDING-WAY-349985448","mesh":142},{"name":"OSM-BUILDING-WAY-349985456","mesh":143},{"name":"OSM-BUILDING-WAY-349985461","mesh":144},{"name":"OSM-BUILDING-WAY-349985469","mesh":145},{"name":"OSM-BUILDING-WAY-349985471","mesh":146},{"name":"OSM-BUILDING-WAY-349985474","mesh":147},{"name":"OSM-BUILDING-WAY-349985475","mesh":148},{"name":"OSM-BUILDING-WAY-349985476","mesh":149},{"name":"OSM-BUILDING-WAY-349985478","mesh":150},{"name":"OSM-BUILDING-WAY-349985479","mesh":151},{"name":"OSM-BUILDING-WAY-349985480","mesh":152},{"name":"OSM-BUILDING-WAY-349985484","mesh":153},{"name":"OSM-BUILDING-WAY-349985485","mesh":154},{"name":"OSM-BUILDING-WAY-349985487","mesh":155}],"buffers":[{"uri":"gltf_buffer_0.bin","byteLength":144},{"uri":"gltf_buffer_1.bin","byteLength":96},{"uri":"gltf_buffer_2.bin","byteLength":32},{"uri":"gltf_buffer_3.bin","byteLength":96},{"uri":"gltf_buffer_4.bin","byteLength":144},{"uri":"gltf_buffer_5.bin","byteLength":96},{"uri":"gltf_buffer_6.bin","byteLength":144},{"uri":"gltf_buffer_7.bin","byteLength":96},{"uri":"gltf_buffer_8.bin","byteLength":96},{"uri":"gltf_buffer_9.bin","byteLength":96},{"uri":"gltf_buffer_10.bin","byteLength":96},{"uri":"gltf_buffer_11.bin","byteLength":96},{"uri":"gltf_buffer_12.bin","byteLength":96},{"uri":"gltf_buffer_13.bin","byteLength":96},{"uri":"gltf_buffer_14.bin","byteLength":144},{"uri":"gltf_buffer_15.bin","byteLength":96},{"uri":"gltf_buffer_16.bin","byteLength":96},{"uri":"gltf_buffer_17.bin","byteLength":96},{"uri":"gltf_buffer_18.bin","byteLength":96},{"uri":"gltf_buffer_19.bin","byteLength":96},{"uri":"gltf_buffer_20.bin","byteLength":96},{"uri":"gltf_buffer_21.bin","byteLength":96},{"uri":"gltf_buffer_22.bin","byteLength":96},{"uri":"gltf_buffer_23.bin","byteLength":96},{"uri":"gltf_buffer_24.bin","byteLength":96},{"uri":"gltf_buffer_25.bin","byteLength":96},{"uri":"gltf_buffer_26.bin","byteLength":96},{"uri":"gltf_buffer_27.bin","byteLength":96},{"uri":"gltf_buffer_28.bin","byteLength":96},{"uri":"gltf_buffer_29.bin","byteLength":96},{"uri":"gltf_buffer_30.bin","byteLength":96},{"uri":"gltf_buffer_31.bin","byteLength":96},{"uri":"gltf_buffer_32.bin","byteLength":96},{"uri":"gltf_buffer_33.bin","byteLength":96},{"uri":"gltf_buffer_34.bin","byteLength":96},{"uri":"gltf_buffer_35.bin","byteLength":96},{"uri":"gltf_buffer_36.bin","byteLength":96},{"uri":"gltf_buffer_37.bin","byteLength":96},{"uri":"gltf_buffer_38.bin","byteLength":192},{"uri":"gltf_buffer_39.bin","byteLength":120},{"uri":"gltf_buffer_40.bin","byteLength":40},{"uri":"gltf_buffer_41.bin","byteLength":96},{"uri":"gltf_buffer_42.bin","byteLength":96},{"uri":"gltf_buffer_43.bin","byteLength":144},{"uri":"gltf_buffer_44.bin","byteLength":96},{"uri":"gltf_buffer_45.bin","byteLength":96},{"uri":"gltf_buffer_46.bin","byteLength":96},{"uri":"gltf_buffer_47.bin","byteLength":96},{"uri":"gltf_buffer_48.bin","byteLength":96},{"uri":"gltf_buffer_49.bin","byteLength":96},{"uri":"gltf_buffer_50.bin","byteLength":96},{"uri":"gltf_buffer_51.bin","byteLength":96},{"uri":"gltf_buffer_52.bin","byteLength":96},{"uri":"gltf_buffer_53.bin","byteLength":96},{"uri":"gltf_buffer_54.bin","byteLength":96},{"uri":"gltf_buffer_55.bin","byteLength":96},{"uri":"gltf_buffer_56.bin","byteLength":96},{"uri":"gltf_buffer_57.bin","byteLength":96},{"uri":"gltf_buffer_58.bin","byteLength":96},{"uri":"gltf_buffer_59.bin","byteLength":96},{"uri":"gltf_buffer_60.bin","byteLength":96},{"uri":"gltf_buffer_61.bin","byteLength":96},{"uri":"gltf_buffer_62.bin","byteLength":96},{"uri":"gltf_buffer_63.bin","byteLength":96},{"uri":"gltf_buffer_64.bin","byteLength":96},{"uri":"gltf_buffer_65.bin","byteLength":96},{"uri":"gltf_buffer_66.bin","byteLength":96},{"uri":"gltf_buffer_67.bin","byteLength":96},{"uri":"gltf_buffer_68.bin","byteLength":96},{"uri":"gltf_buffer_69.bin","byteLength":96},{"uri":"gltf_buffer_70.bin","byteLength":144},{"uri":"gltf_buffer_71.bin","byteLength":96},{"uri":"gltf_buffer_72.bin","byteLength":96},{"uri":"gltf_buffer_73.bin","byteLength":96},{"uri":"gltf_buffer_74.bin","byteLength":96},{"uri":"gltf_buffer_75.bin","byteLength":96},{"uri":"gltf_buffer_76.bin","byteLength":96},{"uri":"gltf_buffer_77.bin","byteLength":96},{"uri":"gltf_buffer_78.bin","byteLength":96},{"uri":"gltf_buffer_79.bin","byteLength":96},{"uri":"gltf_buffer_80.bin","byteLength":96},{"uri":"gltf_buffer_81.bin","byteLength":96},{"uri":"gltf_buffer_82.bin","byteLength":96},{"uri":"gltf_buffer_83.bin","byteLength":96},{"uri":"gltf_buffer_84.bin","byteLength":96},{"uri":"gltf_buffer_85.bin","byteLength":96},{"uri":"gltf_buffer_86.bin","byteLength":96},{"uri":"gltf_buffer_87.bin","byteLength":96},{"uri":"gltf_buffer_88.bin","byteLength":96},{"uri":"gltf_buffer_89.bin","byteLength":96},{"uri":"gltf_buffer_90.bin","byteLength":96},{"uri":"gltf_buffer_91.bin","byteLength":96},{"uri":"gltf_buffer_92.bin","byteLength":96},{"uri":"gltf_buffer_93.bin","byteLength":96},{"uri":"gltf_buffer_94.bin","byteLength":96},{"uri":"gltf_buffer_95.bin","byteLength":96},{"uri":"gltf_buffer_96.bin","byteLength":96},{"uri":"gltf_buffer_97.bin","byteLength":96},{"uri":"gltf_buffer_98.bin","byteLength":96},{"uri":"gltf_buffer_99.bin","byteLength":96},{"uri":"gltf_buffer_100.bin","byteLength":96},{"uri":"gltf_buffer_101.bin","byteLength":96},{"uri":"gltf_buffer_102.bin","byteLength":96},{"uri":"gltf_buffer_103.bin","byteLength":96},{"uri":"gltf_buffer_104.bin","byteLength":96},{"uri":"gltf_buffer_105.bin","byteLength":96},{"uri":"gltf_buffer_106.bin","byteLength":96},{"uri":"gltf_buffer_107.bin","byteLength":96},{"uri":"gltf_buffer_108.bin","byteLength":96},{"uri":"gltf_buffer_109.bin","byteLength":96},{"uri":"gltf_buffer_110.bin","byteLength":96},{"uri":"gltf_buffer_111.bin","byteLength":96},{"uri":"gltf_buffer_112.bin","byteLength":96},{"uri":"gltf_buffer_113.bin","byteLength":96},{"uri":"gltf_buffer_114.bin","byteLength":96},{"uri":"gltf_buffer_115.bin","byteLength":96},{"uri":"gltf_buffer_116.bin","byteLength":96},{"uri":"gltf_buffer_117.bin","byteLength":96},{"uri":"gltf_buffer_118.bin","byteLength":96},{"uri":"gltf_buffer_119.bin","byteLength":96},{"uri":"gltf_buffer_120.bin","byteLength":96},{"uri":"gltf_buffer_121.bin","byteLength":96},{"uri":"gltf_buffer_122.bin","byteLength":96},{"uri":"gltf_buffer_123.bin","byteLength":96},{"uri":"gltf_buffer_124.bin","byteLength":96},{"uri":"gltf_buffer_125.bin","byteLength":96},{"uri":"gltf_buffer_126.bin","byteLength":96},{"uri":"gltf_buffer_127.bin","byteLength":96},{"uri":"gltf_buffer_128.bin","byteLength":96},{"uri":"gltf_buffer_129.bin","byteLength":96},{"uri":"gltf_buffer_130.bin","byteLength":96},{"uri":"gltf_buffer_131.bin","byteLength":96},{"uri":"gltf_buffer_132.bin","byteLength":96},{"uri":"gltf_buffer_133.bin","byteLength":96},{"uri":"gltf_buffer_134.bin","byteLength":96},{"uri":"gltf_buffer_135.bin","byteLength":96},{"uri":"gltf_buffer_136.bin","byteLength":96},{"uri":"gltf_buffer_137.bin","byteLength":96},{"uri":"gltf_buffer_138.bin","byteLength":96},{"uri":"gltf_buffer_139.bin","byteLength":96},{"uri":"gltf_buffer_140.bin","byteLength":96},{"uri":"gltf_buffer_141.bin","byteLength":96},{"uri":"gltf_buffer_142.bin","byteLength":96},{"uri":"gltf_buffer_143.bin","byteLength":96},{"uri":"gltf_buffer_144.bin","byteLength":96},{"uri":"gltf_buffer_145.bin","byteLength":96},{"uri":"gltf_buffer_146.bin","byteLength":96},{"uri":"gltf_buffer_147.bin","byteLength":96},{"uri":"gltf_buffer_148.bin","byteLength":96},{"uri":"gltf_buffer_149.bin","byteLength":96},{"uri":"gltf_buffer_150.bin","byteLength":96},{"uri":"gltf_buffer_151.bin","byteLength":96},{"uri":"gltf_buffer_152.bin","byteLength":96},{"uri":"gltf_buffer_153.bin","byteLength":96},{"uri":"gltf_buffer_154.bin","byteLength":96},{"uri":"gltf_buffer_155.bin","byteLength":96},{"uri":"gltf_buffer_156.bin","byteLength":96},{"uri":"gltf_buffer_157.bin","byteLength":96},{"uri":"gltf_buffer_158.bin","byteLength":96},{"uri":"gltf_buffer_159.bin","byteLength":96},{"uri":"gltf_buffer_160.bin","byteLength":96},{"uri":"gltf_buffer_161.bin","byteLength":96},{"uri":"gltf_buffer_162.bin","byteLength":192},{"uri":"gltf_buffer_163.bin","byteLength":120},{"uri":"gltf_buffer_164.bin","byteLength":120},{"uri":"gltf_buffer_165.bin","byteLength":288},{"uri":"gltf_buffer_166.bin","byteLength":168},{"uri":"gltf_buffer_167.bin","byteLength":56}],"bufferViews":[{"buffer":0,"byteOffset":0,"byteLength":144},{"buffer":1,"byteOffset":0,"byteLength":96},{"buffer":2,"byteOffset":0,"byteLength":32},{"buffer":3,"byteOffset":0,"byteLength":96},{"buffer":4,"byteOffset":0,"byteLength":144},{"buffer":5,"byteOffset":0,"byteLength":96},{"buffer":6,"byteOffset":0,"byteLength":144},{"buffer":7,"byteOffset":0,"byteLength":96},{"buffer":8,"byteOffset":0,"byteLength":96},{"buffer":9,"byteOffset":0,"byteLength":96},{"buffer":10,"byteOffset":0,"byteLength":96},{"buffer":11,"byteOffset":0,"byteLength":96},{"buffer":12,"byteOffset":0,"byteLength":96},{"buffer":13,"byteOffset":0,"byteLength":96},{"buffer":14,"byteOffset":0,"byteLength":144},{"buffer":15,"byteOffset":0,"byteLength":96},{"buffer":16,"byteOffset":0,"byteLength":96},{"buffer":17,"byteOffset":0,"byteLength":96},{"buffer":18,"byteOffset":0,"byteLength":96},{"buffer":19,"byteOffset":0,"byteLength":96},{"buffer":20,"byteOffset":0,"byteLength":96},{"buffer":21,"byteOffset":0,"byteLength":96},{"buffer":22,"byteOffset":0,"byteLength":96},{"buffer":23,"byteOffset":0,"byteLength":96},{"buffer":24,"byteOffset":0,"byteLength":96},{"buffer":25,"byteOffset":0,"byteLength":96},{"buffer":26,"byteOffset":0,"byteLength":96},{"buffer":27,"byteOffset":0,"byteLength":96},{"buffer":28,"byteOffset":0,"byteLength":96},{"buffer":29,"byteOffset":0,"byteLength":96},{"buffer":30,"byteOffset":0,"byteLength":96},{"buffer":31,"byteOffset":0,"byteLength":96},{"buffer":32,"byteOffset":0,"byteLength":96},{"buffer":33,"byteOffset":0,"byteLength":96},{"buffer":34,"byteOffset":0,"byteLength":96},{"buffer":35,"byteOffset":0,"byteLength":96},{"buffer":36,"byteOffset":0,"byteLength":96},{"buffer":37,"byteOffset":0,"byteLength":96},{"buffer":38,"byteOffset":0,"byteLength":192},{"buffer":39,"byteOffset":0,"byteLength":120},{"buffer":40,"byteOffset":0,"byteLength":40},{"buffer":41,"byteOffset":0,"byteLength":96},{"buffer":42,"byteOffset":0,"byteLength":96},{"buffer":43,"byteOffset":0,"byteLength":144},{"buffer":44,"byteOffset":0,"byteLength":96},{"buffer":45,"byteOffset":0,"byteLength":96},{"buffer":46,"byteOffset":0,"byteLength":96},{"buffer":47,"byteOffset":0,"byteLength":96},{"buffer":48,"byteOffset":0,"byteLength":96},{"buffer":49,"byteOffset":0,"byteLength":96},{"buffer":50,"byteOffset":0,"byteLength":96},{"buffer":51,"byteOffset":0,"byteLength":96},{"buffer":52,"byteOffset":0,"byteLength":96},{"buffer":53,"byteOffset":0,"byteLength":96},{"buffer":54,"byteOffset":0,"byteLength":96},{"buffer":55,"byteOffset":0,"byteLength":96},{"buffer":56,"byteOffset":0,"byteLength":96},{"buffer":57,"byteOffset":0,"byteLength":96},{"buffer":58,"byteOffset":0,"byteLength":96},{"buffer":59,"byteOffset":0,"byteLength":96},{"buffer":60,"byteOffset":0,"byteLength":96},{"buffer":61,"byteOffset":0,"byteLength":96},{"buffer":62,"byteOffset":0,"byteLength":96},{"buffer":63,"byteOffset":0,"byteLength":96},{"buffer":64,"byteOffset":0,"byteLength":96},{"buffer":65,"byteOffset":0,"byteLength":96},{"buffer":66,"byteOffset":0,"byteLength":96},{"buffer":67,"byteOffset":0,"byteLength":96},{"buffer":68,"byteOffset":0,"byteLength":96},{"buffer":69,"byteOffset":0,"byteLength":96},{"buffer":70,"byteOffset":0,"byteLength":144},{"buffer":71,"byteOffset":0,"byteLength":96},{"buffer":72,"byteOffset":0,"byteLength":96},{"buffer":73,"byteOffset":0,"byteLength":96},{"buffer":74,"byteOffset":0,"byteLength":96},{"buffer":75,"byteOffset":0,"byteLength":96},{"buffer":76,"byteOffset":0,"byteLength":96},{"buffer":77,"byteOffset":0,"byteLength":96},{"buffer":78,"byteOffset":0,"byteLength":96},{"buffer":79,"byteOffset":0,"byteLength":96},{"buffer":80,"byteOffset":0,"byteLength":96},{"buffer":81,"byteOffset":0,"byteLength":96},{"buffer":82,"byteOffset":0,"byteLength":96},{"buffer":83,"byteOffset":0,"byteLength":96},{"buffer":84,"byteOffset":0,"byteLength":96},{"buffer":85,"byteOffset":0,"byteLength":96},{"buffer":86,"byteOffset":0,"byteLength":96},{"buffer":87,"byteOffset":0,"byteLength":96},{"buffer":88,"byteOffset":0,"byteLength":96},{"buffer":89,"byteOffset":0,"byteLength":96},{"buffer":90,"byteOffset":0,"byteLength":96},{"buffer":91,"byteOffset":0,"byteLength":96},{"buffer":92,"byteOffset":0,"byteLength":96},{"buffer":93,"byteOffset":0,"byteLength":96},{"buffer":94,"byteOffset":0,"byteLength":96},{"buffer":95,"byteOffset":0,"byteLength":96},{"buffer":96,"byteOffset":0,"byteLength":96},{"buffer":97,"byteOffset":0,"byteLength":96},{"buffer":98,"byteOffset":0,"byteLength":96},{"buffer":99,"byteOffset":0,"byteLength":96},{"buffer":100,"byteOffset":0,"byteLength":96},{"buffer":101,"byteOffset":0,"byteLength":96},{"buffer":102,"byteOffset":0,"byteLength":96},{"buffer":103,"byteOffset":0,"byteLength":96},{"buffer":104,"byteOffset":0,"byteLength":96},{"buffer":105,"byteOffset":0,"byteLength":96},{"buffer":106,"byteOffset":0,"byteLength":96},{"buffer":107,"byteOffset":0,"byteLength":96},{"buffer":108,"byteOffset":0,"byteLength":96},{"buffer":109,"byteOffset":0,"byteLength":96},{"buffer":110,"byteOffset":0,"byteLength":96},{"buffer":111,"byteOffset":0,"byteLength":96},{"buffer":112,"byteOffset":0,"byteLength":96},{"buffer":113,"byteOffset":0,"byteLength":96},{"buffer":114,"byteOffset":0,"byteLength":96},{"buffer":115,"byteOffset":0,"byteLength":96},{"buffer":116,"byteOffset":0,"byteLength":96},{"buffer":117,"byteOffset":0,"byteLength":96},{"buffer":118,"byteOffset":0,"byteLength":96},{"buffer":119,"byteOffset":0,"byteLength":96},{"buffer":120,"byteOffset":0,"byteLength":96},{"buffer":121,"byteOffset":0,"byteLength":96},{"buffer":122,"byteOffset":0,"byteLength":96},{"buffer":123,"byteOffset":0,"byteLength":96},{"buffer":124,"byteOffset":0,"byteLength":96},{"buffer":125,"byteOffset":0,"byteLength":96},{"buffer":126,"byteOffset":0,"byteLength":96},{"buffer":127,"byteOffset":0,"byteLength":96},{"buffer":128,"byteOffset":0,"byteLength":96},{"buffer":129,"byteOffset":0,"byteLength":96},{"buffer":130,"byteOffset":0,"byteLength":96},{"buffer":131,"byteOffset":0,"byteLength":96},{"buffer":132,"byteOffset":0,"byteLength":96},{"buffer":133,"byteOffset":0,"byteLength":96},{"buffer":134,"byteOffset":0,"byteLength":96},{"buffer":135,"byteOffset":0,"byteLength":96},{"buffer":136,"byteOffset":0,"byteLength":96},{"buffer":137,"byteOffset":0,"byteLength":96},{"buffer":138,"byteOffset":0,"byteLength":96},{"buffer":139,"byteOffset":0,"byteLength":96},{"buffer":140,"byteOffset":0,"byteLength":96},{"buffer":141,"byteOffset":0,"byteLength":96},{"buffer":142,"byteOffset":0,"byteLength":96},{"buffer":143,"byteOffset":0,"byteLength":96},{"buffer":144,"byteOffset":0,"byteLength":96},{"buffer":145,"byteOffset":0,"byteLength":96},{"buffer":146,"byteOffset":0,"byteLength":96},{"buffer":147,"byteOffset":0,"byteLength":96},{"buffer":148,"byteOffset":0,"byteLength":96},{"buffer":149,"byteOffset":0,"byteLength":96},{"buffer":150,"byteOffset":0,"byteLength":96},{"buffer":151,"byteOffset":0,"byteLength":96},{"buffer":152,"byteOffset":0,"byteLength":96},{"buffer":153,"byteOffset":0,"byteLength":96},{"buffer":154,"byteOffset":0,"byteLength":96},{"buffer":155,"byteOffset":0,"byteLength":96},{"buffer":156,"byteOffset":0,"byteLength":96},{"buffer":157,"byteOffset":0,"byteLength":96},{"buffer":158,"byteOffset":0,"byteLength":96},{"buffer":159,"byteOffset":0,"byteLength":96},{"buffer":160,"byteOffset":0,"byteLength":96},{"buffer":161,"byteOffset":0,"byteLength":96},{"buffer":162,"byteOffset":0,"byteLength":192},{"buffer":163,"byteOffset":0,"byteLength":120},{"buffer":164,"byteOffset":0,"byteLength":120},{"buffer":165,"byteOffset":0,"byteLength":288},{"buffer":166,"byteOffset":0,"byteLength":168},{"buffer":167,"byteOffset":0,"byteLength":56}]}